<?xml version="1.0" encoding="UTF-8"?><svg xmlns="http://www.w3.org/2000/svg" xmlns:xlink="http://www.w3.org/1999/xlink" stroke-dasharray="none" shape-rendering="auto" font-family="'Dialog'" width="804" text-rendering="auto" fill-opacity="1" contentScriptType="text/ecmascript" color-interpolation="auto" color-rendering="auto" preserveAspectRatio="xMidYMid meet" font-size="12" fill="black" stroke="black" image-rendering="auto" stroke-miterlimit="10" zoomAndPan="magnify" version="1.0" stroke-linecap="square" stroke-linejoin="miter" contentStyleType="text/css" font-style="normal" height="187" stroke-width="1" stroke-dashoffset="0" font-weight="normal" stroke-opacity="1">
<!--Generated by the Batik Graphics2D SVG Generator-->
<defs id="genericDefs"/>
<g>
<defs id="defs1">
<clipPath clipPathUnits="userSpaceOnUse" id="clipPath1">
<path d="M31 22 L773 22 L773 165 L31 165 L31 22 Z"/>
</clipPath>
<clipPath clipPathUnits="userSpaceOnUse" id="clipPath2">
<path d="M-1 -1 L805 -1 L805 188 L-1 188 L-1 -1 Z"/>
</clipPath>
</defs>
<g font-size="15" fill="white" text-rendering="geometricPrecision" font-family="'Ubuntu'" stroke-linejoin="round" stroke="white" stroke-width="0" stroke-miterlimit="0">
<rect x="32" y="23" clip-path="url(#clipPath1)" width="740" height="141" stroke="none"/>
</g>
<g font-size="15" stroke-linecap="butt" fill="rgb(204,204,204)" text-rendering="geometricPrecision" font-family="'Ubuntu'" stroke-dasharray="3,3" stroke="rgb(204,204,204)">
<line clip-path="url(#clipPath1)" fill="none" x1="32" x2="32" y1="23" y2="164"/>
<line clip-path="url(#clipPath1)" fill="none" x1="97" x2="97" y1="23" y2="164"/>
<line clip-path="url(#clipPath1)" fill="none" x1="163" x2="163" y1="23" y2="164"/>
<line clip-path="url(#clipPath1)" fill="none" x1="229" x2="229" y1="23" y2="164"/>
<line clip-path="url(#clipPath1)" fill="none" x1="294" x2="294" y1="23" y2="164"/>
<line clip-path="url(#clipPath1)" fill="none" x1="360" x2="360" y1="23" y2="164"/>
<line clip-path="url(#clipPath1)" fill="none" x1="426" x2="426" y1="23" y2="164"/>
<line clip-path="url(#clipPath1)" fill="none" x1="492" x2="492" y1="23" y2="164"/>
<line clip-path="url(#clipPath1)" fill="none" x1="557" x2="557" y1="23" y2="164"/>
<line clip-path="url(#clipPath1)" fill="none" x1="623" x2="623" y1="23" y2="164"/>
<line clip-path="url(#clipPath1)" fill="none" x1="689" x2="689" y1="23" y2="164"/>
<line clip-path="url(#clipPath1)" fill="none" x1="755" x2="755" y1="23" y2="164"/>
<line clip-path="url(#clipPath1)" fill="none" x1="32" x2="772" y1="164" y2="164"/>
<line clip-path="url(#clipPath1)" fill="none" x1="32" x2="772" y1="112" y2="112"/>
<line clip-path="url(#clipPath1)" fill="none" x1="32" x2="772" y1="60" y2="60"/>
<rect x="328" y="162" clip-path="url(#clipPath1)" fill="rgb(0,0,139)" width="5" height="5" stroke="none"/>
</g>
<g font-size="15" stroke-linecap="butt" fill="rgb(0,0,139)" text-rendering="geometricPrecision" font-family="'Ubuntu'" shape-rendering="crispEdges" stroke="rgb(0,0,139)">
<line clip-path="url(#clipPath1)" fill="none" x1="330" x2="330" y1="164" y2="161"/>
<rect x="328" y="159" clip-path="url(#clipPath1)" width="5" shape-rendering="auto" height="5" stroke="none"/>
<line clip-path="url(#clipPath1)" fill="none" x1="330" x2="330" y1="161" y2="158"/>
<rect x="328" y="156" clip-path="url(#clipPath1)" width="5" shape-rendering="auto" height="5" stroke="none"/>
<line clip-path="url(#clipPath1)" fill="none" x1="330" x2="330" y1="158" y2="156"/>
<rect x="328" y="154" clip-path="url(#clipPath1)" width="5" shape-rendering="auto" height="5" stroke="none"/>
<line clip-path="url(#clipPath1)" fill="none" x1="330" x2="330" y1="156" y2="153"/>
<rect x="328" y="151" clip-path="url(#clipPath1)" width="5" shape-rendering="auto" height="5" stroke="none"/>
<line clip-path="url(#clipPath1)" fill="none" x1="330" x2="330" y1="153" y2="151"/>
<rect x="328" y="149" clip-path="url(#clipPath1)" width="5" shape-rendering="auto" height="5" stroke="none"/>
<line clip-path="url(#clipPath1)" fill="none" x1="330" x2="331" y1="151" y2="151" shape-rendering="auto"/>
<rect x="329" y="149" clip-path="url(#clipPath1)" width="5" shape-rendering="auto" height="5" stroke="none"/>
<line clip-path="url(#clipPath1)" fill="none" x1="331" x2="331" y1="151" y2="148"/>
<rect x="329" y="146" clip-path="url(#clipPath1)" width="5" shape-rendering="auto" height="5" stroke="none"/>
<line clip-path="url(#clipPath1)" fill="none" x1="331" x2="397" y1="148" y2="145" shape-rendering="auto"/>
<rect x="395" y="143" clip-path="url(#clipPath1)" width="5" shape-rendering="auto" height="5" stroke="none"/>
<line clip-path="url(#clipPath1)" fill="none" x1="397" x2="397" y1="145" y2="143"/>
<rect x="395" y="141" clip-path="url(#clipPath1)" width="5" shape-rendering="auto" height="5" stroke="none"/>
<line clip-path="url(#clipPath1)" fill="none" x1="397" x2="397" y1="143" y2="140"/>
<rect x="395" y="138" clip-path="url(#clipPath1)" width="5" shape-rendering="auto" height="5" stroke="none"/>
<line clip-path="url(#clipPath1)" fill="none" x1="397" x2="398" y1="140" y2="138" shape-rendering="auto"/>
<rect x="396" y="136" clip-path="url(#clipPath1)" width="5" shape-rendering="auto" height="5" stroke="none"/>
<line clip-path="url(#clipPath1)" fill="none" x1="398" x2="461" y1="138" y2="133" shape-rendering="auto"/>
<rect x="459" y="131" clip-path="url(#clipPath1)" width="5" shape-rendering="auto" height="5" stroke="none"/>
<line clip-path="url(#clipPath1)" fill="none" x1="461" x2="461" y1="133" y2="130"/>
<rect x="459" y="128" clip-path="url(#clipPath1)" width="5" shape-rendering="auto" height="5" stroke="none"/>
<line clip-path="url(#clipPath1)" fill="none" x1="461" x2="461" y1="130" y2="127"/>
<rect x="459" y="125" clip-path="url(#clipPath1)" width="5" shape-rendering="auto" height="5" stroke="none"/>
<line clip-path="url(#clipPath1)" fill="none" x1="461" x2="461" y1="127" y2="125"/>
<rect x="459" y="123" clip-path="url(#clipPath1)" width="5" shape-rendering="auto" height="5" stroke="none"/>
<line clip-path="url(#clipPath1)" fill="none" x1="461" x2="461" y1="125" y2="122"/>
<rect x="459" y="120" clip-path="url(#clipPath1)" width="5" shape-rendering="auto" height="5" stroke="none"/>
<line clip-path="url(#clipPath1)" fill="none" x1="461" x2="461" y1="122" y2="120"/>
<rect x="459" y="118" clip-path="url(#clipPath1)" width="5" shape-rendering="auto" height="5" stroke="none"/>
<line clip-path="url(#clipPath1)" fill="none" x1="461" x2="461" y1="120" y2="117"/>
<rect x="459" y="115" clip-path="url(#clipPath1)" width="5" shape-rendering="auto" height="5" stroke="none"/>
<line clip-path="url(#clipPath1)" fill="none" x1="461" x2="461" y1="117" y2="114"/>
<rect x="459" y="112" clip-path="url(#clipPath1)" width="5" shape-rendering="auto" height="5" stroke="none"/>
<line clip-path="url(#clipPath1)" fill="none" x1="461" x2="461" y1="114" y2="112"/>
<rect x="459" y="110" clip-path="url(#clipPath1)" width="5" shape-rendering="auto" height="5" stroke="none"/>
<line clip-path="url(#clipPath1)" fill="none" x1="461" x2="462" y1="112" y2="109" shape-rendering="auto"/>
<rect x="460" y="107" clip-path="url(#clipPath1)" width="5" shape-rendering="auto" height="5" stroke="none"/>
<line clip-path="url(#clipPath1)" fill="none" x1="462" x2="462" y1="109" y2="107"/>
<rect x="460" y="105" clip-path="url(#clipPath1)" width="5" shape-rendering="auto" height="5" stroke="none"/>
<line clip-path="url(#clipPath1)" fill="none" x1="462" x2="462" y1="107" y2="104"/>
<rect x="460" y="102" clip-path="url(#clipPath1)" width="5" shape-rendering="auto" height="5" stroke="none"/>
<line clip-path="url(#clipPath1)" fill="none" x1="462" x2="462" y1="104" y2="102"/>
<rect x="460" y="100" clip-path="url(#clipPath1)" width="5" shape-rendering="auto" height="5" stroke="none"/>
<line clip-path="url(#clipPath1)" fill="none" x1="462" x2="462" y1="102" y2="99"/>
<rect x="460" y="97" clip-path="url(#clipPath1)" width="5" shape-rendering="auto" height="5" stroke="none"/>
<line clip-path="url(#clipPath1)" fill="none" x1="462" x2="627" y1="99" y2="96" shape-rendering="auto"/>
<rect x="625" y="94" clip-path="url(#clipPath1)" width="5" shape-rendering="auto" height="5" stroke="none"/>
<line clip-path="url(#clipPath1)" fill="none" x1="627" x2="627" y1="96" y2="94"/>
<rect x="625" y="92" clip-path="url(#clipPath1)" width="5" shape-rendering="auto" height="5" stroke="none"/>
<line clip-path="url(#clipPath1)" fill="none" x1="627" x2="627" y1="94" y2="91"/>
<rect x="625" y="89" clip-path="url(#clipPath1)" width="5" shape-rendering="auto" height="5" stroke="none"/>
<line clip-path="url(#clipPath1)" fill="none" x1="627" x2="627" y1="91" y2="89"/>
<rect x="625" y="87" clip-path="url(#clipPath1)" width="5" shape-rendering="auto" height="5" stroke="none"/>
<line clip-path="url(#clipPath1)" fill="none" x1="627" x2="627" y1="89" y2="86"/>
<rect x="625" y="84" clip-path="url(#clipPath1)" width="5" shape-rendering="auto" height="5" stroke="none"/>
<line clip-path="url(#clipPath1)" fill="none" x1="627" x2="627" y1="86" y2="84"/>
<rect x="625" y="82" clip-path="url(#clipPath1)" width="5" shape-rendering="auto" height="5" stroke="none"/>
<line clip-path="url(#clipPath1)" fill="none" x1="627" x2="627" y1="84" y2="81"/>
<rect x="625" y="79" clip-path="url(#clipPath1)" width="5" shape-rendering="auto" height="5" stroke="none"/>
<line clip-path="url(#clipPath1)" fill="none" x1="627" x2="628" y1="81" y2="78" shape-rendering="auto"/>
<rect x="626" y="76" clip-path="url(#clipPath1)" width="5" shape-rendering="auto" height="5" stroke="none"/>
<line clip-path="url(#clipPath1)" fill="none" x1="628" x2="699" y1="78" y2="76" shape-rendering="auto"/>
<rect x="697" y="74" clip-path="url(#clipPath1)" width="5" shape-rendering="auto" height="5" stroke="none"/>
<line clip-path="url(#clipPath1)" fill="none" x1="699" x2="761" y1="76" y2="73" shape-rendering="auto"/>
<rect x="759" y="71" clip-path="url(#clipPath1)" width="5" shape-rendering="auto" height="5" stroke="none"/>
<line clip-path="url(#clipPath1)" fill="none" x1="761" x2="761" y1="73" y2="71"/>
<rect x="759" y="69" clip-path="url(#clipPath1)" width="5" shape-rendering="auto" height="5" stroke="none"/>
<line clip-path="url(#clipPath1)" fill="none" x1="761" x2="761" y1="71" y2="68"/>
<rect x="759" y="66" clip-path="url(#clipPath1)" width="5" shape-rendering="auto" height="5" stroke="none"/>
<line clip-path="url(#clipPath1)" fill="none" x1="761" x2="761" y1="68" y2="65"/>
<rect x="759" y="63" clip-path="url(#clipPath1)" width="5" shape-rendering="auto" height="5" stroke="none"/>
<line clip-path="url(#clipPath1)" fill="none" x1="761" x2="762" y1="65" y2="65" shape-rendering="auto"/>
<rect x="760" y="63" clip-path="url(#clipPath1)" width="5" shape-rendering="auto" height="5" stroke="none"/>
<line clip-path="url(#clipPath1)" fill="none" x1="762" x2="762" y1="65" y2="63"/>
<rect x="760" y="61" clip-path="url(#clipPath1)" width="5" shape-rendering="auto" height="5" stroke="none"/>
<line clip-path="url(#clipPath1)" fill="none" x1="762" x2="762" y1="63" y2="60"/>
<rect x="760" y="58" clip-path="url(#clipPath1)" width="5" shape-rendering="auto" height="5" stroke="none"/>
<line clip-path="url(#clipPath1)" fill="none" x1="762" x2="762" y1="60" y2="58"/>
<rect x="760" y="56" clip-path="url(#clipPath1)" width="5" shape-rendering="auto" height="5" stroke="none"/>
<rect x="32" y="23" clip-path="url(#clipPath2)" fill="none" width="740" shape-rendering="auto" height="141" stroke="black"/>
</g>
<g text-rendering="geometricPrecision" font-size="13" stroke-linecap="butt">
<line clip-path="url(#clipPath2)" fill="none" x1="32" x2="772" y1="21" y2="21"/>
<line clip-path="url(#clipPath2)" fill="none" x1="32" x2="772" y1="166" y2="166"/>
<text xml:space="preserve" x="402" y="184" clip-path="url(#clipPath2)" stroke="none"/>
<line clip-path="url(#clipPath2)" fill="none" x1="32" x2="32" y1="17" y2="21"/>
<line clip-path="url(#clipPath2)" fill="none" x1="32" x2="32" y1="170" y2="166"/>
<text font-size="11" x="31" y="14" clip-path="url(#clipPath2)" stroke="none" xml:space="preserve">0</text>
<text font-size="11" x="31" y="182" clip-path="url(#clipPath2)" stroke="none" xml:space="preserve">0</text>
<line clip-path="url(#clipPath2)" fill="none" x1="64" x2="64" y1="19" y2="21"/>
<line clip-path="url(#clipPath2)" fill="none" x1="64" x2="64" y1="168" y2="166"/>
<line clip-path="url(#clipPath2)" fill="none" x1="97" x2="97" y1="17" y2="21"/>
<line clip-path="url(#clipPath2)" fill="none" x1="97" x2="97" y1="170" y2="166"/>
<text font-size="11" x="91" y="14" clip-path="url(#clipPath2)" stroke="none" xml:space="preserve">200</text>
<text font-size="11" x="91" y="182" clip-path="url(#clipPath2)" stroke="none" xml:space="preserve">200</text>
<line clip-path="url(#clipPath2)" fill="none" x1="130" x2="130" y1="19" y2="21"/>
<line clip-path="url(#clipPath2)" fill="none" x1="130" x2="130" y1="168" y2="166"/>
<line clip-path="url(#clipPath2)" fill="none" x1="163" x2="163" y1="17" y2="21"/>
<line clip-path="url(#clipPath2)" fill="none" x1="163" x2="163" y1="170" y2="166"/>
<text font-size="11" x="157" y="14" clip-path="url(#clipPath2)" stroke="none" xml:space="preserve">400</text>
<text font-size="11" x="157" y="182" clip-path="url(#clipPath2)" stroke="none" xml:space="preserve">400</text>
<line clip-path="url(#clipPath2)" fill="none" x1="196" x2="196" y1="19" y2="21"/>
<line clip-path="url(#clipPath2)" fill="none" x1="196" x2="196" y1="168" y2="166"/>
<line clip-path="url(#clipPath2)" fill="none" x1="229" x2="229" y1="17" y2="21"/>
<line clip-path="url(#clipPath2)" fill="none" x1="229" x2="229" y1="170" y2="166"/>
<text font-size="11" x="223" y="14" clip-path="url(#clipPath2)" stroke="none" xml:space="preserve">600</text>
<text font-size="11" x="223" y="182" clip-path="url(#clipPath2)" stroke="none" xml:space="preserve">600</text>
<line clip-path="url(#clipPath2)" fill="none" x1="262" x2="262" y1="19" y2="21"/>
<line clip-path="url(#clipPath2)" fill="none" x1="262" x2="262" y1="168" y2="166"/>
<line clip-path="url(#clipPath2)" fill="none" x1="294" x2="294" y1="17" y2="21"/>
<line clip-path="url(#clipPath2)" fill="none" x1="294" x2="294" y1="170" y2="166"/>
<text font-size="11" x="288" y="14" clip-path="url(#clipPath2)" stroke="none" xml:space="preserve">800</text>
<text font-size="11" x="288" y="182" clip-path="url(#clipPath2)" stroke="none" xml:space="preserve">800</text>
<line clip-path="url(#clipPath2)" fill="none" x1="327" x2="327" y1="19" y2="21"/>
<line clip-path="url(#clipPath2)" fill="none" x1="327" x2="327" y1="168" y2="166"/>
<line clip-path="url(#clipPath2)" fill="none" x1="360" x2="360" y1="17" y2="21"/>
<line clip-path="url(#clipPath2)" fill="none" x1="360" x2="360" y1="170" y2="166"/>
<text font-size="11" x="351" y="14" clip-path="url(#clipPath2)" stroke="none" xml:space="preserve">1000</text>
<text font-size="11" x="351" y="182" clip-path="url(#clipPath2)" stroke="none" xml:space="preserve">1000</text>
<line clip-path="url(#clipPath2)" fill="none" x1="393" x2="393" y1="19" y2="21"/>
<line clip-path="url(#clipPath2)" fill="none" x1="393" x2="393" y1="168" y2="166"/>
<line clip-path="url(#clipPath2)" fill="none" x1="426" x2="426" y1="17" y2="21"/>
<line clip-path="url(#clipPath2)" fill="none" x1="426" x2="426" y1="170" y2="166"/>
<text font-size="11" x="417" y="14" clip-path="url(#clipPath2)" stroke="none" xml:space="preserve">1200</text>
<text font-size="11" x="417" y="182" clip-path="url(#clipPath2)" stroke="none" xml:space="preserve">1200</text>
<line clip-path="url(#clipPath2)" fill="none" x1="459" x2="459" y1="19" y2="21"/>
<line clip-path="url(#clipPath2)" fill="none" x1="459" x2="459" y1="168" y2="166"/>
<line clip-path="url(#clipPath2)" fill="none" x1="492" x2="492" y1="17" y2="21"/>
<line clip-path="url(#clipPath2)" fill="none" x1="492" x2="492" y1="170" y2="166"/>
<text font-size="11" x="483" y="14" clip-path="url(#clipPath2)" stroke="none" xml:space="preserve">1400</text>
<text font-size="11" x="483" y="182" clip-path="url(#clipPath2)" stroke="none" xml:space="preserve">1400</text>
<line clip-path="url(#clipPath2)" fill="none" x1="525" x2="525" y1="19" y2="21"/>
<line clip-path="url(#clipPath2)" fill="none" x1="525" x2="525" y1="168" y2="166"/>
<line clip-path="url(#clipPath2)" fill="none" x1="557" x2="557" y1="17" y2="21"/>
<line clip-path="url(#clipPath2)" fill="none" x1="557" x2="557" y1="170" y2="166"/>
<text font-size="11" x="548" y="14" clip-path="url(#clipPath2)" stroke="none" xml:space="preserve">1600</text>
<text font-size="11" x="548" y="182" clip-path="url(#clipPath2)" stroke="none" xml:space="preserve">1600</text>
<line clip-path="url(#clipPath2)" fill="none" x1="590" x2="590" y1="19" y2="21"/>
<line clip-path="url(#clipPath2)" fill="none" x1="590" x2="590" y1="168" y2="166"/>
<line clip-path="url(#clipPath2)" fill="none" x1="623" x2="623" y1="17" y2="21"/>
<line clip-path="url(#clipPath2)" fill="none" x1="623" x2="623" y1="170" y2="166"/>
<text font-size="11" x="614" y="14" clip-path="url(#clipPath2)" stroke="none" xml:space="preserve">1800</text>
<text font-size="11" x="614" y="182" clip-path="url(#clipPath2)" stroke="none" xml:space="preserve">1800</text>
<line clip-path="url(#clipPath2)" fill="none" x1="656" x2="656" y1="19" y2="21"/>
<line clip-path="url(#clipPath2)" fill="none" x1="656" x2="656" y1="168" y2="166"/>
<line clip-path="url(#clipPath2)" fill="none" x1="689" x2="689" y1="17" y2="21"/>
<line clip-path="url(#clipPath2)" fill="none" x1="689" x2="689" y1="170" y2="166"/>
<text font-size="11" x="680" y="14" clip-path="url(#clipPath2)" stroke="none" xml:space="preserve">2000</text>
<text font-size="11" x="680" y="182" clip-path="url(#clipPath2)" stroke="none" xml:space="preserve">2000</text>
<line clip-path="url(#clipPath2)" fill="none" x1="722" x2="722" y1="19" y2="21"/>
<line clip-path="url(#clipPath2)" fill="none" x1="722" x2="722" y1="168" y2="166"/>
<line clip-path="url(#clipPath2)" fill="none" x1="755" x2="755" y1="17" y2="21"/>
<line clip-path="url(#clipPath2)" fill="none" x1="755" x2="755" y1="170" y2="166"/>
<text font-size="11" x="746" y="14" clip-path="url(#clipPath2)" stroke="none" xml:space="preserve">2200</text>
<text font-size="11" x="746" y="182" clip-path="url(#clipPath2)" stroke="none" xml:space="preserve">2200</text>
<line clip-path="url(#clipPath2)" fill="none" x1="30" x2="30" y1="23" y2="164"/>
<line clip-path="url(#clipPath2)" fill="none" x1="774" x2="774" y1="23" y2="164"/>
<line clip-path="url(#clipPath2)" fill="none" x1="26" x2="30" y1="164" y2="164"/>
<line clip-path="url(#clipPath2)" fill="none" x1="778" x2="774" y1="164" y2="164"/>
<text font-size="11" x="20" y="169" clip-path="url(#clipPath2)" stroke="none" xml:space="preserve">0</text>
<text font-size="11" x="781" y="169" clip-path="url(#clipPath2)" stroke="none" xml:space="preserve">0</text>
<line clip-path="url(#clipPath2)" fill="none" x1="28" x2="30" y1="138" y2="138"/>
<line clip-path="url(#clipPath2)" fill="none" x1="776" x2="774" y1="138" y2="138"/>
<line clip-path="url(#clipPath2)" fill="none" x1="26" x2="30" y1="112" y2="112"/>
<line clip-path="url(#clipPath2)" fill="none" x1="778" x2="774" y1="112" y2="112"/>
<text font-size="11" x="15" y="117" clip-path="url(#clipPath2)" stroke="none" xml:space="preserve">20</text>
<text font-size="11" x="781" y="117" clip-path="url(#clipPath2)" stroke="none" xml:space="preserve">20</text>
<line clip-path="url(#clipPath2)" fill="none" x1="28" x2="30" y1="86" y2="86"/>
<line clip-path="url(#clipPath2)" fill="none" x1="776" x2="774" y1="86" y2="86"/>
<line clip-path="url(#clipPath2)" fill="none" x1="26" x2="30" y1="60" y2="60"/>
<line clip-path="url(#clipPath2)" fill="none" x1="778" x2="774" y1="60" y2="60"/>
<text font-size="11" x="15" y="65" clip-path="url(#clipPath2)" stroke="none" xml:space="preserve">40</text>
<text font-size="11" x="781" y="65" clip-path="url(#clipPath2)" stroke="none" xml:space="preserve">40</text>
<line clip-path="url(#clipPath2)" fill="none" x1="28" x2="30" y1="35" y2="35"/>
<line clip-path="url(#clipPath2)" fill="none" x1="776" x2="774" y1="35" y2="35"/>
</g>
</g>
</svg>
