<?xml version="1.0" encoding="UTF-8"?><svg xmlns="http://www.w3.org/2000/svg" xmlns:xlink="http://www.w3.org/1999/xlink" stroke-dasharray="none" shape-rendering="auto" font-family="'Dialog'" width="974" text-rendering="auto" fill-opacity="1" contentScriptType="text/ecmascript" color-interpolation="auto" color-rendering="auto" preserveAspectRatio="xMidYMid meet" font-size="12" fill="black" stroke="black" image-rendering="auto" stroke-miterlimit="10" zoomAndPan="magnify" version="1.0" stroke-linecap="square" stroke-linejoin="miter" contentStyleType="text/css" font-style="normal" height="262" stroke-width="1" stroke-dashoffset="0" font-weight="normal" stroke-opacity="1">
<!--Generated by the Batik Graphics2D SVG Generator-->
<defs id="genericDefs"/>
<g>
<defs id="defs1">
<clipPath clipPathUnits="userSpaceOnUse" id="clipPath1">
<path d="M31 22 L943 22 L943 240 L31 240 L31 22 Z"/>
</clipPath>
<clipPath clipPathUnits="userSpaceOnUse" id="clipPath2">
<path d="M-1 -1 L975 -1 L975 263 L-1 263 L-1 -1 Z"/>
</clipPath>
</defs>
<g font-size="15" fill="white" text-rendering="geometricPrecision" font-family="'Ubuntu'" stroke-linejoin="round" stroke="white" stroke-width="0" stroke-miterlimit="0">
<rect x="32" y="23" clip-path="url(#clipPath1)" width="910" height="216" stroke="none"/>
</g>
<g font-size="15" stroke-linecap="butt" fill="rgb(204,204,204)" text-rendering="geometricPrecision" font-family="'Ubuntu'" stroke-dasharray="3,3" stroke="rgb(204,204,204)">
<line clip-path="url(#clipPath1)" fill="none" x1="32" x2="32" y1="23" y2="239"/>
<line clip-path="url(#clipPath1)" fill="none" x1="97" x2="97" y1="23" y2="239"/>
<line clip-path="url(#clipPath1)" fill="none" x1="162" x2="162" y1="23" y2="239"/>
<line clip-path="url(#clipPath1)" fill="none" x1="227" x2="227" y1="23" y2="239"/>
<line clip-path="url(#clipPath1)" fill="none" x1="293" x2="293" y1="23" y2="239"/>
<line clip-path="url(#clipPath1)" fill="none" x1="358" x2="358" y1="23" y2="239"/>
<line clip-path="url(#clipPath1)" fill="none" x1="423" x2="423" y1="23" y2="239"/>
<line clip-path="url(#clipPath1)" fill="none" x1="489" x2="489" y1="23" y2="239"/>
<line clip-path="url(#clipPath1)" fill="none" x1="554" x2="554" y1="23" y2="239"/>
<line clip-path="url(#clipPath1)" fill="none" x1="619" x2="619" y1="23" y2="239"/>
<line clip-path="url(#clipPath1)" fill="none" x1="685" x2="685" y1="23" y2="239"/>
<line clip-path="url(#clipPath1)" fill="none" x1="750" x2="750" y1="23" y2="239"/>
<line clip-path="url(#clipPath1)" fill="none" x1="815" x2="815" y1="23" y2="239"/>
<line clip-path="url(#clipPath1)" fill="none" x1="880" x2="880" y1="23" y2="239"/>
<line clip-path="url(#clipPath1)" fill="none" x1="32" x2="942" y1="239" y2="239"/>
<line clip-path="url(#clipPath1)" fill="none" x1="32" x2="942" y1="133" y2="133"/>
<line clip-path="url(#clipPath1)" fill="none" x1="32" x2="942" y1="28" y2="28"/>
<rect x="552" y="237" clip-path="url(#clipPath1)" fill="rgb(0,0,139)" width="5" height="5" stroke="none"/>
<line clip-path="url(#clipPath1)" fill="none" x1="554" x2="555" y1="239" y2="232" stroke-dasharray="none" stroke="rgb(0,0,139)"/>
<rect x="553" y="230" clip-path="url(#clipPath1)" fill="rgb(0,0,139)" width="5" stroke-dasharray="none" height="5" stroke="none"/>
</g>
<g font-size="15" stroke-linecap="butt" fill="rgb(0,0,139)" text-rendering="geometricPrecision" font-family="'Ubuntu'" shape-rendering="crispEdges" stroke="rgb(0,0,139)">
<line clip-path="url(#clipPath1)" fill="none" x1="555" x2="555" y1="232" y2="230"/>
<rect x="553" y="228" clip-path="url(#clipPath1)" width="5" shape-rendering="auto" height="5" stroke="none"/>
<line clip-path="url(#clipPath1)" fill="none" x1="555" x2="555" y1="230" y2="224"/>
<rect x="553" y="222" clip-path="url(#clipPath1)" width="5" shape-rendering="auto" height="5" stroke="none"/>
<line clip-path="url(#clipPath1)" fill="none" x1="555" x2="555" y1="224" y2="220"/>
<rect x="553" y="218" clip-path="url(#clipPath1)" width="5" shape-rendering="auto" height="5" stroke="none"/>
<line clip-path="url(#clipPath1)" fill="none" x1="555" x2="555" y1="220" y2="217"/>
<rect x="553" y="215" clip-path="url(#clipPath1)" width="5" shape-rendering="auto" height="5" stroke="none"/>
<line clip-path="url(#clipPath1)" fill="none" x1="555" x2="555" y1="217" y2="215"/>
<rect x="553" y="213" clip-path="url(#clipPath1)" width="5" shape-rendering="auto" height="5" stroke="none"/>
<line clip-path="url(#clipPath1)" fill="none" x1="555" x2="555" y1="215" y2="211"/>
<rect x="553" y="209" clip-path="url(#clipPath1)" width="5" shape-rendering="auto" height="5" stroke="none"/>
<line clip-path="url(#clipPath1)" fill="none" x1="555" x2="555" y1="211" y2="209"/>
<rect x="553" y="207" clip-path="url(#clipPath1)" width="5" shape-rendering="auto" height="5" stroke="none"/>
<line clip-path="url(#clipPath1)" fill="none" x1="555" x2="555" y1="209" y2="207"/>
<rect x="553" y="205" clip-path="url(#clipPath1)" width="5" shape-rendering="auto" height="5" stroke="none"/>
<line clip-path="url(#clipPath1)" fill="none" x1="555" x2="555" y1="207" y2="205"/>
<rect x="553" y="203" clip-path="url(#clipPath1)" width="5" shape-rendering="auto" height="5" stroke="none"/>
<line clip-path="url(#clipPath1)" fill="none" x1="555" x2="555" y1="205" y2="201"/>
<rect x="553" y="199" clip-path="url(#clipPath1)" width="5" shape-rendering="auto" height="5" stroke="none"/>
<line clip-path="url(#clipPath1)" fill="none" x1="555" x2="555" y1="201" y2="199"/>
<rect x="553" y="197" clip-path="url(#clipPath1)" width="5" shape-rendering="auto" height="5" stroke="none"/>
<line clip-path="url(#clipPath1)" fill="none" x1="555" x2="556" y1="199" y2="196" shape-rendering="auto"/>
<rect x="554" y="194" clip-path="url(#clipPath1)" width="5" shape-rendering="auto" height="5" stroke="none"/>
<line clip-path="url(#clipPath1)" fill="none" x1="556" x2="623" y1="196" y2="196" shape-rendering="auto"/>
<rect x="621" y="194" clip-path="url(#clipPath1)" width="5" shape-rendering="auto" height="5" stroke="none"/>
<line clip-path="url(#clipPath1)" fill="none" x1="623" x2="623" y1="196" y2="194"/>
<rect x="621" y="192" clip-path="url(#clipPath1)" width="5" shape-rendering="auto" height="5" stroke="none"/>
<line clip-path="url(#clipPath1)" fill="none" x1="623" x2="623" y1="194" y2="192"/>
<rect x="621" y="190" clip-path="url(#clipPath1)" width="5" shape-rendering="auto" height="5" stroke="none"/>
<line clip-path="url(#clipPath1)" fill="none" x1="623" x2="623" y1="192" y2="190"/>
<rect x="621" y="188" clip-path="url(#clipPath1)" width="5" shape-rendering="auto" height="5" stroke="none"/>
<line clip-path="url(#clipPath1)" fill="none" x1="623" x2="623" y1="190" y2="188"/>
<rect x="621" y="186" clip-path="url(#clipPath1)" width="5" shape-rendering="auto" height="5" stroke="none"/>
<line clip-path="url(#clipPath1)" fill="none" x1="623" x2="623" y1="188" y2="186"/>
<rect x="621" y="184" clip-path="url(#clipPath1)" width="5" shape-rendering="auto" height="5" stroke="none"/>
<line clip-path="url(#clipPath1)" fill="none" x1="623" x2="624" y1="186" y2="184" shape-rendering="auto"/>
<rect x="622" y="182" clip-path="url(#clipPath1)" width="5" shape-rendering="auto" height="5" stroke="none"/>
<line clip-path="url(#clipPath1)" fill="none" x1="624" x2="624" y1="184" y2="182"/>
<rect x="622" y="180" clip-path="url(#clipPath1)" width="5" shape-rendering="auto" height="5" stroke="none"/>
<line clip-path="url(#clipPath1)" fill="none" x1="624" x2="624" y1="182" y2="180"/>
<rect x="622" y="178" clip-path="url(#clipPath1)" width="5" shape-rendering="auto" height="5" stroke="none"/>
<line clip-path="url(#clipPath1)" fill="none" x1="624" x2="624" y1="180" y2="177"/>
<rect x="622" y="175" clip-path="url(#clipPath1)" width="5" shape-rendering="auto" height="5" stroke="none"/>
<line clip-path="url(#clipPath1)" fill="none" x1="624" x2="693" y1="177" y2="175" shape-rendering="auto"/>
<rect x="691" y="173" clip-path="url(#clipPath1)" width="5" shape-rendering="auto" height="5" stroke="none"/>
<line clip-path="url(#clipPath1)" fill="none" x1="693" x2="693" y1="175" y2="173"/>
<rect x="691" y="171" clip-path="url(#clipPath1)" width="5" shape-rendering="auto" height="5" stroke="none"/>
<line clip-path="url(#clipPath1)" fill="none" x1="693" x2="693" y1="173" y2="171"/>
<rect x="691" y="169" clip-path="url(#clipPath1)" width="5" shape-rendering="auto" height="5" stroke="none"/>
<line clip-path="url(#clipPath1)" fill="none" x1="693" x2="693" y1="171" y2="169"/>
<rect x="691" y="167" clip-path="url(#clipPath1)" width="5" shape-rendering="auto" height="5" stroke="none"/>
<line clip-path="url(#clipPath1)" fill="none" x1="693" x2="693" y1="169" y2="161"/>
<rect x="691" y="159" clip-path="url(#clipPath1)" width="5" shape-rendering="auto" height="5" stroke="none"/>
<line clip-path="url(#clipPath1)" fill="none" x1="693" x2="694" y1="161" y2="159" shape-rendering="auto"/>
<rect x="692" y="157" clip-path="url(#clipPath1)" width="5" shape-rendering="auto" height="5" stroke="none"/>
<line clip-path="url(#clipPath1)" fill="none" x1="694" x2="694" y1="159" y2="156"/>
<rect x="692" y="154" clip-path="url(#clipPath1)" width="5" shape-rendering="auto" height="5" stroke="none"/>
<line clip-path="url(#clipPath1)" fill="none" x1="694" x2="694" y1="156" y2="154"/>
<rect x="692" y="152" clip-path="url(#clipPath1)" width="5" shape-rendering="auto" height="5" stroke="none"/>
<line clip-path="url(#clipPath1)" fill="none" x1="694" x2="694" y1="154" y2="152"/>
<rect x="692" y="150" clip-path="url(#clipPath1)" width="5" shape-rendering="auto" height="5" stroke="none"/>
<line clip-path="url(#clipPath1)" fill="none" x1="694" x2="694" y1="152" y2="150"/>
<rect x="692" y="148" clip-path="url(#clipPath1)" width="5" shape-rendering="auto" height="5" stroke="none"/>
<line clip-path="url(#clipPath1)" fill="none" x1="694" x2="694" y1="150" y2="148"/>
<rect x="692" y="146" clip-path="url(#clipPath1)" width="5" shape-rendering="auto" height="5" stroke="none"/>
<line clip-path="url(#clipPath1)" fill="none" x1="694" x2="694" y1="148" y2="146"/>
<rect x="692" y="144" clip-path="url(#clipPath1)" width="5" shape-rendering="auto" height="5" stroke="none"/>
<line clip-path="url(#clipPath1)" fill="none" x1="694" x2="694" y1="146" y2="144"/>
<rect x="692" y="142" clip-path="url(#clipPath1)" width="5" shape-rendering="auto" height="5" stroke="none"/>
<line clip-path="url(#clipPath1)" fill="none" x1="694" x2="694" y1="144" y2="135"/>
<rect x="692" y="133" clip-path="url(#clipPath1)" width="5" shape-rendering="auto" height="5" stroke="none"/>
<line clip-path="url(#clipPath1)" fill="none" x1="694" x2="694" y1="135" y2="133"/>
<rect x="692" y="131" clip-path="url(#clipPath1)" width="5" shape-rendering="auto" height="5" stroke="none"/>
<line clip-path="url(#clipPath1)" fill="none" x1="694" x2="694" y1="133" y2="131"/>
<rect x="692" y="129" clip-path="url(#clipPath1)" width="5" shape-rendering="auto" height="5" stroke="none"/>
<line clip-path="url(#clipPath1)" fill="none" x1="694" x2="694" y1="131" y2="129"/>
<rect x="692" y="127" clip-path="url(#clipPath1)" width="5" shape-rendering="auto" height="5" stroke="none"/>
<line clip-path="url(#clipPath1)" fill="none" x1="694" x2="694" y1="129" y2="127"/>
<rect x="692" y="125" clip-path="url(#clipPath1)" width="5" shape-rendering="auto" height="5" stroke="none"/>
<line clip-path="url(#clipPath1)" fill="none" x1="694" x2="694" y1="127" y2="125"/>
<rect x="692" y="123" clip-path="url(#clipPath1)" width="5" shape-rendering="auto" height="5" stroke="none"/>
<line clip-path="url(#clipPath1)" fill="none" x1="694" x2="695" y1="125" y2="123" shape-rendering="auto"/>
<rect x="693" y="121" clip-path="url(#clipPath1)" width="5" shape-rendering="auto" height="5" stroke="none"/>
<line clip-path="url(#clipPath1)" fill="none" x1="695" x2="756" y1="123" y2="121" shape-rendering="auto"/>
<rect x="754" y="119" clip-path="url(#clipPath1)" width="5" shape-rendering="auto" height="5" stroke="none"/>
<line clip-path="url(#clipPath1)" fill="none" x1="756" x2="756" y1="121" y2="119"/>
<rect x="754" y="117" clip-path="url(#clipPath1)" width="5" shape-rendering="auto" height="5" stroke="none"/>
<line clip-path="url(#clipPath1)" fill="none" x1="756" x2="756" y1="119" y2="116"/>
<rect x="754" y="114" clip-path="url(#clipPath1)" width="5" shape-rendering="auto" height="5" stroke="none"/>
<line clip-path="url(#clipPath1)" fill="none" x1="756" x2="756" y1="116" y2="108"/>
<rect x="754" y="106" clip-path="url(#clipPath1)" width="5" shape-rendering="auto" height="5" stroke="none"/>
<line clip-path="url(#clipPath1)" fill="none" x1="756" x2="757" y1="108" y2="106" shape-rendering="auto"/>
<rect x="755" y="104" clip-path="url(#clipPath1)" width="5" shape-rendering="auto" height="5" stroke="none"/>
<line clip-path="url(#clipPath1)" fill="none" x1="757" x2="757" y1="106" y2="104"/>
<rect x="755" y="102" clip-path="url(#clipPath1)" width="5" shape-rendering="auto" height="5" stroke="none"/>
<line clip-path="url(#clipPath1)" fill="none" x1="757" x2="757" y1="104" y2="102"/>
<rect x="755" y="100" clip-path="url(#clipPath1)" width="5" shape-rendering="auto" height="5" stroke="none"/>
<line clip-path="url(#clipPath1)" fill="none" x1="757" x2="757" y1="102" y2="100"/>
<rect x="755" y="98" clip-path="url(#clipPath1)" width="5" shape-rendering="auto" height="5" stroke="none"/>
<line clip-path="url(#clipPath1)" fill="none" x1="757" x2="929" y1="100" y2="98" shape-rendering="auto"/>
<rect x="927" y="96" clip-path="url(#clipPath1)" width="5" shape-rendering="auto" height="5" stroke="none"/>
<line clip-path="url(#clipPath1)" fill="none" x1="929" x2="930" y1="98" y2="95" shape-rendering="auto"/>
<rect x="928" y="93" clip-path="url(#clipPath1)" width="5" shape-rendering="auto" height="5" stroke="none"/>
<line clip-path="url(#clipPath1)" fill="none" x1="930" x2="930" y1="95" y2="93"/>
<rect x="928" y="91" clip-path="url(#clipPath1)" width="5" shape-rendering="auto" height="5" stroke="none"/>
<line clip-path="url(#clipPath1)" fill="none" x1="930" x2="930" y1="93" y2="91"/>
<rect x="928" y="89" clip-path="url(#clipPath1)" width="5" shape-rendering="auto" height="5" stroke="none"/>
<line clip-path="url(#clipPath1)" fill="none" x1="930" x2="930" y1="91" y2="81"/>
<rect x="928" y="79" clip-path="url(#clipPath1)" width="5" shape-rendering="auto" height="5" stroke="none"/>
<line clip-path="url(#clipPath1)" fill="none" x1="930" x2="930" y1="81" y2="79"/>
<rect x="928" y="77" clip-path="url(#clipPath1)" width="5" shape-rendering="auto" height="5" stroke="none"/>
<line clip-path="url(#clipPath1)" fill="none" x1="930" x2="930" y1="79" y2="77"/>
<rect x="928" y="75" clip-path="url(#clipPath1)" width="5" shape-rendering="auto" height="5" stroke="none"/>
<rect x="32" y="23" clip-path="url(#clipPath2)" fill="none" width="910" shape-rendering="auto" height="216" stroke="black"/>
</g>
<g text-rendering="geometricPrecision" font-size="13" stroke-linecap="butt">
<line clip-path="url(#clipPath2)" fill="none" x1="32" x2="942" y1="21" y2="21"/>
<line clip-path="url(#clipPath2)" fill="none" x1="32" x2="942" y1="241" y2="241"/>
<text xml:space="preserve" x="487" y="259" clip-path="url(#clipPath2)" stroke="none"/>
<line clip-path="url(#clipPath2)" fill="none" x1="32" x2="32" y1="17" y2="21"/>
<line clip-path="url(#clipPath2)" fill="none" x1="32" x2="32" y1="245" y2="241"/>
<text font-size="11" x="31" y="14" clip-path="url(#clipPath2)" stroke="none" xml:space="preserve">0</text>
<text font-size="11" x="31" y="257" clip-path="url(#clipPath2)" stroke="none" xml:space="preserve">0</text>
<line clip-path="url(#clipPath2)" fill="none" x1="64" x2="64" y1="19" y2="21"/>
<line clip-path="url(#clipPath2)" fill="none" x1="64" x2="64" y1="243" y2="241"/>
<line clip-path="url(#clipPath2)" fill="none" x1="97" x2="97" y1="17" y2="21"/>
<line clip-path="url(#clipPath2)" fill="none" x1="97" x2="97" y1="245" y2="241"/>
<text font-size="11" x="91" y="14" clip-path="url(#clipPath2)" stroke="none" xml:space="preserve">200</text>
<text font-size="11" x="91" y="257" clip-path="url(#clipPath2)" stroke="none" xml:space="preserve">200</text>
<line clip-path="url(#clipPath2)" fill="none" x1="129" x2="129" y1="19" y2="21"/>
<line clip-path="url(#clipPath2)" fill="none" x1="129" x2="129" y1="243" y2="241"/>
<line clip-path="url(#clipPath2)" fill="none" x1="162" x2="162" y1="17" y2="21"/>
<line clip-path="url(#clipPath2)" fill="none" x1="162" x2="162" y1="245" y2="241"/>
<text font-size="11" x="156" y="14" clip-path="url(#clipPath2)" stroke="none" xml:space="preserve">400</text>
<text font-size="11" x="156" y="257" clip-path="url(#clipPath2)" stroke="none" xml:space="preserve">400</text>
<line clip-path="url(#clipPath2)" fill="none" x1="195" x2="195" y1="19" y2="21"/>
<line clip-path="url(#clipPath2)" fill="none" x1="195" x2="195" y1="243" y2="241"/>
<line clip-path="url(#clipPath2)" fill="none" x1="227" x2="227" y1="17" y2="21"/>
<line clip-path="url(#clipPath2)" fill="none" x1="227" x2="227" y1="245" y2="241"/>
<text font-size="11" x="221" y="14" clip-path="url(#clipPath2)" stroke="none" xml:space="preserve">600</text>
<text font-size="11" x="221" y="257" clip-path="url(#clipPath2)" stroke="none" xml:space="preserve">600</text>
<line clip-path="url(#clipPath2)" fill="none" x1="260" x2="260" y1="19" y2="21"/>
<line clip-path="url(#clipPath2)" fill="none" x1="260" x2="260" y1="243" y2="241"/>
<line clip-path="url(#clipPath2)" fill="none" x1="293" x2="293" y1="17" y2="21"/>
<line clip-path="url(#clipPath2)" fill="none" x1="293" x2="293" y1="245" y2="241"/>
<text font-size="11" x="287" y="14" clip-path="url(#clipPath2)" stroke="none" xml:space="preserve">800</text>
<text font-size="11" x="287" y="257" clip-path="url(#clipPath2)" stroke="none" xml:space="preserve">800</text>
<line clip-path="url(#clipPath2)" fill="none" x1="325" x2="325" y1="19" y2="21"/>
<line clip-path="url(#clipPath2)" fill="none" x1="325" x2="325" y1="243" y2="241"/>
<line clip-path="url(#clipPath2)" fill="none" x1="358" x2="358" y1="17" y2="21"/>
<line clip-path="url(#clipPath2)" fill="none" x1="358" x2="358" y1="245" y2="241"/>
<text font-size="11" x="349" y="14" clip-path="url(#clipPath2)" stroke="none" xml:space="preserve">1000</text>
<text font-size="11" x="349" y="257" clip-path="url(#clipPath2)" stroke="none" xml:space="preserve">1000</text>
<line clip-path="url(#clipPath2)" fill="none" x1="391" x2="391" y1="19" y2="21"/>
<line clip-path="url(#clipPath2)" fill="none" x1="391" x2="391" y1="243" y2="241"/>
<line clip-path="url(#clipPath2)" fill="none" x1="423" x2="423" y1="17" y2="21"/>
<line clip-path="url(#clipPath2)" fill="none" x1="423" x2="423" y1="245" y2="241"/>
<text font-size="11" x="414" y="14" clip-path="url(#clipPath2)" stroke="none" xml:space="preserve">1200</text>
<text font-size="11" x="414" y="257" clip-path="url(#clipPath2)" stroke="none" xml:space="preserve">1200</text>
<line clip-path="url(#clipPath2)" fill="none" x1="456" x2="456" y1="19" y2="21"/>
<line clip-path="url(#clipPath2)" fill="none" x1="456" x2="456" y1="243" y2="241"/>
<line clip-path="url(#clipPath2)" fill="none" x1="489" x2="489" y1="17" y2="21"/>
<line clip-path="url(#clipPath2)" fill="none" x1="489" x2="489" y1="245" y2="241"/>
<text font-size="11" x="480" y="14" clip-path="url(#clipPath2)" stroke="none" xml:space="preserve">1400</text>
<text font-size="11" x="480" y="257" clip-path="url(#clipPath2)" stroke="none" xml:space="preserve">1400</text>
<line clip-path="url(#clipPath2)" fill="none" x1="521" x2="521" y1="19" y2="21"/>
<line clip-path="url(#clipPath2)" fill="none" x1="521" x2="521" y1="243" y2="241"/>
<line clip-path="url(#clipPath2)" fill="none" x1="554" x2="554" y1="17" y2="21"/>
<line clip-path="url(#clipPath2)" fill="none" x1="554" x2="554" y1="245" y2="241"/>
<text font-size="11" x="545" y="14" clip-path="url(#clipPath2)" stroke="none" xml:space="preserve">1600</text>
<text font-size="11" x="545" y="257" clip-path="url(#clipPath2)" stroke="none" xml:space="preserve">1600</text>
<line clip-path="url(#clipPath2)" fill="none" x1="587" x2="587" y1="19" y2="21"/>
<line clip-path="url(#clipPath2)" fill="none" x1="587" x2="587" y1="243" y2="241"/>
<line clip-path="url(#clipPath2)" fill="none" x1="619" x2="619" y1="17" y2="21"/>
<line clip-path="url(#clipPath2)" fill="none" x1="619" x2="619" y1="245" y2="241"/>
<text font-size="11" x="610" y="14" clip-path="url(#clipPath2)" stroke="none" xml:space="preserve">1800</text>
<text font-size="11" x="610" y="257" clip-path="url(#clipPath2)" stroke="none" xml:space="preserve">1800</text>
<line clip-path="url(#clipPath2)" fill="none" x1="652" x2="652" y1="19" y2="21"/>
<line clip-path="url(#clipPath2)" fill="none" x1="652" x2="652" y1="243" y2="241"/>
<line clip-path="url(#clipPath2)" fill="none" x1="685" x2="685" y1="17" y2="21"/>
<line clip-path="url(#clipPath2)" fill="none" x1="685" x2="685" y1="245" y2="241"/>
<text font-size="11" x="676" y="14" clip-path="url(#clipPath2)" stroke="none" xml:space="preserve">2000</text>
<text font-size="11" x="676" y="257" clip-path="url(#clipPath2)" stroke="none" xml:space="preserve">2000</text>
<line clip-path="url(#clipPath2)" fill="none" x1="717" x2="717" y1="19" y2="21"/>
<line clip-path="url(#clipPath2)" fill="none" x1="717" x2="717" y1="243" y2="241"/>
<line clip-path="url(#clipPath2)" fill="none" x1="750" x2="750" y1="17" y2="21"/>
<line clip-path="url(#clipPath2)" fill="none" x1="750" x2="750" y1="245" y2="241"/>
<text font-size="11" x="741" y="14" clip-path="url(#clipPath2)" stroke="none" xml:space="preserve">2200</text>
<text font-size="11" x="741" y="257" clip-path="url(#clipPath2)" stroke="none" xml:space="preserve">2200</text>
<line clip-path="url(#clipPath2)" fill="none" x1="782" x2="782" y1="19" y2="21"/>
<line clip-path="url(#clipPath2)" fill="none" x1="782" x2="782" y1="243" y2="241"/>
<line clip-path="url(#clipPath2)" fill="none" x1="815" x2="815" y1="17" y2="21"/>
<line clip-path="url(#clipPath2)" fill="none" x1="815" x2="815" y1="245" y2="241"/>
<text font-size="11" x="806" y="14" clip-path="url(#clipPath2)" stroke="none" xml:space="preserve">2400</text>
<text font-size="11" x="806" y="257" clip-path="url(#clipPath2)" stroke="none" xml:space="preserve">2400</text>
<line clip-path="url(#clipPath2)" fill="none" x1="848" x2="848" y1="19" y2="21"/>
<line clip-path="url(#clipPath2)" fill="none" x1="848" x2="848" y1="243" y2="241"/>
<line clip-path="url(#clipPath2)" fill="none" x1="880" x2="880" y1="17" y2="21"/>
<line clip-path="url(#clipPath2)" fill="none" x1="880" x2="880" y1="245" y2="241"/>
<text font-size="11" x="871" y="14" clip-path="url(#clipPath2)" stroke="none" xml:space="preserve">2600</text>
<text font-size="11" x="871" y="257" clip-path="url(#clipPath2)" stroke="none" xml:space="preserve">2600</text>
<line clip-path="url(#clipPath2)" fill="none" x1="913" x2="913" y1="19" y2="21"/>
<line clip-path="url(#clipPath2)" fill="none" x1="913" x2="913" y1="243" y2="241"/>
<line clip-path="url(#clipPath2)" fill="none" x1="30" x2="30" y1="23" y2="239"/>
<line clip-path="url(#clipPath2)" fill="none" x1="944" x2="944" y1="23" y2="239"/>
<line clip-path="url(#clipPath2)" fill="none" x1="26" x2="30" y1="239" y2="239"/>
<line clip-path="url(#clipPath2)" fill="none" x1="948" x2="944" y1="239" y2="239"/>
<text font-size="11" x="20" y="244" clip-path="url(#clipPath2)" stroke="none" xml:space="preserve">0</text>
<text font-size="11" x="951" y="244" clip-path="url(#clipPath2)" stroke="none" xml:space="preserve">0</text>
<line clip-path="url(#clipPath2)" fill="none" x1="28" x2="30" y1="217" y2="217"/>
<line clip-path="url(#clipPath2)" fill="none" x1="946" x2="944" y1="217" y2="217"/>
<line clip-path="url(#clipPath2)" fill="none" x1="28" x2="30" y1="196" y2="196"/>
<line clip-path="url(#clipPath2)" fill="none" x1="946" x2="944" y1="196" y2="196"/>
<line clip-path="url(#clipPath2)" fill="none" x1="28" x2="30" y1="175" y2="175"/>
<line clip-path="url(#clipPath2)" fill="none" x1="946" x2="944" y1="175" y2="175"/>
<line clip-path="url(#clipPath2)" fill="none" x1="28" x2="30" y1="154" y2="154"/>
<line clip-path="url(#clipPath2)" fill="none" x1="946" x2="944" y1="154" y2="154"/>
<line clip-path="url(#clipPath2)" fill="none" x1="26" x2="30" y1="133" y2="133"/>
<line clip-path="url(#clipPath2)" fill="none" x1="948" x2="944" y1="133" y2="133"/>
<text font-size="11" x="15" y="138" clip-path="url(#clipPath2)" stroke="none" xml:space="preserve">50</text>
<text font-size="11" x="951" y="138" clip-path="url(#clipPath2)" stroke="none" xml:space="preserve">50</text>
<line clip-path="url(#clipPath2)" fill="none" x1="28" x2="30" y1="112" y2="112"/>
<line clip-path="url(#clipPath2)" fill="none" x1="946" x2="944" y1="112" y2="112"/>
<line clip-path="url(#clipPath2)" fill="none" x1="28" x2="30" y1="91" y2="91"/>
<line clip-path="url(#clipPath2)" fill="none" x1="946" x2="944" y1="91" y2="91"/>
<line clip-path="url(#clipPath2)" fill="none" x1="28" x2="30" y1="70" y2="70"/>
<line clip-path="url(#clipPath2)" fill="none" x1="946" x2="944" y1="70" y2="70"/>
<line clip-path="url(#clipPath2)" fill="none" x1="28" x2="30" y1="49" y2="49"/>
<line clip-path="url(#clipPath2)" fill="none" x1="946" x2="944" y1="49" y2="49"/>
<line clip-path="url(#clipPath2)" fill="none" x1="26" x2="30" y1="28" y2="28"/>
<line clip-path="url(#clipPath2)" fill="none" x1="948" x2="944" y1="28" y2="28"/>
<text font-size="11" x="10" y="33" clip-path="url(#clipPath2)" stroke="none" xml:space="preserve">100</text>
<text font-size="11" x="951" y="33" clip-path="url(#clipPath2)" stroke="none" xml:space="preserve">100</text>
</g>
</g>
</svg>
