<?xml version="1.0" encoding="UTF-8"?><svg xmlns="http://www.w3.org/2000/svg" xmlns:xlink="http://www.w3.org/1999/xlink" stroke-dasharray="none" shape-rendering="auto" font-family="'Dialog'" width="804" text-rendering="auto" fill-opacity="1" contentScriptType="text/ecmascript" color-interpolation="auto" color-rendering="auto" preserveAspectRatio="xMidYMid meet" font-size="12" fill="black" stroke="black" image-rendering="auto" stroke-miterlimit="10" zoomAndPan="magnify" version="1.0" stroke-linecap="square" stroke-linejoin="miter" contentStyleType="text/css" font-style="normal" height="187" stroke-width="1" stroke-dashoffset="0" font-weight="normal" stroke-opacity="1">
<!--Generated by the Batik Graphics2D SVG Generator-->
<defs id="genericDefs"/>
<g>
<defs id="defs1">
<clipPath clipPathUnits="userSpaceOnUse" id="clipPath1">
<path d="M31 22 L773 22 L773 165 L31 165 L31 22 Z"/>
</clipPath>
<clipPath clipPathUnits="userSpaceOnUse" id="clipPath2">
<path d="M-1 -1 L805 -1 L805 188 L-1 188 L-1 -1 Z"/>
</clipPath>
</defs>
<g font-size="15" fill="white" text-rendering="geometricPrecision" font-family="'Ubuntu'" stroke-linejoin="round" stroke="white" stroke-width="0" stroke-miterlimit="0">
<rect x="32" y="23" clip-path="url(#clipPath1)" width="740" height="141" stroke="none"/>
</g>
<g font-size="15" stroke-linecap="butt" fill="rgb(204,204,204)" text-rendering="geometricPrecision" font-family="'Ubuntu'" stroke-dasharray="3,3" stroke="rgb(204,204,204)">
<line clip-path="url(#clipPath1)" fill="none" x1="32" x2="32" y1="23" y2="164"/>
<line clip-path="url(#clipPath1)" fill="none" x1="85" x2="85" y1="23" y2="164"/>
<line clip-path="url(#clipPath1)" fill="none" x1="138" x2="138" y1="23" y2="164"/>
<line clip-path="url(#clipPath1)" fill="none" x1="191" x2="191" y1="23" y2="164"/>
<line clip-path="url(#clipPath1)" fill="none" x1="244" x2="244" y1="23" y2="164"/>
<line clip-path="url(#clipPath1)" fill="none" x1="297" x2="297" y1="23" y2="164"/>
<line clip-path="url(#clipPath1)" fill="none" x1="350" x2="350" y1="23" y2="164"/>
<line clip-path="url(#clipPath1)" fill="none" x1="403" x2="403" y1="23" y2="164"/>
<line clip-path="url(#clipPath1)" fill="none" x1="457" x2="457" y1="23" y2="164"/>
<line clip-path="url(#clipPath1)" fill="none" x1="510" x2="510" y1="23" y2="164"/>
<line clip-path="url(#clipPath1)" fill="none" x1="563" x2="563" y1="23" y2="164"/>
<line clip-path="url(#clipPath1)" fill="none" x1="616" x2="616" y1="23" y2="164"/>
<line clip-path="url(#clipPath1)" fill="none" x1="669" x2="669" y1="23" y2="164"/>
<line clip-path="url(#clipPath1)" fill="none" x1="722" x2="722" y1="23" y2="164"/>
<line clip-path="url(#clipPath1)" fill="none" x1="32" x2="772" y1="164" y2="164"/>
<line clip-path="url(#clipPath1)" fill="none" x1="32" x2="772" y1="108" y2="108"/>
<line clip-path="url(#clipPath1)" fill="none" x1="32" x2="772" y1="52" y2="52"/>
<rect x="455" y="162" clip-path="url(#clipPath1)" fill="rgb(0,0,139)" width="5" height="5" stroke="none"/>
</g>
<g font-size="15" stroke-linecap="butt" fill="rgb(0,0,139)" text-rendering="geometricPrecision" font-family="'Ubuntu'" shape-rendering="crispEdges" stroke="rgb(0,0,139)">
<line clip-path="url(#clipPath1)" fill="none" x1="457" x2="457" y1="164" y2="155"/>
<rect x="455" y="153" clip-path="url(#clipPath1)" width="5" shape-rendering="auto" height="5" stroke="none"/>
<line clip-path="url(#clipPath1)" fill="none" x1="457" x2="457" y1="155" y2="152"/>
<rect x="455" y="150" clip-path="url(#clipPath1)" width="5" shape-rendering="auto" height="5" stroke="none"/>
<line clip-path="url(#clipPath1)" fill="none" x1="457" x2="457" y1="152" y2="144"/>
<rect x="455" y="142" clip-path="url(#clipPath1)" width="5" shape-rendering="auto" height="5" stroke="none"/>
<line clip-path="url(#clipPath1)" fill="none" x1="457" x2="457" y1="144" y2="141"/>
<rect x="455" y="139" clip-path="url(#clipPath1)" width="5" shape-rendering="auto" height="5" stroke="none"/>
<line clip-path="url(#clipPath1)" fill="none" x1="457" x2="457" y1="141" y2="138"/>
<rect x="455" y="136" clip-path="url(#clipPath1)" width="5" shape-rendering="auto" height="5" stroke="none"/>
<line clip-path="url(#clipPath1)" fill="none" x1="457" x2="457" y1="138" y2="136"/>
<rect x="455" y="134" clip-path="url(#clipPath1)" width="5" shape-rendering="auto" height="5" stroke="none"/>
<line clip-path="url(#clipPath1)" fill="none" x1="457" x2="458" y1="136" y2="133" shape-rendering="auto"/>
<rect x="456" y="131" clip-path="url(#clipPath1)" width="5" shape-rendering="auto" height="5" stroke="none"/>
<line clip-path="url(#clipPath1)" fill="none" x1="458" x2="458" y1="133" y2="130"/>
<rect x="456" y="128" clip-path="url(#clipPath1)" width="5" shape-rendering="auto" height="5" stroke="none"/>
<line clip-path="url(#clipPath1)" fill="none" x1="458" x2="458" y1="130" y2="127"/>
<rect x="456" y="125" clip-path="url(#clipPath1)" width="5" shape-rendering="auto" height="5" stroke="none"/>
<line clip-path="url(#clipPath1)" fill="none" x1="458" x2="458" y1="127" y2="125"/>
<rect x="456" y="123" clip-path="url(#clipPath1)" width="5" shape-rendering="auto" height="5" stroke="none"/>
<line clip-path="url(#clipPath1)" fill="none" x1="458" x2="513" y1="125" y2="125" shape-rendering="auto"/>
<rect x="511" y="123" clip-path="url(#clipPath1)" width="5" shape-rendering="auto" height="5" stroke="none"/>
<line clip-path="url(#clipPath1)" fill="none" x1="513" x2="513" y1="125" y2="122"/>
<rect x="511" y="120" clip-path="url(#clipPath1)" width="5" shape-rendering="auto" height="5" stroke="none"/>
<line clip-path="url(#clipPath1)" fill="none" x1="513" x2="513" y1="122" y2="119"/>
<rect x="511" y="117" clip-path="url(#clipPath1)" width="5" shape-rendering="auto" height="5" stroke="none"/>
<line clip-path="url(#clipPath1)" fill="none" x1="513" x2="513" y1="119" y2="116"/>
<rect x="511" y="114" clip-path="url(#clipPath1)" width="5" shape-rendering="auto" height="5" stroke="none"/>
<line clip-path="url(#clipPath1)" fill="none" x1="513" x2="513" y1="116" y2="113"/>
<rect x="511" y="111" clip-path="url(#clipPath1)" width="5" shape-rendering="auto" height="5" stroke="none"/>
<line clip-path="url(#clipPath1)" fill="none" x1="513" x2="513" y1="113" y2="111"/>
<rect x="511" y="109" clip-path="url(#clipPath1)" width="5" shape-rendering="auto" height="5" stroke="none"/>
<line clip-path="url(#clipPath1)" fill="none" x1="513" x2="513" y1="111" y2="108"/>
<rect x="511" y="106" clip-path="url(#clipPath1)" width="5" shape-rendering="auto" height="5" stroke="none"/>
<line clip-path="url(#clipPath1)" fill="none" x1="513" x2="513" y1="108" y2="105"/>
<rect x="511" y="103" clip-path="url(#clipPath1)" width="5" shape-rendering="auto" height="5" stroke="none"/>
<line clip-path="url(#clipPath1)" fill="none" x1="513" x2="513" y1="105" y2="102"/>
<rect x="511" y="100" clip-path="url(#clipPath1)" width="5" shape-rendering="auto" height="5" stroke="none"/>
<line clip-path="url(#clipPath1)" fill="none" x1="513" x2="513" y1="102" y2="99"/>
<rect x="511" y="97" clip-path="url(#clipPath1)" width="5" shape-rendering="auto" height="5" stroke="none"/>
<line clip-path="url(#clipPath1)" fill="none" x1="513" x2="513" y1="99" y2="97"/>
<rect x="511" y="95" clip-path="url(#clipPath1)" width="5" shape-rendering="auto" height="5" stroke="none"/>
<line clip-path="url(#clipPath1)" fill="none" x1="513" x2="513" y1="97" y2="94"/>
<rect x="511" y="92" clip-path="url(#clipPath1)" width="5" shape-rendering="auto" height="5" stroke="none"/>
<line clip-path="url(#clipPath1)" fill="none" x1="513" x2="513" y1="94" y2="91"/>
<rect x="511" y="89" clip-path="url(#clipPath1)" width="5" shape-rendering="auto" height="5" stroke="none"/>
<line clip-path="url(#clipPath1)" fill="none" x1="513" x2="514" y1="91" y2="88" shape-rendering="auto"/>
<rect x="512" y="86" clip-path="url(#clipPath1)" width="5" shape-rendering="auto" height="5" stroke="none"/>
<line clip-path="url(#clipPath1)" fill="none" x1="514" x2="514" y1="88" y2="86"/>
<rect x="512" y="84" clip-path="url(#clipPath1)" width="5" shape-rendering="auto" height="5" stroke="none"/>
<line clip-path="url(#clipPath1)" fill="none" x1="514" x2="514" y1="86" y2="83"/>
<rect x="512" y="81" clip-path="url(#clipPath1)" width="5" shape-rendering="auto" height="5" stroke="none"/>
<line clip-path="url(#clipPath1)" fill="none" x1="514" x2="570" y1="83" y2="80" shape-rendering="auto"/>
<rect x="568" y="78" clip-path="url(#clipPath1)" width="5" shape-rendering="auto" height="5" stroke="none"/>
<line clip-path="url(#clipPath1)" fill="none" x1="570" x2="570" y1="80" y2="77"/>
<rect x="568" y="75" clip-path="url(#clipPath1)" width="5" shape-rendering="auto" height="5" stroke="none"/>
<line clip-path="url(#clipPath1)" fill="none" x1="570" x2="570" y1="77" y2="74"/>
<rect x="568" y="72" clip-path="url(#clipPath1)" width="5" shape-rendering="auto" height="5" stroke="none"/>
<line clip-path="url(#clipPath1)" fill="none" x1="570" x2="571" y1="74" y2="72" shape-rendering="auto"/>
<rect x="569" y="70" clip-path="url(#clipPath1)" width="5" shape-rendering="auto" height="5" stroke="none"/>
<line clip-path="url(#clipPath1)" fill="none" x1="571" x2="621" y1="72" y2="69" shape-rendering="auto"/>
<rect x="619" y="67" clip-path="url(#clipPath1)" width="5" shape-rendering="auto" height="5" stroke="none"/>
<line clip-path="url(#clipPath1)" fill="none" x1="621" x2="622" y1="69" y2="66" shape-rendering="auto"/>
<rect x="620" y="64" clip-path="url(#clipPath1)" width="5" shape-rendering="auto" height="5" stroke="none"/>
<line clip-path="url(#clipPath1)" fill="none" x1="622" x2="676" y1="66" y2="63" shape-rendering="auto"/>
<rect x="674" y="61" clip-path="url(#clipPath1)" width="5" shape-rendering="auto" height="5" stroke="none"/>
<line clip-path="url(#clipPath1)" fill="none" x1="676" x2="676" y1="63" y2="61"/>
<rect x="674" y="59" clip-path="url(#clipPath1)" width="5" shape-rendering="auto" height="5" stroke="none"/>
<line clip-path="url(#clipPath1)" fill="none" x1="676" x2="762" y1="61" y2="58" shape-rendering="auto"/>
<rect x="760" y="56" clip-path="url(#clipPath1)" width="5" shape-rendering="auto" height="5" stroke="none"/>
<rect x="32" y="23" clip-path="url(#clipPath2)" fill="none" width="740" shape-rendering="auto" height="141" stroke="black"/>
</g>
<g text-rendering="geometricPrecision" font-size="13" stroke-linecap="butt">
<line clip-path="url(#clipPath2)" fill="none" x1="32" x2="772" y1="21" y2="21"/>
<line clip-path="url(#clipPath2)" fill="none" x1="32" x2="772" y1="166" y2="166"/>
<text xml:space="preserve" x="402" y="184" clip-path="url(#clipPath2)" stroke="none"/>
<line clip-path="url(#clipPath2)" fill="none" x1="32" x2="32" y1="17" y2="21"/>
<line clip-path="url(#clipPath2)" fill="none" x1="32" x2="32" y1="170" y2="166"/>
<text font-size="11" x="31" y="14" clip-path="url(#clipPath2)" stroke="none" xml:space="preserve">0</text>
<text font-size="11" x="31" y="182" clip-path="url(#clipPath2)" stroke="none" xml:space="preserve">0</text>
<line clip-path="url(#clipPath2)" fill="none" x1="58" x2="58" y1="19" y2="21"/>
<line clip-path="url(#clipPath2)" fill="none" x1="58" x2="58" y1="168" y2="166"/>
<line clip-path="url(#clipPath2)" fill="none" x1="85" x2="85" y1="17" y2="21"/>
<line clip-path="url(#clipPath2)" fill="none" x1="85" x2="85" y1="170" y2="166"/>
<text font-size="11" x="79" y="14" clip-path="url(#clipPath2)" stroke="none" xml:space="preserve">200</text>
<text font-size="11" x="79" y="182" clip-path="url(#clipPath2)" stroke="none" xml:space="preserve">200</text>
<line clip-path="url(#clipPath2)" fill="none" x1="111" x2="111" y1="19" y2="21"/>
<line clip-path="url(#clipPath2)" fill="none" x1="111" x2="111" y1="168" y2="166"/>
<line clip-path="url(#clipPath2)" fill="none" x1="138" x2="138" y1="17" y2="21"/>
<line clip-path="url(#clipPath2)" fill="none" x1="138" x2="138" y1="170" y2="166"/>
<text font-size="11" x="132" y="14" clip-path="url(#clipPath2)" stroke="none" xml:space="preserve">400</text>
<text font-size="11" x="132" y="182" clip-path="url(#clipPath2)" stroke="none" xml:space="preserve">400</text>
<line clip-path="url(#clipPath2)" fill="none" x1="164" x2="164" y1="19" y2="21"/>
<line clip-path="url(#clipPath2)" fill="none" x1="164" x2="164" y1="168" y2="166"/>
<line clip-path="url(#clipPath2)" fill="none" x1="191" x2="191" y1="17" y2="21"/>
<line clip-path="url(#clipPath2)" fill="none" x1="191" x2="191" y1="170" y2="166"/>
<text font-size="11" x="185" y="14" clip-path="url(#clipPath2)" stroke="none" xml:space="preserve">600</text>
<text font-size="11" x="185" y="182" clip-path="url(#clipPath2)" stroke="none" xml:space="preserve">600</text>
<line clip-path="url(#clipPath2)" fill="none" x1="217" x2="217" y1="19" y2="21"/>
<line clip-path="url(#clipPath2)" fill="none" x1="217" x2="217" y1="168" y2="166"/>
<line clip-path="url(#clipPath2)" fill="none" x1="244" x2="244" y1="17" y2="21"/>
<line clip-path="url(#clipPath2)" fill="none" x1="244" x2="244" y1="170" y2="166"/>
<text font-size="11" x="238" y="14" clip-path="url(#clipPath2)" stroke="none" xml:space="preserve">800</text>
<text font-size="11" x="238" y="182" clip-path="url(#clipPath2)" stroke="none" xml:space="preserve">800</text>
<line clip-path="url(#clipPath2)" fill="none" x1="271" x2="271" y1="19" y2="21"/>
<line clip-path="url(#clipPath2)" fill="none" x1="271" x2="271" y1="168" y2="166"/>
<line clip-path="url(#clipPath2)" fill="none" x1="297" x2="297" y1="17" y2="21"/>
<line clip-path="url(#clipPath2)" fill="none" x1="297" x2="297" y1="170" y2="166"/>
<text font-size="11" x="288" y="14" clip-path="url(#clipPath2)" stroke="none" xml:space="preserve">1000</text>
<text font-size="11" x="288" y="182" clip-path="url(#clipPath2)" stroke="none" xml:space="preserve">1000</text>
<line clip-path="url(#clipPath2)" fill="none" x1="324" x2="324" y1="19" y2="21"/>
<line clip-path="url(#clipPath2)" fill="none" x1="324" x2="324" y1="168" y2="166"/>
<line clip-path="url(#clipPath2)" fill="none" x1="350" x2="350" y1="17" y2="21"/>
<line clip-path="url(#clipPath2)" fill="none" x1="350" x2="350" y1="170" y2="166"/>
<text font-size="11" x="341" y="14" clip-path="url(#clipPath2)" stroke="none" xml:space="preserve">1200</text>
<text font-size="11" x="341" y="182" clip-path="url(#clipPath2)" stroke="none" xml:space="preserve">1200</text>
<line clip-path="url(#clipPath2)" fill="none" x1="377" x2="377" y1="19" y2="21"/>
<line clip-path="url(#clipPath2)" fill="none" x1="377" x2="377" y1="168" y2="166"/>
<line clip-path="url(#clipPath2)" fill="none" x1="403" x2="403" y1="17" y2="21"/>
<line clip-path="url(#clipPath2)" fill="none" x1="403" x2="403" y1="170" y2="166"/>
<text font-size="11" x="394" y="14" clip-path="url(#clipPath2)" stroke="none" xml:space="preserve">1400</text>
<text font-size="11" x="394" y="182" clip-path="url(#clipPath2)" stroke="none" xml:space="preserve">1400</text>
<line clip-path="url(#clipPath2)" fill="none" x1="430" x2="430" y1="19" y2="21"/>
<line clip-path="url(#clipPath2)" fill="none" x1="430" x2="430" y1="168" y2="166"/>
<line clip-path="url(#clipPath2)" fill="none" x1="457" x2="457" y1="17" y2="21"/>
<line clip-path="url(#clipPath2)" fill="none" x1="457" x2="457" y1="170" y2="166"/>
<text font-size="11" x="448" y="14" clip-path="url(#clipPath2)" stroke="none" xml:space="preserve">1600</text>
<text font-size="11" x="448" y="182" clip-path="url(#clipPath2)" stroke="none" xml:space="preserve">1600</text>
<line clip-path="url(#clipPath2)" fill="none" x1="483" x2="483" y1="19" y2="21"/>
<line clip-path="url(#clipPath2)" fill="none" x1="483" x2="483" y1="168" y2="166"/>
<line clip-path="url(#clipPath2)" fill="none" x1="510" x2="510" y1="17" y2="21"/>
<line clip-path="url(#clipPath2)" fill="none" x1="510" x2="510" y1="170" y2="166"/>
<text font-size="11" x="501" y="14" clip-path="url(#clipPath2)" stroke="none" xml:space="preserve">1800</text>
<text font-size="11" x="501" y="182" clip-path="url(#clipPath2)" stroke="none" xml:space="preserve">1800</text>
<line clip-path="url(#clipPath2)" fill="none" x1="536" x2="536" y1="19" y2="21"/>
<line clip-path="url(#clipPath2)" fill="none" x1="536" x2="536" y1="168" y2="166"/>
<line clip-path="url(#clipPath2)" fill="none" x1="563" x2="563" y1="17" y2="21"/>
<line clip-path="url(#clipPath2)" fill="none" x1="563" x2="563" y1="170" y2="166"/>
<text font-size="11" x="554" y="14" clip-path="url(#clipPath2)" stroke="none" xml:space="preserve">2000</text>
<text font-size="11" x="554" y="182" clip-path="url(#clipPath2)" stroke="none" xml:space="preserve">2000</text>
<line clip-path="url(#clipPath2)" fill="none" x1="589" x2="589" y1="19" y2="21"/>
<line clip-path="url(#clipPath2)" fill="none" x1="589" x2="589" y1="168" y2="166"/>
<line clip-path="url(#clipPath2)" fill="none" x1="616" x2="616" y1="17" y2="21"/>
<line clip-path="url(#clipPath2)" fill="none" x1="616" x2="616" y1="170" y2="166"/>
<text font-size="11" x="607" y="14" clip-path="url(#clipPath2)" stroke="none" xml:space="preserve">2200</text>
<text font-size="11" x="607" y="182" clip-path="url(#clipPath2)" stroke="none" xml:space="preserve">2200</text>
<line clip-path="url(#clipPath2)" fill="none" x1="643" x2="643" y1="19" y2="21"/>
<line clip-path="url(#clipPath2)" fill="none" x1="643" x2="643" y1="168" y2="166"/>
<line clip-path="url(#clipPath2)" fill="none" x1="669" x2="669" y1="17" y2="21"/>
<line clip-path="url(#clipPath2)" fill="none" x1="669" x2="669" y1="170" y2="166"/>
<text font-size="11" x="660" y="14" clip-path="url(#clipPath2)" stroke="none" xml:space="preserve">2400</text>
<text font-size="11" x="660" y="182" clip-path="url(#clipPath2)" stroke="none" xml:space="preserve">2400</text>
<line clip-path="url(#clipPath2)" fill="none" x1="696" x2="696" y1="19" y2="21"/>
<line clip-path="url(#clipPath2)" fill="none" x1="696" x2="696" y1="168" y2="166"/>
<line clip-path="url(#clipPath2)" fill="none" x1="722" x2="722" y1="17" y2="21"/>
<line clip-path="url(#clipPath2)" fill="none" x1="722" x2="722" y1="170" y2="166"/>
<text font-size="11" x="713" y="14" clip-path="url(#clipPath2)" stroke="none" xml:space="preserve">2600</text>
<text font-size="11" x="713" y="182" clip-path="url(#clipPath2)" stroke="none" xml:space="preserve">2600</text>
<line clip-path="url(#clipPath2)" fill="none" x1="749" x2="749" y1="19" y2="21"/>
<line clip-path="url(#clipPath2)" fill="none" x1="749" x2="749" y1="168" y2="166"/>
<line clip-path="url(#clipPath2)" fill="none" x1="30" x2="30" y1="23" y2="164"/>
<line clip-path="url(#clipPath2)" fill="none" x1="774" x2="774" y1="23" y2="164"/>
<line clip-path="url(#clipPath2)" fill="none" x1="26" x2="30" y1="164" y2="164"/>
<line clip-path="url(#clipPath2)" fill="none" x1="778" x2="774" y1="164" y2="164"/>
<text font-size="11" x="20" y="169" clip-path="url(#clipPath2)" stroke="none" xml:space="preserve">0</text>
<text font-size="11" x="781" y="169" clip-path="url(#clipPath2)" stroke="none" xml:space="preserve">0</text>
<line clip-path="url(#clipPath2)" fill="none" x1="28" x2="30" y1="136" y2="136"/>
<line clip-path="url(#clipPath2)" fill="none" x1="776" x2="774" y1="136" y2="136"/>
<line clip-path="url(#clipPath2)" fill="none" x1="26" x2="30" y1="108" y2="108"/>
<line clip-path="url(#clipPath2)" fill="none" x1="778" x2="774" y1="108" y2="108"/>
<text font-size="11" x="15" y="113" clip-path="url(#clipPath2)" stroke="none" xml:space="preserve">20</text>
<text font-size="11" x="781" y="113" clip-path="url(#clipPath2)" stroke="none" xml:space="preserve">20</text>
<line clip-path="url(#clipPath2)" fill="none" x1="28" x2="30" y1="80" y2="80"/>
<line clip-path="url(#clipPath2)" fill="none" x1="776" x2="774" y1="80" y2="80"/>
<line clip-path="url(#clipPath2)" fill="none" x1="26" x2="30" y1="52" y2="52"/>
<line clip-path="url(#clipPath2)" fill="none" x1="778" x2="774" y1="52" y2="52"/>
<text font-size="11" x="15" y="57" clip-path="url(#clipPath2)" stroke="none" xml:space="preserve">40</text>
<text font-size="11" x="781" y="57" clip-path="url(#clipPath2)" stroke="none" xml:space="preserve">40</text>
<line clip-path="url(#clipPath2)" fill="none" x1="28" x2="30" y1="24" y2="24"/>
<line clip-path="url(#clipPath2)" fill="none" x1="776" x2="774" y1="24" y2="24"/>
</g>
</g>
</svg>
