<?xml version="1.0" encoding="UTF-8"?><svg xmlns="http://www.w3.org/2000/svg" xmlns:xlink="http://www.w3.org/1999/xlink" stroke-dasharray="none" shape-rendering="auto" font-family="'Dialog'" width="974" text-rendering="auto" fill-opacity="1" contentScriptType="text/ecmascript" color-interpolation="auto" color-rendering="auto" preserveAspectRatio="xMidYMid meet" font-size="12" fill="black" stroke="black" image-rendering="auto" stroke-miterlimit="10" zoomAndPan="magnify" version="1.0" stroke-linecap="square" stroke-linejoin="miter" contentStyleType="text/css" font-style="normal" height="262" stroke-width="1" stroke-dashoffset="0" font-weight="normal" stroke-opacity="1">
<!--Generated by the Batik Graphics2D SVG Generator-->
<defs id="genericDefs"/>
<g>
<defs id="defs1">
<clipPath clipPathUnits="userSpaceOnUse" id="clipPath1">
<path d="M34 22 L940 22 L940 240 L34 240 L34 22 Z"/>
</clipPath>
<clipPath clipPathUnits="userSpaceOnUse" id="clipPath2">
<path d="M-1 -1 L975 -1 L975 263 L-1 263 L-1 -1 Z"/>
</clipPath>
</defs>
<g font-size="15" fill="white" text-rendering="geometricPrecision" font-family="'Ubuntu'" stroke-linejoin="round" stroke="white" stroke-width="0" stroke-miterlimit="0">
<rect x="35" y="23" clip-path="url(#clipPath1)" width="904" height="216" stroke="none"/>
</g>
<g font-size="15" stroke-linecap="butt" fill="rgb(204,204,204)" text-rendering="geometricPrecision" font-family="'Ubuntu'" stroke-dasharray="3,3" stroke="rgb(204,204,204)">
<line clip-path="url(#clipPath1)" fill="none" x1="35" x2="35" y1="23" y2="239"/>
<line clip-path="url(#clipPath1)" fill="none" x1="93" x2="93" y1="23" y2="239"/>
<line clip-path="url(#clipPath1)" fill="none" x1="152" x2="152" y1="23" y2="239"/>
<line clip-path="url(#clipPath1)" fill="none" x1="211" x2="211" y1="23" y2="239"/>
<line clip-path="url(#clipPath1)" fill="none" x1="270" x2="270" y1="23" y2="239"/>
<line clip-path="url(#clipPath1)" fill="none" x1="328" x2="328" y1="23" y2="239"/>
<line clip-path="url(#clipPath1)" fill="none" x1="387" x2="387" y1="23" y2="239"/>
<line clip-path="url(#clipPath1)" fill="none" x1="446" x2="446" y1="23" y2="239"/>
<line clip-path="url(#clipPath1)" fill="none" x1="505" x2="505" y1="23" y2="239"/>
<line clip-path="url(#clipPath1)" fill="none" x1="563" x2="563" y1="23" y2="239"/>
<line clip-path="url(#clipPath1)" fill="none" x1="622" x2="622" y1="23" y2="239"/>
<line clip-path="url(#clipPath1)" fill="none" x1="681" x2="681" y1="23" y2="239"/>
<line clip-path="url(#clipPath1)" fill="none" x1="740" x2="740" y1="23" y2="239"/>
<line clip-path="url(#clipPath1)" fill="none" x1="799" x2="799" y1="23" y2="239"/>
<line clip-path="url(#clipPath1)" fill="none" x1="857" x2="857" y1="23" y2="239"/>
<line clip-path="url(#clipPath1)" fill="none" x1="916" x2="916" y1="23" y2="239"/>
<line clip-path="url(#clipPath1)" fill="none" x1="35" x2="939" y1="239" y2="239"/>
<line clip-path="url(#clipPath1)" fill="none" x1="35" x2="939" y1="177" y2="177"/>
<line clip-path="url(#clipPath1)" fill="none" x1="35" x2="939" y1="115" y2="115"/>
<line clip-path="url(#clipPath1)" fill="none" x1="35" x2="939" y1="53" y2="53"/>
<rect x="503" y="237" clip-path="url(#clipPath1)" fill="rgb(0,0,139)" width="5" height="5" stroke="none"/>
</g>
<g font-size="15" stroke-linecap="butt" fill="rgb(0,0,139)" text-rendering="geometricPrecision" font-family="'Ubuntu'" shape-rendering="crispEdges" stroke="rgb(0,0,139)">
<line clip-path="url(#clipPath1)" fill="none" x1="505" x2="505" y1="239" y2="227"/>
<rect x="503" y="225" clip-path="url(#clipPath1)" width="5" shape-rendering="auto" height="5" stroke="none"/>
<line clip-path="url(#clipPath1)" fill="none" x1="505" x2="505" y1="227" y2="223"/>
<rect x="503" y="221" clip-path="url(#clipPath1)" width="5" shape-rendering="auto" height="5" stroke="none"/>
<line clip-path="url(#clipPath1)" fill="none" x1="505" x2="505" y1="223" y2="212"/>
<rect x="503" y="210" clip-path="url(#clipPath1)" width="5" shape-rendering="auto" height="5" stroke="none"/>
<line clip-path="url(#clipPath1)" fill="none" x1="505" x2="505" y1="212" y2="204"/>
<rect x="503" y="202" clip-path="url(#clipPath1)" width="5" shape-rendering="auto" height="5" stroke="none"/>
<line clip-path="url(#clipPath1)" fill="none" x1="505" x2="505" y1="204" y2="201"/>
<rect x="503" y="199" clip-path="url(#clipPath1)" width="5" shape-rendering="auto" height="5" stroke="none"/>
<line clip-path="url(#clipPath1)" fill="none" x1="505" x2="506" y1="201" y2="199" shape-rendering="auto"/>
<rect x="504" y="197" clip-path="url(#clipPath1)" width="5" shape-rendering="auto" height="5" stroke="none"/>
<line clip-path="url(#clipPath1)" fill="none" x1="506" x2="506" y1="199" y2="196"/>
<rect x="504" y="194" clip-path="url(#clipPath1)" width="5" shape-rendering="auto" height="5" stroke="none"/>
<line clip-path="url(#clipPath1)" fill="none" x1="506" x2="506" y1="196" y2="186"/>
<rect x="504" y="184" clip-path="url(#clipPath1)" width="5" shape-rendering="auto" height="5" stroke="none"/>
<line clip-path="url(#clipPath1)" fill="none" x1="506" x2="506" y1="186" y2="182"/>
<rect x="504" y="180" clip-path="url(#clipPath1)" width="5" shape-rendering="auto" height="5" stroke="none"/>
<line clip-path="url(#clipPath1)" fill="none" x1="506" x2="506" y1="182" y2="179"/>
<rect x="504" y="177" clip-path="url(#clipPath1)" width="5" shape-rendering="auto" height="5" stroke="none"/>
<line clip-path="url(#clipPath1)" fill="none" x1="506" x2="506" y1="179" y2="169"/>
<rect x="504" y="167" clip-path="url(#clipPath1)" width="5" shape-rendering="auto" height="5" stroke="none"/>
<line clip-path="url(#clipPath1)" fill="none" x1="506" x2="506" y1="169" y2="166"/>
<rect x="504" y="164" clip-path="url(#clipPath1)" width="5" shape-rendering="auto" height="5" stroke="none"/>
<line clip-path="url(#clipPath1)" fill="none" x1="506" x2="506" y1="166" y2="165"/>
<rect x="504" y="163" clip-path="url(#clipPath1)" width="5" shape-rendering="auto" height="5" stroke="none"/>
<line clip-path="url(#clipPath1)" fill="none" x1="506" x2="567" y1="165" y2="165" shape-rendering="auto"/>
<rect x="565" y="163" clip-path="url(#clipPath1)" width="5" shape-rendering="auto" height="5" stroke="none"/>
<line clip-path="url(#clipPath1)" fill="none" x1="567" x2="567" y1="165" y2="162"/>
<rect x="565" y="160" clip-path="url(#clipPath1)" width="5" shape-rendering="auto" height="5" stroke="none"/>
<line clip-path="url(#clipPath1)" fill="none" x1="567" x2="567" y1="162" y2="160"/>
<rect x="565" y="158" clip-path="url(#clipPath1)" width="5" shape-rendering="auto" height="5" stroke="none"/>
<line clip-path="url(#clipPath1)" fill="none" x1="567" x2="567" y1="160" y2="157"/>
<rect x="565" y="155" clip-path="url(#clipPath1)" width="5" shape-rendering="auto" height="5" stroke="none"/>
<line clip-path="url(#clipPath1)" fill="none" x1="567" x2="567" y1="157" y2="145"/>
<rect x="565" y="143" clip-path="url(#clipPath1)" width="5" shape-rendering="auto" height="5" stroke="none"/>
<line clip-path="url(#clipPath1)" fill="none" x1="567" x2="567" y1="145" y2="143"/>
<rect x="565" y="141" clip-path="url(#clipPath1)" width="5" shape-rendering="auto" height="5" stroke="none"/>
<line clip-path="url(#clipPath1)" fill="none" x1="567" x2="567" y1="143" y2="140"/>
<rect x="565" y="138" clip-path="url(#clipPath1)" width="5" shape-rendering="auto" height="5" stroke="none"/>
<line clip-path="url(#clipPath1)" fill="none" x1="567" x2="567" y1="140" y2="138"/>
<rect x="565" y="136" clip-path="url(#clipPath1)" width="5" shape-rendering="auto" height="5" stroke="none"/>
<line clip-path="url(#clipPath1)" fill="none" x1="567" x2="567" y1="138" y2="135"/>
<rect x="565" y="133" clip-path="url(#clipPath1)" width="5" shape-rendering="auto" height="5" stroke="none"/>
<line clip-path="url(#clipPath1)" fill="none" x1="567" x2="567" y1="135" y2="133"/>
<rect x="565" y="131" clip-path="url(#clipPath1)" width="5" shape-rendering="auto" height="5" stroke="none"/>
<line clip-path="url(#clipPath1)" fill="none" x1="567" x2="567" y1="133" y2="130"/>
<rect x="565" y="128" clip-path="url(#clipPath1)" width="5" shape-rendering="auto" height="5" stroke="none"/>
<line clip-path="url(#clipPath1)" fill="none" x1="567" x2="567" y1="130" y2="127"/>
<rect x="565" y="125" clip-path="url(#clipPath1)" width="5" shape-rendering="auto" height="5" stroke="none"/>
<line clip-path="url(#clipPath1)" fill="none" x1="567" x2="567" y1="127" y2="116"/>
<rect x="565" y="114" clip-path="url(#clipPath1)" width="5" shape-rendering="auto" height="5" stroke="none"/>
<line clip-path="url(#clipPath1)" fill="none" x1="567" x2="567" y1="116" y2="114"/>
<rect x="565" y="112" clip-path="url(#clipPath1)" width="5" shape-rendering="auto" height="5" stroke="none"/>
<line clip-path="url(#clipPath1)" fill="none" x1="567" x2="567" y1="114" y2="112"/>
<rect x="565" y="110" clip-path="url(#clipPath1)" width="5" shape-rendering="auto" height="5" stroke="none"/>
<line clip-path="url(#clipPath1)" fill="none" x1="567" x2="567" y1="112" y2="109"/>
<rect x="565" y="107" clip-path="url(#clipPath1)" width="5" shape-rendering="auto" height="5" stroke="none"/>
<line clip-path="url(#clipPath1)" fill="none" x1="567" x2="567" y1="109" y2="107"/>
<rect x="565" y="105" clip-path="url(#clipPath1)" width="5" shape-rendering="auto" height="5" stroke="none"/>
<line clip-path="url(#clipPath1)" fill="none" x1="567" x2="567" y1="107" y2="105"/>
<rect x="565" y="103" clip-path="url(#clipPath1)" width="5" shape-rendering="auto" height="5" stroke="none"/>
<line clip-path="url(#clipPath1)" fill="none" x1="567" x2="568" y1="105" y2="108" shape-rendering="auto"/>
<rect x="566" y="106" clip-path="url(#clipPath1)" width="5" shape-rendering="auto" height="5" stroke="none"/>
<line clip-path="url(#clipPath1)" fill="none" x1="568" x2="630" y1="108" y2="111" shape-rendering="auto"/>
<rect x="628" y="109" clip-path="url(#clipPath1)" width="5" shape-rendering="auto" height="5" stroke="none"/>
<line clip-path="url(#clipPath1)" fill="none" x1="630" x2="630" y1="111" y2="109"/>
<rect x="628" y="107" clip-path="url(#clipPath1)" width="5" shape-rendering="auto" height="5" stroke="none"/>
<line clip-path="url(#clipPath1)" fill="none" x1="630" x2="630" y1="109" y2="106"/>
<rect x="628" y="104" clip-path="url(#clipPath1)" width="5" shape-rendering="auto" height="5" stroke="none"/>
<rect x="628" y="105" clip-path="url(#clipPath1)" width="5" shape-rendering="auto" height="5" stroke="none"/>
<line clip-path="url(#clipPath1)" fill="none" x1="630" x2="630" y1="106" y2="102"/>
<rect x="628" y="100" clip-path="url(#clipPath1)" width="5" shape-rendering="auto" height="5" stroke="none"/>
<line clip-path="url(#clipPath1)" fill="none" x1="630" x2="630" y1="102" y2="100"/>
<rect x="628" y="98" clip-path="url(#clipPath1)" width="5" shape-rendering="auto" height="5" stroke="none"/>
<line clip-path="url(#clipPath1)" fill="none" x1="630" x2="630" y1="100" y2="98"/>
<rect x="628" y="96" clip-path="url(#clipPath1)" width="5" shape-rendering="auto" height="5" stroke="none"/>
<line clip-path="url(#clipPath1)" fill="none" x1="630" x2="630" y1="98" y2="96"/>
<rect x="628" y="94" clip-path="url(#clipPath1)" width="5" shape-rendering="auto" height="5" stroke="none"/>
<line clip-path="url(#clipPath1)" fill="none" x1="630" x2="630" y1="96" y2="91"/>
<rect x="628" y="89" clip-path="url(#clipPath1)" width="5" shape-rendering="auto" height="5" stroke="none"/>
<line clip-path="url(#clipPath1)" fill="none" x1="630" x2="630" y1="91" y2="90"/>
<rect x="628" y="88" clip-path="url(#clipPath1)" width="5" shape-rendering="auto" height="5" stroke="none"/>
<line clip-path="url(#clipPath1)" fill="none" x1="630" x2="631" y1="90" y2="92" shape-rendering="auto"/>
<rect x="629" y="90" clip-path="url(#clipPath1)" width="5" shape-rendering="auto" height="5" stroke="none"/>
<line clip-path="url(#clipPath1)" fill="none" x1="631" x2="631" y1="92" y2="89"/>
<rect x="629" y="87" clip-path="url(#clipPath1)" width="5" shape-rendering="auto" height="5" stroke="none"/>
<line clip-path="url(#clipPath1)" fill="none" x1="631" x2="631" y1="89" y2="83"/>
<rect x="629" y="81" clip-path="url(#clipPath1)" width="5" shape-rendering="auto" height="5" stroke="none"/>
<line clip-path="url(#clipPath1)" fill="none" x1="631" x2="631" y1="83" y2="81"/>
<rect x="629" y="79" clip-path="url(#clipPath1)" width="5" shape-rendering="auto" height="5" stroke="none"/>
<line clip-path="url(#clipPath1)" fill="none" x1="631" x2="687" y1="81" y2="81" shape-rendering="auto"/>
<rect x="685" y="79" clip-path="url(#clipPath1)" width="5" shape-rendering="auto" height="5" stroke="none"/>
<line clip-path="url(#clipPath1)" fill="none" x1="687" x2="687" y1="81" y2="84"/>
<rect x="685" y="82" clip-path="url(#clipPath1)" width="5" shape-rendering="auto" height="5" stroke="none"/>
<rect x="685" y="80" clip-path="url(#clipPath1)" width="5" shape-rendering="auto" height="5" stroke="none"/>
<line clip-path="url(#clipPath1)" fill="none" x1="687" x2="747" y1="82" y2="84" shape-rendering="auto"/>
<rect x="745" y="82" clip-path="url(#clipPath1)" width="5" shape-rendering="auto" height="5" stroke="none"/>
<line clip-path="url(#clipPath1)" fill="none" x1="747" x2="747" y1="84" y2="82"/>
<rect x="745" y="80" clip-path="url(#clipPath1)" width="5" shape-rendering="auto" height="5" stroke="none"/>
<line clip-path="url(#clipPath1)" fill="none" x1="747" x2="748" y1="82" y2="81" shape-rendering="auto"/>
<rect x="746" y="79" clip-path="url(#clipPath1)" width="5" shape-rendering="auto" height="5" stroke="none"/>
<line clip-path="url(#clipPath1)" fill="none" x1="748" x2="748" y1="81" y2="79"/>
<rect x="746" y="77" clip-path="url(#clipPath1)" width="5" shape-rendering="auto" height="5" stroke="none"/>
<line clip-path="url(#clipPath1)" fill="none" x1="748" x2="842" y1="79" y2="78" shape-rendering="auto"/>
<rect x="840" y="76" clip-path="url(#clipPath1)" width="5" shape-rendering="auto" height="5" stroke="none"/>
<line clip-path="url(#clipPath1)" fill="none" x1="842" x2="843" y1="78" y2="82" shape-rendering="auto"/>
<rect x="841" y="80" clip-path="url(#clipPath1)" width="5" shape-rendering="auto" height="5" stroke="none"/>
<line clip-path="url(#clipPath1)" fill="none" x1="843" x2="843" y1="82" y2="88"/>
<rect x="841" y="86" clip-path="url(#clipPath1)" width="5" shape-rendering="auto" height="5" stroke="none"/>
<rect x="841" y="85" clip-path="url(#clipPath1)" width="5" shape-rendering="auto" height="5" stroke="none"/>
<line clip-path="url(#clipPath1)" fill="none" x1="843" x2="860" y1="87" y2="87" shape-rendering="auto"/>
<rect x="858" y="85" clip-path="url(#clipPath1)" width="5" shape-rendering="auto" height="5" stroke="none"/>
<line clip-path="url(#clipPath1)" fill="none" x1="860" x2="860" y1="87" y2="86"/>
<rect x="858" y="84" clip-path="url(#clipPath1)" width="5" shape-rendering="auto" height="5" stroke="none"/>
<line clip-path="url(#clipPath1)" fill="none" x1="860" x2="860" y1="86" y2="85"/>
<rect x="858" y="83" clip-path="url(#clipPath1)" width="5" shape-rendering="auto" height="5" stroke="none"/>
<line clip-path="url(#clipPath1)" fill="none" x1="860" x2="860" y1="85" y2="84"/>
<rect x="858" y="82" clip-path="url(#clipPath1)" width="5" shape-rendering="auto" height="5" stroke="none"/>
<line clip-path="url(#clipPath1)" fill="none" x1="860" x2="860" y1="84" y2="82"/>
<rect x="858" y="80" clip-path="url(#clipPath1)" width="5" shape-rendering="auto" height="5" stroke="none"/>
<rect x="858" y="81" clip-path="url(#clipPath1)" width="5" shape-rendering="auto" height="5" stroke="none"/>
<line clip-path="url(#clipPath1)" fill="none" x1="860" x2="860" y1="82" y2="78"/>
<rect x="858" y="76" clip-path="url(#clipPath1)" width="5" shape-rendering="auto" height="5" stroke="none"/>
<line clip-path="url(#clipPath1)" fill="none" x1="860" x2="860" y1="78" y2="77"/>
<rect x="858" y="75" clip-path="url(#clipPath1)" width="5" shape-rendering="auto" height="5" stroke="none"/>
<rect x="858" y="78" clip-path="url(#clipPath1)" width="5" shape-rendering="auto" height="5" stroke="none"/>
<line clip-path="url(#clipPath1)" fill="none" x1="860" x2="861" y1="80" y2="79" shape-rendering="auto"/>
<rect x="859" y="77" clip-path="url(#clipPath1)" width="5" shape-rendering="auto" height="5" stroke="none"/>
<line clip-path="url(#clipPath1)" fill="none" x1="861" x2="861" y1="79" y2="78"/>
<rect x="859" y="76" clip-path="url(#clipPath1)" width="5" shape-rendering="auto" height="5" stroke="none"/>
<line clip-path="url(#clipPath1)" fill="none" x1="861" x2="861" y1="78" y2="77"/>
<rect x="859" y="75" clip-path="url(#clipPath1)" width="5" shape-rendering="auto" height="5" stroke="none"/>
<line clip-path="url(#clipPath1)" fill="none" x1="861" x2="927" y1="77" y2="85" shape-rendering="auto"/>
<rect x="925" y="83" clip-path="url(#clipPath1)" width="5" shape-rendering="auto" height="5" stroke="none"/>
<line clip-path="url(#clipPath1)" fill="none" x1="927" x2="927" y1="85" y2="84"/>
<rect x="925" y="82" clip-path="url(#clipPath1)" width="5" shape-rendering="auto" height="5" stroke="none"/>
<line clip-path="url(#clipPath1)" fill="none" x1="927" x2="927" y1="84" y2="83"/>
<rect x="925" y="81" clip-path="url(#clipPath1)" width="5" shape-rendering="auto" height="5" stroke="none"/>
<line clip-path="url(#clipPath1)" fill="none" x1="927" x2="927" y1="83" y2="81"/>
<rect x="925" y="79" clip-path="url(#clipPath1)" width="5" shape-rendering="auto" height="5" stroke="none"/>
<rect x="925" y="80" clip-path="url(#clipPath1)" width="5" shape-rendering="auto" height="5" stroke="none"/>
<line clip-path="url(#clipPath1)" fill="none" x1="927" x2="927" y1="81" y2="78"/>
<rect x="925" y="76" clip-path="url(#clipPath1)" width="5" shape-rendering="auto" height="5" stroke="none"/>
<line clip-path="url(#clipPath1)" fill="none" x1="927" x2="927" y1="78" y2="77"/>
<rect x="925" y="75" clip-path="url(#clipPath1)" width="5" shape-rendering="auto" height="5" stroke="none"/>
<rect x="35" y="23" clip-path="url(#clipPath2)" fill="none" width="904" shape-rendering="auto" height="216" stroke="black"/>
</g>
<g text-rendering="geometricPrecision" font-size="13" stroke-linecap="butt">
<line clip-path="url(#clipPath2)" fill="none" x1="35" x2="939" y1="21" y2="21"/>
<line clip-path="url(#clipPath2)" fill="none" x1="35" x2="939" y1="241" y2="241"/>
<text xml:space="preserve" x="487" y="259" clip-path="url(#clipPath2)" stroke="none"/>
<line clip-path="url(#clipPath2)" fill="none" x1="35" x2="35" y1="17" y2="21"/>
<line clip-path="url(#clipPath2)" fill="none" x1="35" x2="35" y1="245" y2="241"/>
<text font-size="11" x="34" y="14" clip-path="url(#clipPath2)" stroke="none" xml:space="preserve">0</text>
<text font-size="11" x="34" y="257" clip-path="url(#clipPath2)" stroke="none" xml:space="preserve">0</text>
<line clip-path="url(#clipPath2)" fill="none" x1="64" x2="64" y1="19" y2="21"/>
<line clip-path="url(#clipPath2)" fill="none" x1="64" x2="64" y1="243" y2="241"/>
<line clip-path="url(#clipPath2)" fill="none" x1="93" x2="93" y1="17" y2="21"/>
<line clip-path="url(#clipPath2)" fill="none" x1="93" x2="93" y1="245" y2="241"/>
<text font-size="11" x="87" y="14" clip-path="url(#clipPath2)" stroke="none" xml:space="preserve">200</text>
<text font-size="11" x="87" y="257" clip-path="url(#clipPath2)" stroke="none" xml:space="preserve">200</text>
<line clip-path="url(#clipPath2)" fill="none" x1="123" x2="123" y1="19" y2="21"/>
<line clip-path="url(#clipPath2)" fill="none" x1="123" x2="123" y1="243" y2="241"/>
<line clip-path="url(#clipPath2)" fill="none" x1="152" x2="152" y1="17" y2="21"/>
<line clip-path="url(#clipPath2)" fill="none" x1="152" x2="152" y1="245" y2="241"/>
<text font-size="11" x="146" y="14" clip-path="url(#clipPath2)" stroke="none" xml:space="preserve">400</text>
<text font-size="11" x="146" y="257" clip-path="url(#clipPath2)" stroke="none" xml:space="preserve">400</text>
<line clip-path="url(#clipPath2)" fill="none" x1="181" x2="181" y1="19" y2="21"/>
<line clip-path="url(#clipPath2)" fill="none" x1="181" x2="181" y1="243" y2="241"/>
<line clip-path="url(#clipPath2)" fill="none" x1="211" x2="211" y1="17" y2="21"/>
<line clip-path="url(#clipPath2)" fill="none" x1="211" x2="211" y1="245" y2="241"/>
<text font-size="11" x="205" y="14" clip-path="url(#clipPath2)" stroke="none" xml:space="preserve">600</text>
<text font-size="11" x="205" y="257" clip-path="url(#clipPath2)" stroke="none" xml:space="preserve">600</text>
<line clip-path="url(#clipPath2)" fill="none" x1="240" x2="240" y1="19" y2="21"/>
<line clip-path="url(#clipPath2)" fill="none" x1="240" x2="240" y1="243" y2="241"/>
<line clip-path="url(#clipPath2)" fill="none" x1="270" x2="270" y1="17" y2="21"/>
<line clip-path="url(#clipPath2)" fill="none" x1="270" x2="270" y1="245" y2="241"/>
<text font-size="11" x="264" y="14" clip-path="url(#clipPath2)" stroke="none" xml:space="preserve">800</text>
<text font-size="11" x="264" y="257" clip-path="url(#clipPath2)" stroke="none" xml:space="preserve">800</text>
<line clip-path="url(#clipPath2)" fill="none" x1="299" x2="299" y1="19" y2="21"/>
<line clip-path="url(#clipPath2)" fill="none" x1="299" x2="299" y1="243" y2="241"/>
<line clip-path="url(#clipPath2)" fill="none" x1="328" x2="328" y1="17" y2="21"/>
<line clip-path="url(#clipPath2)" fill="none" x1="328" x2="328" y1="245" y2="241"/>
<text font-size="11" x="319" y="14" clip-path="url(#clipPath2)" stroke="none" xml:space="preserve">1000</text>
<text font-size="11" x="319" y="257" clip-path="url(#clipPath2)" stroke="none" xml:space="preserve">1000</text>
<line clip-path="url(#clipPath2)" fill="none" x1="358" x2="358" y1="19" y2="21"/>
<line clip-path="url(#clipPath2)" fill="none" x1="358" x2="358" y1="243" y2="241"/>
<line clip-path="url(#clipPath2)" fill="none" x1="387" x2="387" y1="17" y2="21"/>
<line clip-path="url(#clipPath2)" fill="none" x1="387" x2="387" y1="245" y2="241"/>
<text font-size="11" x="378" y="14" clip-path="url(#clipPath2)" stroke="none" xml:space="preserve">1200</text>
<text font-size="11" x="378" y="257" clip-path="url(#clipPath2)" stroke="none" xml:space="preserve">1200</text>
<line clip-path="url(#clipPath2)" fill="none" x1="417" x2="417" y1="19" y2="21"/>
<line clip-path="url(#clipPath2)" fill="none" x1="417" x2="417" y1="243" y2="241"/>
<line clip-path="url(#clipPath2)" fill="none" x1="446" x2="446" y1="17" y2="21"/>
<line clip-path="url(#clipPath2)" fill="none" x1="446" x2="446" y1="245" y2="241"/>
<text font-size="11" x="437" y="14" clip-path="url(#clipPath2)" stroke="none" xml:space="preserve">1400</text>
<text font-size="11" x="437" y="257" clip-path="url(#clipPath2)" stroke="none" xml:space="preserve">1400</text>
<line clip-path="url(#clipPath2)" fill="none" x1="475" x2="475" y1="19" y2="21"/>
<line clip-path="url(#clipPath2)" fill="none" x1="475" x2="475" y1="243" y2="241"/>
<line clip-path="url(#clipPath2)" fill="none" x1="505" x2="505" y1="17" y2="21"/>
<line clip-path="url(#clipPath2)" fill="none" x1="505" x2="505" y1="245" y2="241"/>
<text font-size="11" x="496" y="14" clip-path="url(#clipPath2)" stroke="none" xml:space="preserve">1600</text>
<text font-size="11" x="496" y="257" clip-path="url(#clipPath2)" stroke="none" xml:space="preserve">1600</text>
<line clip-path="url(#clipPath2)" fill="none" x1="534" x2="534" y1="19" y2="21"/>
<line clip-path="url(#clipPath2)" fill="none" x1="534" x2="534" y1="243" y2="241"/>
<line clip-path="url(#clipPath2)" fill="none" x1="563" x2="563" y1="17" y2="21"/>
<line clip-path="url(#clipPath2)" fill="none" x1="563" x2="563" y1="245" y2="241"/>
<text font-size="11" x="554" y="14" clip-path="url(#clipPath2)" stroke="none" xml:space="preserve">1800</text>
<text font-size="11" x="554" y="257" clip-path="url(#clipPath2)" stroke="none" xml:space="preserve">1800</text>
<line clip-path="url(#clipPath2)" fill="none" x1="593" x2="593" y1="19" y2="21"/>
<line clip-path="url(#clipPath2)" fill="none" x1="593" x2="593" y1="243" y2="241"/>
<line clip-path="url(#clipPath2)" fill="none" x1="622" x2="622" y1="17" y2="21"/>
<line clip-path="url(#clipPath2)" fill="none" x1="622" x2="622" y1="245" y2="241"/>
<text font-size="11" x="613" y="14" clip-path="url(#clipPath2)" stroke="none" xml:space="preserve">2000</text>
<text font-size="11" x="613" y="257" clip-path="url(#clipPath2)" stroke="none" xml:space="preserve">2000</text>
<line clip-path="url(#clipPath2)" fill="none" x1="652" x2="652" y1="19" y2="21"/>
<line clip-path="url(#clipPath2)" fill="none" x1="652" x2="652" y1="243" y2="241"/>
<line clip-path="url(#clipPath2)" fill="none" x1="681" x2="681" y1="17" y2="21"/>
<line clip-path="url(#clipPath2)" fill="none" x1="681" x2="681" y1="245" y2="241"/>
<text font-size="11" x="672" y="14" clip-path="url(#clipPath2)" stroke="none" xml:space="preserve">2200</text>
<text font-size="11" x="672" y="257" clip-path="url(#clipPath2)" stroke="none" xml:space="preserve">2200</text>
<line clip-path="url(#clipPath2)" fill="none" x1="710" x2="710" y1="19" y2="21"/>
<line clip-path="url(#clipPath2)" fill="none" x1="710" x2="710" y1="243" y2="241"/>
<line clip-path="url(#clipPath2)" fill="none" x1="740" x2="740" y1="17" y2="21"/>
<line clip-path="url(#clipPath2)" fill="none" x1="740" x2="740" y1="245" y2="241"/>
<text font-size="11" x="731" y="14" clip-path="url(#clipPath2)" stroke="none" xml:space="preserve">2400</text>
<text font-size="11" x="731" y="257" clip-path="url(#clipPath2)" stroke="none" xml:space="preserve">2400</text>
<line clip-path="url(#clipPath2)" fill="none" x1="769" x2="769" y1="19" y2="21"/>
<line clip-path="url(#clipPath2)" fill="none" x1="769" x2="769" y1="243" y2="241"/>
<line clip-path="url(#clipPath2)" fill="none" x1="799" x2="799" y1="17" y2="21"/>
<line clip-path="url(#clipPath2)" fill="none" x1="799" x2="799" y1="245" y2="241"/>
<text font-size="11" x="790" y="14" clip-path="url(#clipPath2)" stroke="none" xml:space="preserve">2600</text>
<text font-size="11" x="790" y="257" clip-path="url(#clipPath2)" stroke="none" xml:space="preserve">2600</text>
<line clip-path="url(#clipPath2)" fill="none" x1="828" x2="828" y1="19" y2="21"/>
<line clip-path="url(#clipPath2)" fill="none" x1="828" x2="828" y1="243" y2="241"/>
<line clip-path="url(#clipPath2)" fill="none" x1="857" x2="857" y1="17" y2="21"/>
<line clip-path="url(#clipPath2)" fill="none" x1="857" x2="857" y1="245" y2="241"/>
<text font-size="11" x="848" y="14" clip-path="url(#clipPath2)" stroke="none" xml:space="preserve">2800</text>
<text font-size="11" x="848" y="257" clip-path="url(#clipPath2)" stroke="none" xml:space="preserve">2800</text>
<line clip-path="url(#clipPath2)" fill="none" x1="887" x2="887" y1="19" y2="21"/>
<line clip-path="url(#clipPath2)" fill="none" x1="887" x2="887" y1="243" y2="241"/>
<line clip-path="url(#clipPath2)" fill="none" x1="916" x2="916" y1="17" y2="21"/>
<line clip-path="url(#clipPath2)" fill="none" x1="916" x2="916" y1="245" y2="241"/>
<text font-size="11" x="907" y="14" clip-path="url(#clipPath2)" stroke="none" xml:space="preserve">3000</text>
<text font-size="11" x="907" y="257" clip-path="url(#clipPath2)" stroke="none" xml:space="preserve">3000</text>
<line clip-path="url(#clipPath2)" fill="none" x1="33" x2="33" y1="23" y2="239"/>
<line clip-path="url(#clipPath2)" fill="none" x1="941" x2="941" y1="23" y2="239"/>
<line clip-path="url(#clipPath2)" fill="none" x1="29" x2="33" y1="239" y2="239"/>
<line clip-path="url(#clipPath2)" fill="none" x1="945" x2="941" y1="239" y2="239"/>
<text font-size="11" x="13" y="244" clip-path="url(#clipPath2)" stroke="none" xml:space="preserve">0.0</text>
<text font-size="11" x="948" y="244" clip-path="url(#clipPath2)" stroke="none" xml:space="preserve">0.0</text>
<line clip-path="url(#clipPath2)" fill="none" x1="31" x2="33" y1="208" y2="208"/>
<line clip-path="url(#clipPath2)" fill="none" x1="943" x2="941" y1="208" y2="208"/>
<line clip-path="url(#clipPath2)" fill="none" x1="29" x2="33" y1="177" y2="177"/>
<line clip-path="url(#clipPath2)" fill="none" x1="945" x2="941" y1="177" y2="177"/>
<text font-size="11" x="8" y="182" clip-path="url(#clipPath2)" stroke="none" xml:space="preserve">0.02</text>
<text font-size="11" x="948" y="182" clip-path="url(#clipPath2)" stroke="none" xml:space="preserve">0.02</text>
<line clip-path="url(#clipPath2)" fill="none" x1="31" x2="33" y1="146" y2="146"/>
<line clip-path="url(#clipPath2)" fill="none" x1="943" x2="941" y1="146" y2="146"/>
<line clip-path="url(#clipPath2)" fill="none" x1="29" x2="33" y1="115" y2="115"/>
<line clip-path="url(#clipPath2)" fill="none" x1="945" x2="941" y1="115" y2="115"/>
<text font-size="11" x="8" y="120" clip-path="url(#clipPath2)" stroke="none" xml:space="preserve">0.04</text>
<text font-size="11" x="948" y="120" clip-path="url(#clipPath2)" stroke="none" xml:space="preserve">0.04</text>
<line clip-path="url(#clipPath2)" fill="none" x1="31" x2="33" y1="84" y2="84"/>
<line clip-path="url(#clipPath2)" fill="none" x1="943" x2="941" y1="84" y2="84"/>
<line clip-path="url(#clipPath2)" fill="none" x1="29" x2="33" y1="53" y2="53"/>
<line clip-path="url(#clipPath2)" fill="none" x1="945" x2="941" y1="53" y2="53"/>
<text font-size="11" x="8" y="58" clip-path="url(#clipPath2)" stroke="none" xml:space="preserve">0.06</text>
<text font-size="11" x="948" y="58" clip-path="url(#clipPath2)" stroke="none" xml:space="preserve">0.06</text>
</g>
</g>
</svg>
