<?xml version="1.0" encoding="UTF-8"?><svg xmlns="http://www.w3.org/2000/svg" xmlns:xlink="http://www.w3.org/1999/xlink" stroke-dasharray="none" shape-rendering="auto" font-family="'Dialog'" width="974" text-rendering="auto" fill-opacity="1" contentScriptType="text/ecmascript" color-interpolation="auto" color-rendering="auto" preserveAspectRatio="xMidYMid meet" font-size="12" fill="black" stroke="black" image-rendering="auto" stroke-miterlimit="10" zoomAndPan="magnify" version="1.0" stroke-linecap="square" stroke-linejoin="miter" contentStyleType="text/css" font-style="normal" height="262" stroke-width="1" stroke-dashoffset="0" font-weight="normal" stroke-opacity="1">
<!--Generated by the Batik Graphics2D SVG Generator-->
<defs id="genericDefs"/>
<g>
<defs id="defs1">
<clipPath clipPathUnits="userSpaceOnUse" id="clipPath1">
<path d="M34 22 L940 22 L940 240 L34 240 L34 22 Z"/>
</clipPath>
<clipPath clipPathUnits="userSpaceOnUse" id="clipPath2">
<path d="M-1 -1 L975 -1 L975 263 L-1 263 L-1 -1 Z"/>
</clipPath>
</defs>
<g font-size="15" fill="white" text-rendering="geometricPrecision" font-family="'Ubuntu'" stroke-linejoin="round" stroke="white" stroke-width="0" stroke-miterlimit="0">
<rect x="35" y="23" clip-path="url(#clipPath1)" width="904" height="216" stroke="none"/>
</g>
<g font-size="15" stroke-linecap="butt" fill="rgb(204,204,204)" text-rendering="geometricPrecision" font-family="'Ubuntu'" stroke-dasharray="3,3" stroke="rgb(204,204,204)">
<line clip-path="url(#clipPath1)" fill="none" x1="35" x2="35" y1="23" y2="239"/>
<line clip-path="url(#clipPath1)" fill="none" x1="108" x2="108" y1="23" y2="239"/>
<line clip-path="url(#clipPath1)" fill="none" x1="182" x2="182" y1="23" y2="239"/>
<line clip-path="url(#clipPath1)" fill="none" x1="256" x2="256" y1="23" y2="239"/>
<line clip-path="url(#clipPath1)" fill="none" x1="329" x2="329" y1="23" y2="239"/>
<line clip-path="url(#clipPath1)" fill="none" x1="403" x2="403" y1="23" y2="239"/>
<line clip-path="url(#clipPath1)" fill="none" x1="477" x2="477" y1="23" y2="239"/>
<line clip-path="url(#clipPath1)" fill="none" x1="550" x2="550" y1="23" y2="239"/>
<line clip-path="url(#clipPath1)" fill="none" x1="624" x2="624" y1="23" y2="239"/>
<line clip-path="url(#clipPath1)" fill="none" x1="698" x2="698" y1="23" y2="239"/>
<line clip-path="url(#clipPath1)" fill="none" x1="771" x2="771" y1="23" y2="239"/>
<line clip-path="url(#clipPath1)" fill="none" x1="845" x2="845" y1="23" y2="239"/>
<line clip-path="url(#clipPath1)" fill="none" x1="919" x2="919" y1="23" y2="239"/>
<line clip-path="url(#clipPath1)" fill="none" x1="35" x2="939" y1="239" y2="239"/>
<line clip-path="url(#clipPath1)" fill="none" x1="35" x2="939" y1="118" y2="118"/>
<rect x="476" y="237" clip-path="url(#clipPath1)" fill="rgb(0,0,139)" width="5" height="5" stroke="none"/>
<line clip-path="url(#clipPath1)" fill="none" x1="478" x2="479" y1="239" y2="214" stroke-dasharray="none" stroke="rgb(0,0,139)"/>
<rect x="477" y="212" clip-path="url(#clipPath1)" fill="rgb(0,0,139)" width="5" stroke-dasharray="none" height="5" stroke="none"/>
</g>
<g font-size="15" stroke-linecap="butt" fill="rgb(0,0,139)" text-rendering="geometricPrecision" font-family="'Ubuntu'" shape-rendering="crispEdges" stroke="rgb(0,0,139)">
<line clip-path="url(#clipPath1)" fill="none" x1="479" x2="479" y1="214" y2="206"/>
<rect x="477" y="204" clip-path="url(#clipPath1)" width="5" shape-rendering="auto" height="5" stroke="none"/>
<rect x="477" y="205" clip-path="url(#clipPath1)" width="5" shape-rendering="auto" height="5" stroke="none"/>
<line clip-path="url(#clipPath1)" fill="none" x1="479" x2="479" y1="206" y2="184"/>
<rect x="477" y="182" clip-path="url(#clipPath1)" width="5" shape-rendering="auto" height="5" stroke="none"/>
<line clip-path="url(#clipPath1)" fill="none" x1="479" x2="479" y1="184" y2="169"/>
<rect x="477" y="167" clip-path="url(#clipPath1)" width="5" shape-rendering="auto" height="5" stroke="none"/>
<line clip-path="url(#clipPath1)" fill="none" x1="479" x2="479" y1="169" y2="162"/>
<rect x="477" y="160" clip-path="url(#clipPath1)" width="5" shape-rendering="auto" height="5" stroke="none"/>
<line clip-path="url(#clipPath1)" fill="none" x1="479" x2="480" y1="162" y2="165" shape-rendering="auto"/>
<rect x="478" y="163" clip-path="url(#clipPath1)" width="5" shape-rendering="auto" height="5" stroke="none"/>
<line clip-path="url(#clipPath1)" fill="none" x1="480" x2="480" y1="165" y2="159"/>
<rect x="478" y="157" clip-path="url(#clipPath1)" width="5" shape-rendering="auto" height="5" stroke="none"/>
<line clip-path="url(#clipPath1)" fill="none" x1="480" x2="481" y1="159" y2="159" shape-rendering="auto"/>
<rect x="479" y="157" clip-path="url(#clipPath1)" width="5" shape-rendering="auto" height="5" stroke="none"/>
<line clip-path="url(#clipPath1)" fill="none" x1="481" x2="481" y1="159" y2="141"/>
<rect x="479" y="139" clip-path="url(#clipPath1)" width="5" shape-rendering="auto" height="5" stroke="none"/>
<line clip-path="url(#clipPath1)" fill="none" x1="481" x2="481" y1="141" y2="135"/>
<rect x="479" y="133" clip-path="url(#clipPath1)" width="5" shape-rendering="auto" height="5" stroke="none"/>
<line clip-path="url(#clipPath1)" fill="none" x1="481" x2="481" y1="135" y2="129"/>
<rect x="479" y="127" clip-path="url(#clipPath1)" width="5" shape-rendering="auto" height="5" stroke="none"/>
<line clip-path="url(#clipPath1)" fill="none" x1="481" x2="481" y1="129" y2="112"/>
<rect x="479" y="110" clip-path="url(#clipPath1)" width="5" shape-rendering="auto" height="5" stroke="none"/>
<line clip-path="url(#clipPath1)" fill="none" x1="481" x2="481" y1="112" y2="108"/>
<rect x="479" y="106" clip-path="url(#clipPath1)" width="5" shape-rendering="auto" height="5" stroke="none"/>
<line clip-path="url(#clipPath1)" fill="none" x1="481" x2="481" y1="108" y2="104"/>
<rect x="479" y="102" clip-path="url(#clipPath1)" width="5" shape-rendering="auto" height="5" stroke="none"/>
<line clip-path="url(#clipPath1)" fill="none" x1="481" x2="552" y1="104" y2="126" shape-rendering="auto"/>
<rect x="550" y="124" clip-path="url(#clipPath1)" width="5" shape-rendering="auto" height="5" stroke="none"/>
<line clip-path="url(#clipPath1)" fill="none" x1="552" x2="552" y1="126" y2="124"/>
<rect x="550" y="122" clip-path="url(#clipPath1)" width="5" shape-rendering="auto" height="5" stroke="none"/>
<line clip-path="url(#clipPath1)" fill="none" x1="552" x2="553" y1="124" y2="131" shape-rendering="auto"/>
<rect x="551" y="129" clip-path="url(#clipPath1)" width="5" shape-rendering="auto" height="5" stroke="none"/>
<line clip-path="url(#clipPath1)" fill="none" x1="553" x2="553" y1="131" y2="130"/>
<rect x="551" y="128" clip-path="url(#clipPath1)" width="5" shape-rendering="auto" height="5" stroke="none"/>
<line clip-path="url(#clipPath1)" fill="none" x1="553" x2="553" y1="130" y2="129"/>
<rect x="551" y="127" clip-path="url(#clipPath1)" width="5" shape-rendering="auto" height="5" stroke="none"/>
<line clip-path="url(#clipPath1)" fill="none" x1="553" x2="554" y1="129" y2="126" shape-rendering="auto"/>
<rect x="552" y="124" clip-path="url(#clipPath1)" width="5" shape-rendering="auto" height="5" stroke="none"/>
<line clip-path="url(#clipPath1)" fill="none" x1="554" x2="554" y1="126" y2="124"/>
<rect x="552" y="122" clip-path="url(#clipPath1)" width="5" shape-rendering="auto" height="5" stroke="none"/>
<rect x="552" y="123" clip-path="url(#clipPath1)" width="5" shape-rendering="auto" height="5" stroke="none"/>
<line clip-path="url(#clipPath1)" fill="none" x1="554" x2="554" y1="124" y2="122"/>
<rect x="552" y="120" clip-path="url(#clipPath1)" width="5" shape-rendering="auto" height="5" stroke="none"/>
<line clip-path="url(#clipPath1)" fill="none" x1="554" x2="554" y1="122" y2="119"/>
<rect x="552" y="117" clip-path="url(#clipPath1)" width="5" shape-rendering="auto" height="5" stroke="none"/>
<line clip-path="url(#clipPath1)" fill="none" x1="554" x2="554" y1="119" y2="115"/>
<rect x="552" y="113" clip-path="url(#clipPath1)" width="5" shape-rendering="auto" height="5" stroke="none"/>
<line clip-path="url(#clipPath1)" fill="none" x1="554" x2="554" y1="115" y2="102"/>
<rect x="552" y="100" clip-path="url(#clipPath1)" width="5" shape-rendering="auto" height="5" stroke="none"/>
<line clip-path="url(#clipPath1)" fill="none" x1="554" x2="554" y1="102" y2="99"/>
<rect x="552" y="97" clip-path="url(#clipPath1)" width="5" shape-rendering="auto" height="5" stroke="none"/>
<line clip-path="url(#clipPath1)" fill="none" x1="554" x2="596" y1="99" y2="97" shape-rendering="auto"/>
<rect x="594" y="95" clip-path="url(#clipPath1)" width="5" shape-rendering="auto" height="5" stroke="none"/>
<line clip-path="url(#clipPath1)" fill="none" x1="596" x2="596" y1="97" y2="94"/>
<rect x="594" y="92" clip-path="url(#clipPath1)" width="5" shape-rendering="auto" height="5" stroke="none"/>
<line clip-path="url(#clipPath1)" fill="none" x1="596" x2="596" y1="94" y2="90"/>
<rect x="594" y="88" clip-path="url(#clipPath1)" width="5" shape-rendering="auto" height="5" stroke="none"/>
<line clip-path="url(#clipPath1)" fill="none" x1="596" x2="596" y1="90" y2="77"/>
<rect x="594" y="75" clip-path="url(#clipPath1)" width="5" shape-rendering="auto" height="5" stroke="none"/>
<rect x="594" y="76" clip-path="url(#clipPath1)" width="5" shape-rendering="auto" height="5" stroke="none"/>
<line clip-path="url(#clipPath1)" fill="none" x1="596" x2="597" y1="78" y2="88" shape-rendering="auto"/>
<rect x="595" y="86" clip-path="url(#clipPath1)" width="5" shape-rendering="auto" height="5" stroke="none"/>
<line clip-path="url(#clipPath1)" fill="none" x1="597" x2="625" y1="88" y2="101" shape-rendering="auto"/>
<rect x="623" y="99" clip-path="url(#clipPath1)" width="5" shape-rendering="auto" height="5" stroke="none"/>
<line clip-path="url(#clipPath1)" fill="none" x1="625" x2="625" y1="101" y2="99"/>
<rect x="623" y="97" clip-path="url(#clipPath1)" width="5" shape-rendering="auto" height="5" stroke="none"/>
<line clip-path="url(#clipPath1)" fill="none" x1="625" x2="625" y1="99" y2="97"/>
<rect x="623" y="95" clip-path="url(#clipPath1)" width="5" shape-rendering="auto" height="5" stroke="none"/>
<line clip-path="url(#clipPath1)" fill="none" x1="625" x2="625" y1="97" y2="94"/>
<rect x="623" y="92" clip-path="url(#clipPath1)" width="5" shape-rendering="auto" height="5" stroke="none"/>
<line clip-path="url(#clipPath1)" fill="none" x1="625" x2="625" y1="94" y2="84"/>
<rect x="623" y="82" clip-path="url(#clipPath1)" width="5" shape-rendering="auto" height="5" stroke="none"/>
<line clip-path="url(#clipPath1)" fill="none" x1="625" x2="626" y1="84" y2="82" shape-rendering="auto"/>
<rect x="624" y="80" clip-path="url(#clipPath1)" width="5" shape-rendering="auto" height="5" stroke="none"/>
<line clip-path="url(#clipPath1)" fill="none" x1="626" x2="626" y1="82" y2="89"/>
<rect x="624" y="87" clip-path="url(#clipPath1)" width="5" shape-rendering="auto" height="5" stroke="none"/>
<line clip-path="url(#clipPath1)" fill="none" x1="626" x2="702" y1="89" y2="91" shape-rendering="auto"/>
<rect x="700" y="89" clip-path="url(#clipPath1)" width="5" shape-rendering="auto" height="5" stroke="none"/>
<line clip-path="url(#clipPath1)" fill="none" x1="702" x2="702" y1="91" y2="89"/>
<rect x="700" y="87" clip-path="url(#clipPath1)" width="5" shape-rendering="auto" height="5" stroke="none"/>
<line clip-path="url(#clipPath1)" fill="none" x1="702" x2="702" y1="89" y2="86"/>
<rect x="700" y="84" clip-path="url(#clipPath1)" width="5" shape-rendering="auto" height="5" stroke="none"/>
<rect x="700" y="86" clip-path="url(#clipPath1)" width="5" shape-rendering="auto" height="5" stroke="none"/>
<line clip-path="url(#clipPath1)" fill="none" x1="702" x2="702" y1="86" y2="79"/>
<rect x="700" y="77" clip-path="url(#clipPath1)" width="5" shape-rendering="auto" height="5" stroke="none"/>
<line clip-path="url(#clipPath1)" fill="none" x1="702" x2="702" y1="79" y2="78"/>
<rect x="700" y="76" clip-path="url(#clipPath1)" width="5" shape-rendering="auto" height="5" stroke="none"/>
<rect x="700" y="78" clip-path="url(#clipPath1)" width="5" shape-rendering="auto" height="5" stroke="none"/>
<line clip-path="url(#clipPath1)" fill="none" x1="702" x2="782" y1="80" y2="103" shape-rendering="auto"/>
<rect x="780" y="101" clip-path="url(#clipPath1)" width="5" shape-rendering="auto" height="5" stroke="none"/>
<line clip-path="url(#clipPath1)" fill="none" x1="782" x2="782" y1="103" y2="102"/>
<rect x="780" y="100" clip-path="url(#clipPath1)" width="5" shape-rendering="auto" height="5" stroke="none"/>
<line clip-path="url(#clipPath1)" fill="none" x1="782" x2="782" y1="102" y2="100"/>
<rect x="780" y="98" clip-path="url(#clipPath1)" width="5" shape-rendering="auto" height="5" stroke="none"/>
<line clip-path="url(#clipPath1)" fill="none" x1="782" x2="782" y1="100" y2="98"/>
<rect x="780" y="96" clip-path="url(#clipPath1)" width="5" shape-rendering="auto" height="5" stroke="none"/>
<line clip-path="url(#clipPath1)" fill="none" x1="782" x2="782" y1="98" y2="93"/>
<rect x="780" y="91" clip-path="url(#clipPath1)" width="5" shape-rendering="auto" height="5" stroke="none"/>
<line clip-path="url(#clipPath1)" fill="none" x1="782" x2="782" y1="93" y2="92"/>
<rect x="780" y="90" clip-path="url(#clipPath1)" width="5" shape-rendering="auto" height="5" stroke="none"/>
<line clip-path="url(#clipPath1)" fill="none" x1="782" x2="853" y1="92" y2="97" shape-rendering="auto"/>
<rect x="851" y="95" clip-path="url(#clipPath1)" width="5" shape-rendering="auto" height="5" stroke="none"/>
<line clip-path="url(#clipPath1)" fill="none" x1="853" x2="927" y1="97" y2="97" shape-rendering="auto"/>
<rect x="925" y="95" clip-path="url(#clipPath1)" width="5" shape-rendering="auto" height="5" stroke="none"/>
<rect x="35" y="23" clip-path="url(#clipPath2)" fill="none" width="904" shape-rendering="auto" height="216" stroke="black"/>
</g>
<g text-rendering="geometricPrecision" font-size="13" stroke-linecap="butt">
<line clip-path="url(#clipPath2)" fill="none" x1="35" x2="939" y1="21" y2="21"/>
<line clip-path="url(#clipPath2)" fill="none" x1="35" x2="939" y1="241" y2="241"/>
<text xml:space="preserve" x="487" y="259" clip-path="url(#clipPath2)" stroke="none"/>
<line clip-path="url(#clipPath2)" fill="none" x1="35" x2="35" y1="17" y2="21"/>
<line clip-path="url(#clipPath2)" fill="none" x1="35" x2="35" y1="245" y2="241"/>
<text font-size="11" x="34" y="14" clip-path="url(#clipPath2)" stroke="none" xml:space="preserve">0</text>
<text font-size="11" x="34" y="257" clip-path="url(#clipPath2)" stroke="none" xml:space="preserve">0</text>
<line clip-path="url(#clipPath2)" fill="none" x1="71" x2="71" y1="19" y2="21"/>
<line clip-path="url(#clipPath2)" fill="none" x1="71" x2="71" y1="243" y2="241"/>
<line clip-path="url(#clipPath2)" fill="none" x1="108" x2="108" y1="17" y2="21"/>
<line clip-path="url(#clipPath2)" fill="none" x1="108" x2="108" y1="245" y2="241"/>
<text font-size="11" x="102" y="14" clip-path="url(#clipPath2)" stroke="none" xml:space="preserve">200</text>
<text font-size="11" x="102" y="257" clip-path="url(#clipPath2)" stroke="none" xml:space="preserve">200</text>
<line clip-path="url(#clipPath2)" fill="none" x1="145" x2="145" y1="19" y2="21"/>
<line clip-path="url(#clipPath2)" fill="none" x1="145" x2="145" y1="243" y2="241"/>
<line clip-path="url(#clipPath2)" fill="none" x1="182" x2="182" y1="17" y2="21"/>
<line clip-path="url(#clipPath2)" fill="none" x1="182" x2="182" y1="245" y2="241"/>
<text font-size="11" x="176" y="14" clip-path="url(#clipPath2)" stroke="none" xml:space="preserve">400</text>
<text font-size="11" x="176" y="257" clip-path="url(#clipPath2)" stroke="none" xml:space="preserve">400</text>
<line clip-path="url(#clipPath2)" fill="none" x1="219" x2="219" y1="19" y2="21"/>
<line clip-path="url(#clipPath2)" fill="none" x1="219" x2="219" y1="243" y2="241"/>
<line clip-path="url(#clipPath2)" fill="none" x1="256" x2="256" y1="17" y2="21"/>
<line clip-path="url(#clipPath2)" fill="none" x1="256" x2="256" y1="245" y2="241"/>
<text font-size="11" x="250" y="14" clip-path="url(#clipPath2)" stroke="none" xml:space="preserve">600</text>
<text font-size="11" x="250" y="257" clip-path="url(#clipPath2)" stroke="none" xml:space="preserve">600</text>
<line clip-path="url(#clipPath2)" fill="none" x1="292" x2="292" y1="19" y2="21"/>
<line clip-path="url(#clipPath2)" fill="none" x1="292" x2="292" y1="243" y2="241"/>
<line clip-path="url(#clipPath2)" fill="none" x1="329" x2="329" y1="17" y2="21"/>
<line clip-path="url(#clipPath2)" fill="none" x1="329" x2="329" y1="245" y2="241"/>
<text font-size="11" x="323" y="14" clip-path="url(#clipPath2)" stroke="none" xml:space="preserve">800</text>
<text font-size="11" x="323" y="257" clip-path="url(#clipPath2)" stroke="none" xml:space="preserve">800</text>
<line clip-path="url(#clipPath2)" fill="none" x1="366" x2="366" y1="19" y2="21"/>
<line clip-path="url(#clipPath2)" fill="none" x1="366" x2="366" y1="243" y2="241"/>
<line clip-path="url(#clipPath2)" fill="none" x1="403" x2="403" y1="17" y2="21"/>
<line clip-path="url(#clipPath2)" fill="none" x1="403" x2="403" y1="245" y2="241"/>
<text font-size="11" x="394" y="14" clip-path="url(#clipPath2)" stroke="none" xml:space="preserve">1000</text>
<text font-size="11" x="394" y="257" clip-path="url(#clipPath2)" stroke="none" xml:space="preserve">1000</text>
<line clip-path="url(#clipPath2)" fill="none" x1="440" x2="440" y1="19" y2="21"/>
<line clip-path="url(#clipPath2)" fill="none" x1="440" x2="440" y1="243" y2="241"/>
<line clip-path="url(#clipPath2)" fill="none" x1="477" x2="477" y1="17" y2="21"/>
<line clip-path="url(#clipPath2)" fill="none" x1="477" x2="477" y1="245" y2="241"/>
<text font-size="11" x="468" y="14" clip-path="url(#clipPath2)" stroke="none" xml:space="preserve">1200</text>
<text font-size="11" x="468" y="257" clip-path="url(#clipPath2)" stroke="none" xml:space="preserve">1200</text>
<line clip-path="url(#clipPath2)" fill="none" x1="514" x2="514" y1="19" y2="21"/>
<line clip-path="url(#clipPath2)" fill="none" x1="514" x2="514" y1="243" y2="241"/>
<line clip-path="url(#clipPath2)" fill="none" x1="550" x2="550" y1="17" y2="21"/>
<line clip-path="url(#clipPath2)" fill="none" x1="550" x2="550" y1="245" y2="241"/>
<text font-size="11" x="541" y="14" clip-path="url(#clipPath2)" stroke="none" xml:space="preserve">1400</text>
<text font-size="11" x="541" y="257" clip-path="url(#clipPath2)" stroke="none" xml:space="preserve">1400</text>
<line clip-path="url(#clipPath2)" fill="none" x1="587" x2="587" y1="19" y2="21"/>
<line clip-path="url(#clipPath2)" fill="none" x1="587" x2="587" y1="243" y2="241"/>
<line clip-path="url(#clipPath2)" fill="none" x1="624" x2="624" y1="17" y2="21"/>
<line clip-path="url(#clipPath2)" fill="none" x1="624" x2="624" y1="245" y2="241"/>
<text font-size="11" x="615" y="14" clip-path="url(#clipPath2)" stroke="none" xml:space="preserve">1600</text>
<text font-size="11" x="615" y="257" clip-path="url(#clipPath2)" stroke="none" xml:space="preserve">1600</text>
<line clip-path="url(#clipPath2)" fill="none" x1="661" x2="661" y1="19" y2="21"/>
<line clip-path="url(#clipPath2)" fill="none" x1="661" x2="661" y1="243" y2="241"/>
<line clip-path="url(#clipPath2)" fill="none" x1="698" x2="698" y1="17" y2="21"/>
<line clip-path="url(#clipPath2)" fill="none" x1="698" x2="698" y1="245" y2="241"/>
<text font-size="11" x="689" y="14" clip-path="url(#clipPath2)" stroke="none" xml:space="preserve">1800</text>
<text font-size="11" x="689" y="257" clip-path="url(#clipPath2)" stroke="none" xml:space="preserve">1800</text>
<line clip-path="url(#clipPath2)" fill="none" x1="735" x2="735" y1="19" y2="21"/>
<line clip-path="url(#clipPath2)" fill="none" x1="735" x2="735" y1="243" y2="241"/>
<line clip-path="url(#clipPath2)" fill="none" x1="771" x2="771" y1="17" y2="21"/>
<line clip-path="url(#clipPath2)" fill="none" x1="771" x2="771" y1="245" y2="241"/>
<text font-size="11" x="762" y="14" clip-path="url(#clipPath2)" stroke="none" xml:space="preserve">2000</text>
<text font-size="11" x="762" y="257" clip-path="url(#clipPath2)" stroke="none" xml:space="preserve">2000</text>
<line clip-path="url(#clipPath2)" fill="none" x1="808" x2="808" y1="19" y2="21"/>
<line clip-path="url(#clipPath2)" fill="none" x1="808" x2="808" y1="243" y2="241"/>
<line clip-path="url(#clipPath2)" fill="none" x1="845" x2="845" y1="17" y2="21"/>
<line clip-path="url(#clipPath2)" fill="none" x1="845" x2="845" y1="245" y2="241"/>
<text font-size="11" x="836" y="14" clip-path="url(#clipPath2)" stroke="none" xml:space="preserve">2200</text>
<text font-size="11" x="836" y="257" clip-path="url(#clipPath2)" stroke="none" xml:space="preserve">2200</text>
<line clip-path="url(#clipPath2)" fill="none" x1="882" x2="882" y1="19" y2="21"/>
<line clip-path="url(#clipPath2)" fill="none" x1="882" x2="882" y1="243" y2="241"/>
<line clip-path="url(#clipPath2)" fill="none" x1="919" x2="919" y1="17" y2="21"/>
<line clip-path="url(#clipPath2)" fill="none" x1="919" x2="919" y1="245" y2="241"/>
<text font-size="11" x="910" y="14" clip-path="url(#clipPath2)" stroke="none" xml:space="preserve">2400</text>
<text font-size="11" x="910" y="257" clip-path="url(#clipPath2)" stroke="none" xml:space="preserve">2400</text>
<line clip-path="url(#clipPath2)" fill="none" x1="33" x2="33" y1="23" y2="239"/>
<line clip-path="url(#clipPath2)" fill="none" x1="941" x2="941" y1="23" y2="239"/>
<line clip-path="url(#clipPath2)" fill="none" x1="29" x2="33" y1="239" y2="239"/>
<line clip-path="url(#clipPath2)" fill="none" x1="945" x2="941" y1="239" y2="239"/>
<text font-size="11" x="13" y="244" clip-path="url(#clipPath2)" stroke="none" xml:space="preserve">0.0</text>
<text font-size="11" x="948" y="244" clip-path="url(#clipPath2)" stroke="none" xml:space="preserve">0.0</text>
<line clip-path="url(#clipPath2)" fill="none" x1="31" x2="33" y1="214" y2="214"/>
<line clip-path="url(#clipPath2)" fill="none" x1="943" x2="941" y1="214" y2="214"/>
<line clip-path="url(#clipPath2)" fill="none" x1="31" x2="33" y1="190" y2="190"/>
<line clip-path="url(#clipPath2)" fill="none" x1="943" x2="941" y1="190" y2="190"/>
<line clip-path="url(#clipPath2)" fill="none" x1="31" x2="33" y1="166" y2="166"/>
<line clip-path="url(#clipPath2)" fill="none" x1="943" x2="941" y1="166" y2="166"/>
<line clip-path="url(#clipPath2)" fill="none" x1="31" x2="33" y1="142" y2="142"/>
<line clip-path="url(#clipPath2)" fill="none" x1="943" x2="941" y1="142" y2="142"/>
<line clip-path="url(#clipPath2)" fill="none" x1="29" x2="33" y1="118" y2="118"/>
<line clip-path="url(#clipPath2)" fill="none" x1="945" x2="941" y1="118" y2="118"/>
<text font-size="11" x="8" y="123" clip-path="url(#clipPath2)" stroke="none" xml:space="preserve">0.05</text>
<text font-size="11" x="948" y="123" clip-path="url(#clipPath2)" stroke="none" xml:space="preserve">0.05</text>
<line clip-path="url(#clipPath2)" fill="none" x1="31" x2="33" y1="94" y2="94"/>
<line clip-path="url(#clipPath2)" fill="none" x1="943" x2="941" y1="94" y2="94"/>
<line clip-path="url(#clipPath2)" fill="none" x1="31" x2="33" y1="70" y2="70"/>
<line clip-path="url(#clipPath2)" fill="none" x1="943" x2="941" y1="70" y2="70"/>
<line clip-path="url(#clipPath2)" fill="none" x1="31" x2="33" y1="46" y2="46"/>
<line clip-path="url(#clipPath2)" fill="none" x1="943" x2="941" y1="46" y2="46"/>
</g>
</g>
</svg>
