<?xml version="1.0" encoding="UTF-8"?><svg xmlns="http://www.w3.org/2000/svg" xmlns:xlink="http://www.w3.org/1999/xlink" stroke-dasharray="none" shape-rendering="auto" font-family="'Dialog'" width="804" text-rendering="auto" fill-opacity="1" contentScriptType="text/ecmascript" color-interpolation="auto" color-rendering="auto" preserveAspectRatio="xMidYMid meet" font-size="12" fill="black" stroke="black" image-rendering="auto" stroke-miterlimit="10" zoomAndPan="magnify" version="1.0" stroke-linecap="square" stroke-linejoin="miter" contentStyleType="text/css" font-style="normal" height="187" stroke-width="1" stroke-dashoffset="0" font-weight="normal" stroke-opacity="1">
<!--Generated by the Batik Graphics2D SVG Generator-->
<defs id="genericDefs"/>
<g>
<defs id="defs1">
<clipPath clipPathUnits="userSpaceOnUse" id="clipPath1">
<path d="M31 22 L773 22 L773 165 L31 165 L31 22 Z"/>
</clipPath>
<clipPath clipPathUnits="userSpaceOnUse" id="clipPath2">
<path d="M-1 -1 L805 -1 L805 188 L-1 188 L-1 -1 Z"/>
</clipPath>
</defs>
<g font-size="15" fill="white" text-rendering="geometricPrecision" font-family="'Ubuntu'" stroke-linejoin="round" stroke="white" stroke-width="0" stroke-miterlimit="0">
<rect x="32" y="23" clip-path="url(#clipPath1)" width="740" height="141" stroke="none"/>
</g>
<g font-size="15" stroke-linecap="butt" fill="rgb(204,204,204)" text-rendering="geometricPrecision" font-family="'Ubuntu'" stroke-dasharray="3,3" stroke="rgb(204,204,204)">
<line clip-path="url(#clipPath1)" fill="none" x1="32" x2="32" y1="23" y2="164"/>
<line clip-path="url(#clipPath1)" fill="none" x1="85" x2="85" y1="23" y2="164"/>
<line clip-path="url(#clipPath1)" fill="none" x1="138" x2="138" y1="23" y2="164"/>
<line clip-path="url(#clipPath1)" fill="none" x1="191" x2="191" y1="23" y2="164"/>
<line clip-path="url(#clipPath1)" fill="none" x1="244" x2="244" y1="23" y2="164"/>
<line clip-path="url(#clipPath1)" fill="none" x1="297" x2="297" y1="23" y2="164"/>
<line clip-path="url(#clipPath1)" fill="none" x1="350" x2="350" y1="23" y2="164"/>
<line clip-path="url(#clipPath1)" fill="none" x1="403" x2="403" y1="23" y2="164"/>
<line clip-path="url(#clipPath1)" fill="none" x1="457" x2="457" y1="23" y2="164"/>
<line clip-path="url(#clipPath1)" fill="none" x1="510" x2="510" y1="23" y2="164"/>
<line clip-path="url(#clipPath1)" fill="none" x1="563" x2="563" y1="23" y2="164"/>
<line clip-path="url(#clipPath1)" fill="none" x1="616" x2="616" y1="23" y2="164"/>
<line clip-path="url(#clipPath1)" fill="none" x1="669" x2="669" y1="23" y2="164"/>
<line clip-path="url(#clipPath1)" fill="none" x1="722" x2="722" y1="23" y2="164"/>
<line clip-path="url(#clipPath1)" fill="none" x1="32" x2="772" y1="164" y2="164"/>
<line clip-path="url(#clipPath1)" fill="none" x1="32" x2="772" y1="69" y2="69"/>
<rect x="271" y="156" clip-path="url(#clipPath1)" fill="rgb(0,0,139)" width="5" height="5" stroke="none"/>
</g>
<g font-size="15" stroke-linecap="butt" fill="rgb(0,0,139)" text-rendering="geometricPrecision" font-family="'Ubuntu'" shape-rendering="crispEdges" stroke="rgb(0,0,139)">
<line clip-path="url(#clipPath1)" fill="none" x1="273" x2="273" y1="158" y2="156"/>
<rect x="271" y="154" clip-path="url(#clipPath1)" width="5" shape-rendering="auto" height="5" stroke="none"/>
<line clip-path="url(#clipPath1)" fill="none" x1="273" x2="273" y1="156" y2="150"/>
<rect x="271" y="148" clip-path="url(#clipPath1)" width="5" shape-rendering="auto" height="5" stroke="none"/>
<line clip-path="url(#clipPath1)" fill="none" x1="273" x2="274" y1="150" y2="148" shape-rendering="auto"/>
<rect x="272" y="146" clip-path="url(#clipPath1)" width="5" shape-rendering="auto" height="5" stroke="none"/>
<line clip-path="url(#clipPath1)" fill="none" x1="274" x2="274" y1="148" y2="147"/>
<rect x="272" y="145" clip-path="url(#clipPath1)" width="5" shape-rendering="auto" height="5" stroke="none"/>
<line clip-path="url(#clipPath1)" fill="none" x1="274" x2="274" y1="147" y2="145"/>
<rect x="272" y="143" clip-path="url(#clipPath1)" width="5" shape-rendering="auto" height="5" stroke="none"/>
<line clip-path="url(#clipPath1)" fill="none" x1="274" x2="274" y1="145" y2="143"/>
<rect x="272" y="141" clip-path="url(#clipPath1)" width="5" shape-rendering="auto" height="5" stroke="none"/>
<line clip-path="url(#clipPath1)" fill="none" x1="274" x2="274" y1="143" y2="141"/>
<rect x="272" y="139" clip-path="url(#clipPath1)" width="5" shape-rendering="auto" height="5" stroke="none"/>
<line clip-path="url(#clipPath1)" fill="none" x1="274" x2="301" y1="141" y2="141" shape-rendering="auto"/>
<rect x="299" y="139" clip-path="url(#clipPath1)" width="5" shape-rendering="auto" height="5" stroke="none"/>
<line clip-path="url(#clipPath1)" fill="none" x1="301" x2="301" y1="141" y2="139"/>
<rect x="299" y="137" clip-path="url(#clipPath1)" width="5" shape-rendering="auto" height="5" stroke="none"/>
<line clip-path="url(#clipPath1)" fill="none" x1="301" x2="327" y1="139" y2="137" shape-rendering="auto"/>
<rect x="325" y="135" clip-path="url(#clipPath1)" width="5" shape-rendering="auto" height="5" stroke="none"/>
<line clip-path="url(#clipPath1)" fill="none" x1="327" x2="352" y1="137" y2="135" shape-rendering="auto"/>
<rect x="350" y="133" clip-path="url(#clipPath1)" width="5" shape-rendering="auto" height="5" stroke="none"/>
<line clip-path="url(#clipPath1)" fill="none" x1="352" x2="352" y1="135" y2="133"/>
<rect x="350" y="131" clip-path="url(#clipPath1)" width="5" shape-rendering="auto" height="5" stroke="none"/>
<line clip-path="url(#clipPath1)" fill="none" x1="352" x2="353" y1="133" y2="131" shape-rendering="auto"/>
<rect x="351" y="129" clip-path="url(#clipPath1)" width="5" shape-rendering="auto" height="5" stroke="none"/>
<line clip-path="url(#clipPath1)" fill="none" x1="353" x2="353" y1="131" y2="130"/>
<rect x="351" y="128" clip-path="url(#clipPath1)" width="5" shape-rendering="auto" height="5" stroke="none"/>
<line clip-path="url(#clipPath1)" fill="none" x1="353" x2="353" y1="130" y2="128"/>
<rect x="351" y="126" clip-path="url(#clipPath1)" width="5" shape-rendering="auto" height="5" stroke="none"/>
<line clip-path="url(#clipPath1)" fill="none" x1="353" x2="353" y1="128" y2="126"/>
<rect x="351" y="124" clip-path="url(#clipPath1)" width="5" shape-rendering="auto" height="5" stroke="none"/>
<line clip-path="url(#clipPath1)" fill="none" x1="353" x2="378" y1="126" y2="124" shape-rendering="auto"/>
<rect x="376" y="122" clip-path="url(#clipPath1)" width="5" shape-rendering="auto" height="5" stroke="none"/>
<line clip-path="url(#clipPath1)" fill="none" x1="378" x2="379" y1="124" y2="122" shape-rendering="auto"/>
<rect x="377" y="120" clip-path="url(#clipPath1)" width="5" shape-rendering="auto" height="5" stroke="none"/>
<line clip-path="url(#clipPath1)" fill="none" x1="379" x2="379" y1="122" y2="120"/>
<rect x="377" y="118" clip-path="url(#clipPath1)" width="5" shape-rendering="auto" height="5" stroke="none"/>
<line clip-path="url(#clipPath1)" fill="none" x1="379" x2="379" y1="120" y2="118"/>
<rect x="377" y="116" clip-path="url(#clipPath1)" width="5" shape-rendering="auto" height="5" stroke="none"/>
<line clip-path="url(#clipPath1)" fill="none" x1="379" x2="379" y1="118" y2="116"/>
<rect x="377" y="114" clip-path="url(#clipPath1)" width="5" shape-rendering="auto" height="5" stroke="none"/>
<line clip-path="url(#clipPath1)" fill="none" x1="379" x2="379" y1="116" y2="114"/>
<rect x="377" y="112" clip-path="url(#clipPath1)" width="5" shape-rendering="auto" height="5" stroke="none"/>
<line clip-path="url(#clipPath1)" fill="none" x1="379" x2="379" y1="114" y2="113"/>
<rect x="377" y="111" clip-path="url(#clipPath1)" width="5" shape-rendering="auto" height="5" stroke="none"/>
<line clip-path="url(#clipPath1)" fill="none" x1="379" x2="405" y1="113" y2="111" shape-rendering="auto"/>
<rect x="403" y="109" clip-path="url(#clipPath1)" width="5" shape-rendering="auto" height="5" stroke="none"/>
<line clip-path="url(#clipPath1)" fill="none" x1="405" x2="405" y1="111" y2="109"/>
<rect x="403" y="107" clip-path="url(#clipPath1)" width="5" shape-rendering="auto" height="5" stroke="none"/>
<line clip-path="url(#clipPath1)" fill="none" x1="405" x2="405" y1="109" y2="107"/>
<rect x="403" y="105" clip-path="url(#clipPath1)" width="5" shape-rendering="auto" height="5" stroke="none"/>
<line clip-path="url(#clipPath1)" fill="none" x1="405" x2="406" y1="107" y2="105" shape-rendering="auto"/>
<rect x="404" y="103" clip-path="url(#clipPath1)" width="5" shape-rendering="auto" height="5" stroke="none"/>
<line clip-path="url(#clipPath1)" fill="none" x1="406" x2="406" y1="105" y2="103"/>
<rect x="404" y="101" clip-path="url(#clipPath1)" width="5" shape-rendering="auto" height="5" stroke="none"/>
<line clip-path="url(#clipPath1)" fill="none" x1="406" x2="406" y1="103" y2="101"/>
<rect x="404" y="99" clip-path="url(#clipPath1)" width="5" shape-rendering="auto" height="5" stroke="none"/>
<line clip-path="url(#clipPath1)" fill="none" x1="406" x2="406" y1="101" y2="99"/>
<rect x="404" y="97" clip-path="url(#clipPath1)" width="5" shape-rendering="auto" height="5" stroke="none"/>
<line clip-path="url(#clipPath1)" fill="none" x1="406" x2="406" y1="99" y2="97"/>
<rect x="404" y="95" clip-path="url(#clipPath1)" width="5" shape-rendering="auto" height="5" stroke="none"/>
<line clip-path="url(#clipPath1)" fill="none" x1="406" x2="436" y1="97" y2="96" shape-rendering="auto"/>
<rect x="434" y="94" clip-path="url(#clipPath1)" width="5" shape-rendering="auto" height="5" stroke="none"/>
<line clip-path="url(#clipPath1)" fill="none" x1="436" x2="436" y1="96" y2="94"/>
<rect x="434" y="92" clip-path="url(#clipPath1)" width="5" shape-rendering="auto" height="5" stroke="none"/>
<line clip-path="url(#clipPath1)" fill="none" x1="436" x2="437" y1="94" y2="94" shape-rendering="auto"/>
<rect x="435" y="92" clip-path="url(#clipPath1)" width="5" shape-rendering="auto" height="5" stroke="none"/>
<line clip-path="url(#clipPath1)" fill="none" x1="437" x2="512" y1="94" y2="92" shape-rendering="auto"/>
<rect x="510" y="90" clip-path="url(#clipPath1)" width="5" shape-rendering="auto" height="5" stroke="none"/>
<line clip-path="url(#clipPath1)" fill="none" x1="512" x2="762" y1="92" y2="82" shape-rendering="auto"/>
<rect x="760" y="80" clip-path="url(#clipPath1)" width="5" shape-rendering="auto" height="5" stroke="none"/>
<line clip-path="url(#clipPath1)" fill="none" x1="762" x2="762" y1="82" y2="77"/>
<rect x="760" y="75" clip-path="url(#clipPath1)" width="5" shape-rendering="auto" height="5" stroke="none"/>
<line clip-path="url(#clipPath1)" fill="none" x1="762" x2="762" y1="77" y2="75"/>
<rect x="760" y="73" clip-path="url(#clipPath1)" width="5" shape-rendering="auto" height="5" stroke="none"/>
<line clip-path="url(#clipPath1)" fill="none" x1="762" x2="762" y1="75" y2="69"/>
<rect x="760" y="67" clip-path="url(#clipPath1)" width="5" shape-rendering="auto" height="5" stroke="none"/>
<line clip-path="url(#clipPath1)" fill="none" x1="762" x2="762" y1="69" y2="67"/>
<rect x="760" y="65" clip-path="url(#clipPath1)" width="5" shape-rendering="auto" height="5" stroke="none"/>
<line clip-path="url(#clipPath1)" fill="none" x1="762" x2="762" y1="67" y2="65"/>
<rect x="760" y="63" clip-path="url(#clipPath1)" width="5" shape-rendering="auto" height="5" stroke="none"/>
<line clip-path="url(#clipPath1)" fill="none" x1="762" x2="762" y1="65" y2="63"/>
<rect x="760" y="61" clip-path="url(#clipPath1)" width="5" shape-rendering="auto" height="5" stroke="none"/>
<line clip-path="url(#clipPath1)" fill="none" x1="762" x2="762" y1="63" y2="62"/>
<rect x="760" y="60" clip-path="url(#clipPath1)" width="5" shape-rendering="auto" height="5" stroke="none"/>
<line clip-path="url(#clipPath1)" fill="none" x1="762" x2="762" y1="62" y2="60"/>
<rect x="760" y="58" clip-path="url(#clipPath1)" width="5" shape-rendering="auto" height="5" stroke="none"/>
<line clip-path="url(#clipPath1)" fill="none" x1="762" x2="762" y1="60" y2="58"/>
<rect x="760" y="56" clip-path="url(#clipPath1)" width="5" shape-rendering="auto" height="5" stroke="none"/>
<rect x="32" y="23" clip-path="url(#clipPath2)" fill="none" width="740" shape-rendering="auto" height="141" stroke="black"/>
</g>
<g text-rendering="geometricPrecision" font-size="13" stroke-linecap="butt">
<line clip-path="url(#clipPath2)" fill="none" x1="32" x2="772" y1="21" y2="21"/>
<line clip-path="url(#clipPath2)" fill="none" x1="32" x2="772" y1="166" y2="166"/>
<text xml:space="preserve" x="402" y="184" clip-path="url(#clipPath2)" stroke="none"/>
<line clip-path="url(#clipPath2)" fill="none" x1="32" x2="32" y1="17" y2="21"/>
<line clip-path="url(#clipPath2)" fill="none" x1="32" x2="32" y1="170" y2="166"/>
<text font-size="11" x="31" y="14" clip-path="url(#clipPath2)" stroke="none" xml:space="preserve">0</text>
<text font-size="11" x="31" y="182" clip-path="url(#clipPath2)" stroke="none" xml:space="preserve">0</text>
<line clip-path="url(#clipPath2)" fill="none" x1="58" x2="58" y1="19" y2="21"/>
<line clip-path="url(#clipPath2)" fill="none" x1="58" x2="58" y1="168" y2="166"/>
<line clip-path="url(#clipPath2)" fill="none" x1="85" x2="85" y1="17" y2="21"/>
<line clip-path="url(#clipPath2)" fill="none" x1="85" x2="85" y1="170" y2="166"/>
<text font-size="11" x="79" y="14" clip-path="url(#clipPath2)" stroke="none" xml:space="preserve">200</text>
<text font-size="11" x="79" y="182" clip-path="url(#clipPath2)" stroke="none" xml:space="preserve">200</text>
<line clip-path="url(#clipPath2)" fill="none" x1="111" x2="111" y1="19" y2="21"/>
<line clip-path="url(#clipPath2)" fill="none" x1="111" x2="111" y1="168" y2="166"/>
<line clip-path="url(#clipPath2)" fill="none" x1="138" x2="138" y1="17" y2="21"/>
<line clip-path="url(#clipPath2)" fill="none" x1="138" x2="138" y1="170" y2="166"/>
<text font-size="11" x="132" y="14" clip-path="url(#clipPath2)" stroke="none" xml:space="preserve">400</text>
<text font-size="11" x="132" y="182" clip-path="url(#clipPath2)" stroke="none" xml:space="preserve">400</text>
<line clip-path="url(#clipPath2)" fill="none" x1="164" x2="164" y1="19" y2="21"/>
<line clip-path="url(#clipPath2)" fill="none" x1="164" x2="164" y1="168" y2="166"/>
<line clip-path="url(#clipPath2)" fill="none" x1="191" x2="191" y1="17" y2="21"/>
<line clip-path="url(#clipPath2)" fill="none" x1="191" x2="191" y1="170" y2="166"/>
<text font-size="11" x="185" y="14" clip-path="url(#clipPath2)" stroke="none" xml:space="preserve">600</text>
<text font-size="11" x="185" y="182" clip-path="url(#clipPath2)" stroke="none" xml:space="preserve">600</text>
<line clip-path="url(#clipPath2)" fill="none" x1="217" x2="217" y1="19" y2="21"/>
<line clip-path="url(#clipPath2)" fill="none" x1="217" x2="217" y1="168" y2="166"/>
<line clip-path="url(#clipPath2)" fill="none" x1="244" x2="244" y1="17" y2="21"/>
<line clip-path="url(#clipPath2)" fill="none" x1="244" x2="244" y1="170" y2="166"/>
<text font-size="11" x="238" y="14" clip-path="url(#clipPath2)" stroke="none" xml:space="preserve">800</text>
<text font-size="11" x="238" y="182" clip-path="url(#clipPath2)" stroke="none" xml:space="preserve">800</text>
<line clip-path="url(#clipPath2)" fill="none" x1="271" x2="271" y1="19" y2="21"/>
<line clip-path="url(#clipPath2)" fill="none" x1="271" x2="271" y1="168" y2="166"/>
<line clip-path="url(#clipPath2)" fill="none" x1="297" x2="297" y1="17" y2="21"/>
<line clip-path="url(#clipPath2)" fill="none" x1="297" x2="297" y1="170" y2="166"/>
<text font-size="11" x="288" y="14" clip-path="url(#clipPath2)" stroke="none" xml:space="preserve">1000</text>
<text font-size="11" x="288" y="182" clip-path="url(#clipPath2)" stroke="none" xml:space="preserve">1000</text>
<line clip-path="url(#clipPath2)" fill="none" x1="324" x2="324" y1="19" y2="21"/>
<line clip-path="url(#clipPath2)" fill="none" x1="324" x2="324" y1="168" y2="166"/>
<line clip-path="url(#clipPath2)" fill="none" x1="350" x2="350" y1="17" y2="21"/>
<line clip-path="url(#clipPath2)" fill="none" x1="350" x2="350" y1="170" y2="166"/>
<text font-size="11" x="341" y="14" clip-path="url(#clipPath2)" stroke="none" xml:space="preserve">1200</text>
<text font-size="11" x="341" y="182" clip-path="url(#clipPath2)" stroke="none" xml:space="preserve">1200</text>
<line clip-path="url(#clipPath2)" fill="none" x1="377" x2="377" y1="19" y2="21"/>
<line clip-path="url(#clipPath2)" fill="none" x1="377" x2="377" y1="168" y2="166"/>
<line clip-path="url(#clipPath2)" fill="none" x1="403" x2="403" y1="17" y2="21"/>
<line clip-path="url(#clipPath2)" fill="none" x1="403" x2="403" y1="170" y2="166"/>
<text font-size="11" x="394" y="14" clip-path="url(#clipPath2)" stroke="none" xml:space="preserve">1400</text>
<text font-size="11" x="394" y="182" clip-path="url(#clipPath2)" stroke="none" xml:space="preserve">1400</text>
<line clip-path="url(#clipPath2)" fill="none" x1="430" x2="430" y1="19" y2="21"/>
<line clip-path="url(#clipPath2)" fill="none" x1="430" x2="430" y1="168" y2="166"/>
<line clip-path="url(#clipPath2)" fill="none" x1="457" x2="457" y1="17" y2="21"/>
<line clip-path="url(#clipPath2)" fill="none" x1="457" x2="457" y1="170" y2="166"/>
<text font-size="11" x="448" y="14" clip-path="url(#clipPath2)" stroke="none" xml:space="preserve">1600</text>
<text font-size="11" x="448" y="182" clip-path="url(#clipPath2)" stroke="none" xml:space="preserve">1600</text>
<line clip-path="url(#clipPath2)" fill="none" x1="483" x2="483" y1="19" y2="21"/>
<line clip-path="url(#clipPath2)" fill="none" x1="483" x2="483" y1="168" y2="166"/>
<line clip-path="url(#clipPath2)" fill="none" x1="510" x2="510" y1="17" y2="21"/>
<line clip-path="url(#clipPath2)" fill="none" x1="510" x2="510" y1="170" y2="166"/>
<text font-size="11" x="501" y="14" clip-path="url(#clipPath2)" stroke="none" xml:space="preserve">1800</text>
<text font-size="11" x="501" y="182" clip-path="url(#clipPath2)" stroke="none" xml:space="preserve">1800</text>
<line clip-path="url(#clipPath2)" fill="none" x1="536" x2="536" y1="19" y2="21"/>
<line clip-path="url(#clipPath2)" fill="none" x1="536" x2="536" y1="168" y2="166"/>
<line clip-path="url(#clipPath2)" fill="none" x1="563" x2="563" y1="17" y2="21"/>
<line clip-path="url(#clipPath2)" fill="none" x1="563" x2="563" y1="170" y2="166"/>
<text font-size="11" x="554" y="14" clip-path="url(#clipPath2)" stroke="none" xml:space="preserve">2000</text>
<text font-size="11" x="554" y="182" clip-path="url(#clipPath2)" stroke="none" xml:space="preserve">2000</text>
<line clip-path="url(#clipPath2)" fill="none" x1="589" x2="589" y1="19" y2="21"/>
<line clip-path="url(#clipPath2)" fill="none" x1="589" x2="589" y1="168" y2="166"/>
<line clip-path="url(#clipPath2)" fill="none" x1="616" x2="616" y1="17" y2="21"/>
<line clip-path="url(#clipPath2)" fill="none" x1="616" x2="616" y1="170" y2="166"/>
<text font-size="11" x="607" y="14" clip-path="url(#clipPath2)" stroke="none" xml:space="preserve">2200</text>
<text font-size="11" x="607" y="182" clip-path="url(#clipPath2)" stroke="none" xml:space="preserve">2200</text>
<line clip-path="url(#clipPath2)" fill="none" x1="643" x2="643" y1="19" y2="21"/>
<line clip-path="url(#clipPath2)" fill="none" x1="643" x2="643" y1="168" y2="166"/>
<line clip-path="url(#clipPath2)" fill="none" x1="669" x2="669" y1="17" y2="21"/>
<line clip-path="url(#clipPath2)" fill="none" x1="669" x2="669" y1="170" y2="166"/>
<text font-size="11" x="660" y="14" clip-path="url(#clipPath2)" stroke="none" xml:space="preserve">2400</text>
<text font-size="11" x="660" y="182" clip-path="url(#clipPath2)" stroke="none" xml:space="preserve">2400</text>
<line clip-path="url(#clipPath2)" fill="none" x1="696" x2="696" y1="19" y2="21"/>
<line clip-path="url(#clipPath2)" fill="none" x1="696" x2="696" y1="168" y2="166"/>
<line clip-path="url(#clipPath2)" fill="none" x1="722" x2="722" y1="17" y2="21"/>
<line clip-path="url(#clipPath2)" fill="none" x1="722" x2="722" y1="170" y2="166"/>
<text font-size="11" x="713" y="14" clip-path="url(#clipPath2)" stroke="none" xml:space="preserve">2600</text>
<text font-size="11" x="713" y="182" clip-path="url(#clipPath2)" stroke="none" xml:space="preserve">2600</text>
<line clip-path="url(#clipPath2)" fill="none" x1="749" x2="749" y1="19" y2="21"/>
<line clip-path="url(#clipPath2)" fill="none" x1="749" x2="749" y1="168" y2="166"/>
<line clip-path="url(#clipPath2)" fill="none" x1="30" x2="30" y1="23" y2="164"/>
<line clip-path="url(#clipPath2)" fill="none" x1="774" x2="774" y1="23" y2="164"/>
<line clip-path="url(#clipPath2)" fill="none" x1="26" x2="30" y1="164" y2="164"/>
<line clip-path="url(#clipPath2)" fill="none" x1="778" x2="774" y1="164" y2="164"/>
<text font-size="11" x="20" y="169" clip-path="url(#clipPath2)" stroke="none" xml:space="preserve">0</text>
<text font-size="11" x="781" y="169" clip-path="url(#clipPath2)" stroke="none" xml:space="preserve">0</text>
<line clip-path="url(#clipPath2)" fill="none" x1="28" x2="30" y1="145" y2="145"/>
<line clip-path="url(#clipPath2)" fill="none" x1="776" x2="774" y1="145" y2="145"/>
<line clip-path="url(#clipPath2)" fill="none" x1="28" x2="30" y1="126" y2="126"/>
<line clip-path="url(#clipPath2)" fill="none" x1="776" x2="774" y1="126" y2="126"/>
<line clip-path="url(#clipPath2)" fill="none" x1="28" x2="30" y1="107" y2="107"/>
<line clip-path="url(#clipPath2)" fill="none" x1="776" x2="774" y1="107" y2="107"/>
<line clip-path="url(#clipPath2)" fill="none" x1="28" x2="30" y1="88" y2="88"/>
<line clip-path="url(#clipPath2)" fill="none" x1="776" x2="774" y1="88" y2="88"/>
<line clip-path="url(#clipPath2)" fill="none" x1="26" x2="30" y1="69" y2="69"/>
<line clip-path="url(#clipPath2)" fill="none" x1="778" x2="774" y1="69" y2="69"/>
<text font-size="11" x="15" y="74" clip-path="url(#clipPath2)" stroke="none" xml:space="preserve">50</text>
<text font-size="11" x="781" y="74" clip-path="url(#clipPath2)" stroke="none" xml:space="preserve">50</text>
<line clip-path="url(#clipPath2)" fill="none" x1="28" x2="30" y1="50" y2="50"/>
<line clip-path="url(#clipPath2)" fill="none" x1="776" x2="774" y1="50" y2="50"/>
<line clip-path="url(#clipPath2)" fill="none" x1="28" x2="30" y1="31" y2="31"/>
<line clip-path="url(#clipPath2)" fill="none" x1="776" x2="774" y1="31" y2="31"/>
</g>
</g>
</svg>
