<?xml version="1.0" encoding="UTF-8"?><svg xmlns="http://www.w3.org/2000/svg" xmlns:xlink="http://www.w3.org/1999/xlink" stroke-dasharray="none" shape-rendering="auto" font-family="'Dialog'" width="974" text-rendering="auto" fill-opacity="1" contentScriptType="text/ecmascript" color-interpolation="auto" color-rendering="auto" preserveAspectRatio="xMidYMid meet" font-size="12" fill="black" stroke="black" image-rendering="auto" stroke-miterlimit="10" zoomAndPan="magnify" version="1.0" stroke-linecap="square" stroke-linejoin="miter" contentStyleType="text/css" font-style="normal" height="262" stroke-width="1" stroke-dashoffset="0" font-weight="normal" stroke-opacity="1">
<!--Generated by the Batik Graphics2D SVG Generator-->
<defs id="genericDefs"/>
<g>
<defs id="defs1">
<clipPath clipPathUnits="userSpaceOnUse" id="clipPath1">
<path d="M30 22 L944 22 L944 240 L30 240 L30 22 Z"/>
</clipPath>
<clipPath clipPathUnits="userSpaceOnUse" id="clipPath2">
<path d="M-1 -1 L975 -1 L975 263 L-1 263 L-1 -1 Z"/>
</clipPath>
</defs>
<g font-size="15" fill="white" text-rendering="geometricPrecision" font-family="'Ubuntu'" stroke-linejoin="round" stroke="white" stroke-width="0" stroke-miterlimit="0">
<rect x="31" y="23" clip-path="url(#clipPath1)" width="912" height="216" stroke="none"/>
</g>
<g font-size="15" stroke-linecap="butt" fill="rgb(204,204,204)" text-rendering="geometricPrecision" font-family="'Ubuntu'" stroke-dasharray="3,3" stroke="rgb(204,204,204)">
<line clip-path="url(#clipPath1)" fill="none" x1="31" x2="31" y1="23" y2="239"/>
<line clip-path="url(#clipPath1)" fill="none" x1="90" x2="90" y1="23" y2="239"/>
<line clip-path="url(#clipPath1)" fill="none" x1="149" x2="149" y1="23" y2="239"/>
<line clip-path="url(#clipPath1)" fill="none" x1="208" x2="208" y1="23" y2="239"/>
<line clip-path="url(#clipPath1)" fill="none" x1="268" x2="268" y1="23" y2="239"/>
<line clip-path="url(#clipPath1)" fill="none" x1="327" x2="327" y1="23" y2="239"/>
<line clip-path="url(#clipPath1)" fill="none" x1="386" x2="386" y1="23" y2="239"/>
<line clip-path="url(#clipPath1)" fill="none" x1="446" x2="446" y1="23" y2="239"/>
<line clip-path="url(#clipPath1)" fill="none" x1="505" x2="505" y1="23" y2="239"/>
<line clip-path="url(#clipPath1)" fill="none" x1="564" x2="564" y1="23" y2="239"/>
<line clip-path="url(#clipPath1)" fill="none" x1="624" x2="624" y1="23" y2="239"/>
<line clip-path="url(#clipPath1)" fill="none" x1="683" x2="683" y1="23" y2="239"/>
<line clip-path="url(#clipPath1)" fill="none" x1="742" x2="742" y1="23" y2="239"/>
<line clip-path="url(#clipPath1)" fill="none" x1="801" x2="801" y1="23" y2="239"/>
<line clip-path="url(#clipPath1)" fill="none" x1="861" x2="861" y1="23" y2="239"/>
<line clip-path="url(#clipPath1)" fill="none" x1="920" x2="920" y1="23" y2="239"/>
<line clip-path="url(#clipPath1)" fill="none" x1="31" x2="943" y1="239" y2="239"/>
<line clip-path="url(#clipPath1)" fill="none" x1="31" x2="943" y1="152" y2="152"/>
<line clip-path="url(#clipPath1)" fill="none" x1="31" x2="943" y1="65" y2="65"/>
<rect x="298" y="171" clip-path="url(#clipPath1)" fill="rgb(0,0,139)" width="5" height="5" stroke="none"/>
</g>
<g font-size="15" stroke-linecap="butt" fill="rgb(0,0,139)" text-rendering="geometricPrecision" font-family="'Ubuntu'" shape-rendering="crispEdges" stroke="rgb(0,0,139)">
<line clip-path="url(#clipPath1)" fill="none" x1="300" x2="300" y1="173" y2="154"/>
<rect x="298" y="152" clip-path="url(#clipPath1)" width="5" shape-rendering="auto" height="5" stroke="none"/>
<rect x="298" y="158" clip-path="url(#clipPath1)" width="5" shape-rendering="auto" height="5" stroke="none"/>
<line clip-path="url(#clipPath1)" fill="none" x1="300" x2="300" y1="154" y2="112"/>
<rect x="298" y="110" clip-path="url(#clipPath1)" width="5" shape-rendering="auto" height="5" stroke="none"/>
<line clip-path="url(#clipPath1)" fill="none" x1="300" x2="300" y1="112" y2="99"/>
<rect x="298" y="97" clip-path="url(#clipPath1)" width="5" shape-rendering="auto" height="5" stroke="none"/>
<line clip-path="url(#clipPath1)" fill="none" x1="300" x2="300" y1="99" y2="78"/>
<rect x="298" y="76" clip-path="url(#clipPath1)" width="5" shape-rendering="auto" height="5" stroke="none"/>
<line clip-path="url(#clipPath1)" fill="none" x1="300" x2="300" y1="78" y2="77"/>
<rect x="298" y="75" clip-path="url(#clipPath1)" width="5" shape-rendering="auto" height="5" stroke="none"/>
<line clip-path="url(#clipPath1)" fill="none" x1="300" x2="301" y1="77" y2="132" shape-rendering="auto"/>
<rect x="299" y="130" clip-path="url(#clipPath1)" width="5" shape-rendering="auto" height="5" stroke="none"/>
<line clip-path="url(#clipPath1)" fill="none" x1="301" x2="301" y1="132" y2="126"/>
<rect x="299" y="124" clip-path="url(#clipPath1)" width="5" shape-rendering="auto" height="5" stroke="none"/>
<line clip-path="url(#clipPath1)" fill="none" x1="301" x2="301" y1="126" y2="107"/>
<rect x="299" y="105" clip-path="url(#clipPath1)" width="5" shape-rendering="auto" height="5" stroke="none"/>
<line clip-path="url(#clipPath1)" fill="none" x1="301" x2="301" y1="107" y2="104"/>
<rect x="299" y="102" clip-path="url(#clipPath1)" width="5" shape-rendering="auto" height="5" stroke="none"/>
<line clip-path="url(#clipPath1)" fill="none" x1="301" x2="361" y1="104" y2="178" shape-rendering="auto"/>
<rect x="359" y="176" clip-path="url(#clipPath1)" width="5" shape-rendering="auto" height="5" stroke="none"/>
<line clip-path="url(#clipPath1)" fill="none" x1="361" x2="389" y1="178" y2="191" shape-rendering="auto"/>
<rect x="387" y="189" clip-path="url(#clipPath1)" width="5" shape-rendering="auto" height="5" stroke="none"/>
<line clip-path="url(#clipPath1)" fill="none" x1="389" x2="389" y1="191" y2="189"/>
<rect x="387" y="187" clip-path="url(#clipPath1)" width="5" shape-rendering="auto" height="5" stroke="none"/>
<line clip-path="url(#clipPath1)" fill="none" x1="389" x2="389" y1="189" y2="186"/>
<rect x="387" y="184" clip-path="url(#clipPath1)" width="5" shape-rendering="auto" height="5" stroke="none"/>
<line clip-path="url(#clipPath1)" fill="none" x1="389" x2="389" y1="186" y2="180"/>
<rect x="387" y="178" clip-path="url(#clipPath1)" width="5" shape-rendering="auto" height="5" stroke="none"/>
<line clip-path="url(#clipPath1)" fill="none" x1="389" x2="389" y1="180" y2="178"/>
<rect x="387" y="176" clip-path="url(#clipPath1)" width="5" shape-rendering="auto" height="5" stroke="none"/>
<line clip-path="url(#clipPath1)" fill="none" x1="389" x2="418" y1="178" y2="181" shape-rendering="auto"/>
<rect x="416" y="179" clip-path="url(#clipPath1)" width="5" shape-rendering="auto" height="5" stroke="none"/>
<line clip-path="url(#clipPath1)" fill="none" x1="418" x2="418" y1="181" y2="180"/>
<rect x="416" y="178" clip-path="url(#clipPath1)" width="5" shape-rendering="auto" height="5" stroke="none"/>
<line clip-path="url(#clipPath1)" fill="none" x1="418" x2="418" y1="180" y2="179"/>
<rect x="416" y="177" clip-path="url(#clipPath1)" width="5" shape-rendering="auto" height="5" stroke="none"/>
<line clip-path="url(#clipPath1)" fill="none" x1="418" x2="418" y1="179" y2="177"/>
<rect x="416" y="175" clip-path="url(#clipPath1)" width="5" shape-rendering="auto" height="5" stroke="none"/>
<line clip-path="url(#clipPath1)" fill="none" x1="418" x2="418" y1="177" y2="176"/>
<rect x="416" y="174" clip-path="url(#clipPath1)" width="5" shape-rendering="auto" height="5" stroke="none"/>
<line clip-path="url(#clipPath1)" fill="none" x1="418" x2="418" y1="176" y2="174"/>
<rect x="416" y="172" clip-path="url(#clipPath1)" width="5" shape-rendering="auto" height="5" stroke="none"/>
<line clip-path="url(#clipPath1)" fill="none" x1="418" x2="418" y1="174" y2="169"/>
<rect x="416" y="167" clip-path="url(#clipPath1)" width="5" shape-rendering="auto" height="5" stroke="none"/>
<line clip-path="url(#clipPath1)" fill="none" x1="418" x2="418" y1="169" y2="168"/>
<rect x="416" y="166" clip-path="url(#clipPath1)" width="5" shape-rendering="auto" height="5" stroke="none"/>
<line clip-path="url(#clipPath1)" fill="none" x1="418" x2="447" y1="168" y2="172" shape-rendering="auto"/>
<rect x="445" y="170" clip-path="url(#clipPath1)" width="5" shape-rendering="auto" height="5" stroke="none"/>
<line clip-path="url(#clipPath1)" fill="none" x1="447" x2="447" y1="172" y2="171"/>
<rect x="445" y="169" clip-path="url(#clipPath1)" width="5" shape-rendering="auto" height="5" stroke="none"/>
<line clip-path="url(#clipPath1)" fill="none" x1="447" x2="447" y1="171" y2="170"/>
<rect x="445" y="168" clip-path="url(#clipPath1)" width="5" shape-rendering="auto" height="5" stroke="none"/>
<line clip-path="url(#clipPath1)" fill="none" x1="447" x2="447" y1="170" y2="165"/>
<rect x="445" y="163" clip-path="url(#clipPath1)" width="5" shape-rendering="auto" height="5" stroke="none"/>
<line clip-path="url(#clipPath1)" fill="none" x1="447" x2="447" y1="165" y2="164"/>
<rect x="445" y="162" clip-path="url(#clipPath1)" width="5" shape-rendering="auto" height="5" stroke="none"/>
<line clip-path="url(#clipPath1)" fill="none" x1="447" x2="448" y1="164" y2="172" shape-rendering="auto"/>
<rect x="446" y="170" clip-path="url(#clipPath1)" width="5" shape-rendering="auto" height="5" stroke="none"/>
<line clip-path="url(#clipPath1)" fill="none" x1="448" x2="448" y1="172" y2="170"/>
<rect x="446" y="168" clip-path="url(#clipPath1)" width="5" shape-rendering="auto" height="5" stroke="none"/>
<line clip-path="url(#clipPath1)" fill="none" x1="448" x2="482" y1="170" y2="175" shape-rendering="auto"/>
<rect x="480" y="173" clip-path="url(#clipPath1)" width="5" shape-rendering="auto" height="5" stroke="none"/>
<line clip-path="url(#clipPath1)" fill="none" x1="482" x2="482" y1="175" y2="174"/>
<rect x="480" y="172" clip-path="url(#clipPath1)" width="5" shape-rendering="auto" height="5" stroke="none"/>
<line clip-path="url(#clipPath1)" fill="none" x1="482" x2="482" y1="174" y2="173"/>
<rect x="480" y="171" clip-path="url(#clipPath1)" width="5" shape-rendering="auto" height="5" stroke="none"/>
<line clip-path="url(#clipPath1)" fill="none" x1="482" x2="482" y1="173" y2="169"/>
<rect x="480" y="167" clip-path="url(#clipPath1)" width="5" shape-rendering="auto" height="5" stroke="none"/>
<line clip-path="url(#clipPath1)" fill="none" x1="482" x2="482" y1="169" y2="168"/>
<rect x="480" y="166" clip-path="url(#clipPath1)" width="5" shape-rendering="auto" height="5" stroke="none"/>
<line clip-path="url(#clipPath1)" fill="none" x1="482" x2="483" y1="168" y2="170" shape-rendering="auto"/>
<rect x="481" y="168" clip-path="url(#clipPath1)" width="5" shape-rendering="auto" height="5" stroke="none"/>
<line clip-path="url(#clipPath1)" fill="none" x1="483" x2="505" y1="170" y2="174" shape-rendering="auto"/>
<rect x="503" y="172" clip-path="url(#clipPath1)" width="5" shape-rendering="auto" height="5" stroke="none"/>
<line clip-path="url(#clipPath1)" fill="none" x1="505" x2="567" y1="174" y2="183" shape-rendering="auto"/>
<rect x="565" y="181" clip-path="url(#clipPath1)" width="5" shape-rendering="auto" height="5" stroke="none"/>
<line clip-path="url(#clipPath1)" fill="none" x1="567" x2="846" y1="183" y2="200" shape-rendering="auto"/>
<rect x="844" y="198" clip-path="url(#clipPath1)" width="5" shape-rendering="auto" height="5" stroke="none"/>
<line clip-path="url(#clipPath1)" fill="none" x1="846" x2="846" y1="200" y2="199"/>
<rect x="844" y="197" clip-path="url(#clipPath1)" width="5" shape-rendering="auto" height="5" stroke="none"/>
<line clip-path="url(#clipPath1)" fill="none" x1="846" x2="846" y1="199" y2="198"/>
<rect x="844" y="196" clip-path="url(#clipPath1)" width="5" shape-rendering="auto" height="5" stroke="none"/>
<line clip-path="url(#clipPath1)" fill="none" x1="846" x2="846" y1="198" y2="196"/>
<rect x="844" y="194" clip-path="url(#clipPath1)" width="5" shape-rendering="auto" height="5" stroke="none"/>
<line clip-path="url(#clipPath1)" fill="none" x1="846" x2="846" y1="196" y2="195"/>
<rect x="844" y="193" clip-path="url(#clipPath1)" width="5" shape-rendering="auto" height="5" stroke="none"/>
<line clip-path="url(#clipPath1)" fill="none" x1="846" x2="846" y1="195" y2="194"/>
<rect x="844" y="192" clip-path="url(#clipPath1)" width="5" shape-rendering="auto" height="5" stroke="none"/>
<line clip-path="url(#clipPath1)" fill="none" x1="846" x2="846" y1="194" y2="193"/>
<rect x="844" y="191" clip-path="url(#clipPath1)" width="5" shape-rendering="auto" height="5" stroke="none"/>
<line clip-path="url(#clipPath1)" fill="none" x1="846" x2="846" y1="193" y2="192"/>
<rect x="844" y="190" clip-path="url(#clipPath1)" width="5" shape-rendering="auto" height="5" stroke="none"/>
<line clip-path="url(#clipPath1)" fill="none" x1="846" x2="846" y1="192" y2="191"/>
<rect x="844" y="189" clip-path="url(#clipPath1)" width="5" shape-rendering="auto" height="5" stroke="none"/>
<line clip-path="url(#clipPath1)" fill="none" x1="846" x2="846" y1="191" y2="190"/>
<rect x="844" y="188" clip-path="url(#clipPath1)" width="5" shape-rendering="auto" height="5" stroke="none"/>
<line clip-path="url(#clipPath1)" fill="none" x1="846" x2="846" y1="190" y2="189"/>
<rect x="844" y="187" clip-path="url(#clipPath1)" width="5" shape-rendering="auto" height="5" stroke="none"/>
<line clip-path="url(#clipPath1)" fill="none" x1="846" x2="846" y1="189" y2="188"/>
<rect x="844" y="186" clip-path="url(#clipPath1)" width="5" shape-rendering="auto" height="5" stroke="none"/>
<line clip-path="url(#clipPath1)" fill="none" x1="846" x2="847" y1="188" y2="187" shape-rendering="auto"/>
<rect x="845" y="185" clip-path="url(#clipPath1)" width="5" shape-rendering="auto" height="5" stroke="none"/>
<line clip-path="url(#clipPath1)" fill="none" x1="847" x2="847" y1="187" y2="186"/>
<rect x="845" y="184" clip-path="url(#clipPath1)" width="5" shape-rendering="auto" height="5" stroke="none"/>
<line clip-path="url(#clipPath1)" fill="none" x1="847" x2="847" y1="186" y2="185"/>
<rect x="845" y="183" clip-path="url(#clipPath1)" width="5" shape-rendering="auto" height="5" stroke="none"/>
<line clip-path="url(#clipPath1)" fill="none" x1="847" x2="863" y1="185" y2="186" shape-rendering="auto"/>
<rect x="861" y="184" clip-path="url(#clipPath1)" width="5" shape-rendering="auto" height="5" stroke="none"/>
<line clip-path="url(#clipPath1)" fill="none" x1="863" x2="863" y1="186" y2="185"/>
<rect x="861" y="183" clip-path="url(#clipPath1)" width="5" shape-rendering="auto" height="5" stroke="none"/>
<line clip-path="url(#clipPath1)" fill="none" x1="863" x2="863" y1="185" y2="183"/>
<rect x="861" y="181" clip-path="url(#clipPath1)" width="5" shape-rendering="auto" height="5" stroke="none"/>
<line clip-path="url(#clipPath1)" fill="none" x1="863" x2="864" y1="183" y2="184" shape-rendering="auto"/>
<rect x="862" y="182" clip-path="url(#clipPath1)" width="5" shape-rendering="auto" height="5" stroke="none"/>
<line clip-path="url(#clipPath1)" fill="none" x1="864" x2="864" y1="184" y2="183"/>
<rect x="862" y="181" clip-path="url(#clipPath1)" width="5" shape-rendering="auto" height="5" stroke="none"/>
<line clip-path="url(#clipPath1)" fill="none" x1="864" x2="864" y1="184" y2="185"/>
<rect x="862" y="183" clip-path="url(#clipPath1)" width="5" shape-rendering="auto" height="5" stroke="none"/>
<line clip-path="url(#clipPath1)" fill="none" x1="864" x2="930" y1="184" y2="185" shape-rendering="auto"/>
<rect x="928" y="183" clip-path="url(#clipPath1)" width="5" shape-rendering="auto" height="5" stroke="none"/>
<line clip-path="url(#clipPath1)" fill="none" x1="930" x2="931" y1="185" y2="185" shape-rendering="auto"/>
<rect x="929" y="183" clip-path="url(#clipPath1)" width="5" shape-rendering="auto" height="5" stroke="none"/>
<line clip-path="url(#clipPath1)" fill="none" x1="931" x2="931" y1="185" y2="184"/>
<rect x="929" y="182" clip-path="url(#clipPath1)" width="5" shape-rendering="auto" height="5" stroke="none"/>
<line clip-path="url(#clipPath1)" fill="none" x1="931" x2="931" y1="184" y2="183"/>
<rect x="929" y="181" clip-path="url(#clipPath1)" width="5" shape-rendering="auto" height="5" stroke="none"/>
<rect x="31" y="23" clip-path="url(#clipPath2)" fill="none" width="912" shape-rendering="auto" height="216" stroke="black"/>
</g>
<g text-rendering="geometricPrecision" font-size="13" stroke-linecap="butt">
<line clip-path="url(#clipPath2)" fill="none" x1="31" x2="943" y1="21" y2="21"/>
<line clip-path="url(#clipPath2)" fill="none" x1="31" x2="943" y1="241" y2="241"/>
<text xml:space="preserve" x="487" y="259" clip-path="url(#clipPath2)" stroke="none"/>
<line clip-path="url(#clipPath2)" fill="none" x1="31" x2="31" y1="17" y2="21"/>
<line clip-path="url(#clipPath2)" fill="none" x1="31" x2="31" y1="245" y2="241"/>
<text font-size="11" x="30" y="14" clip-path="url(#clipPath2)" stroke="none" xml:space="preserve">0</text>
<text font-size="11" x="30" y="257" clip-path="url(#clipPath2)" stroke="none" xml:space="preserve">0</text>
<line clip-path="url(#clipPath2)" fill="none" x1="60" x2="60" y1="19" y2="21"/>
<line clip-path="url(#clipPath2)" fill="none" x1="60" x2="60" y1="243" y2="241"/>
<line clip-path="url(#clipPath2)" fill="none" x1="90" x2="90" y1="17" y2="21"/>
<line clip-path="url(#clipPath2)" fill="none" x1="90" x2="90" y1="245" y2="241"/>
<text font-size="11" x="84" y="14" clip-path="url(#clipPath2)" stroke="none" xml:space="preserve">200</text>
<text font-size="11" x="84" y="257" clip-path="url(#clipPath2)" stroke="none" xml:space="preserve">200</text>
<line clip-path="url(#clipPath2)" fill="none" x1="119" x2="119" y1="19" y2="21"/>
<line clip-path="url(#clipPath2)" fill="none" x1="119" x2="119" y1="243" y2="241"/>
<line clip-path="url(#clipPath2)" fill="none" x1="149" x2="149" y1="17" y2="21"/>
<line clip-path="url(#clipPath2)" fill="none" x1="149" x2="149" y1="245" y2="241"/>
<text font-size="11" x="143" y="14" clip-path="url(#clipPath2)" stroke="none" xml:space="preserve">400</text>
<text font-size="11" x="143" y="257" clip-path="url(#clipPath2)" stroke="none" xml:space="preserve">400</text>
<line clip-path="url(#clipPath2)" fill="none" x1="179" x2="179" y1="19" y2="21"/>
<line clip-path="url(#clipPath2)" fill="none" x1="179" x2="179" y1="243" y2="241"/>
<line clip-path="url(#clipPath2)" fill="none" x1="208" x2="208" y1="17" y2="21"/>
<line clip-path="url(#clipPath2)" fill="none" x1="208" x2="208" y1="245" y2="241"/>
<text font-size="11" x="202" y="14" clip-path="url(#clipPath2)" stroke="none" xml:space="preserve">600</text>
<text font-size="11" x="202" y="257" clip-path="url(#clipPath2)" stroke="none" xml:space="preserve">600</text>
<line clip-path="url(#clipPath2)" fill="none" x1="238" x2="238" y1="19" y2="21"/>
<line clip-path="url(#clipPath2)" fill="none" x1="238" x2="238" y1="243" y2="241"/>
<line clip-path="url(#clipPath2)" fill="none" x1="268" x2="268" y1="17" y2="21"/>
<line clip-path="url(#clipPath2)" fill="none" x1="268" x2="268" y1="245" y2="241"/>
<text font-size="11" x="262" y="14" clip-path="url(#clipPath2)" stroke="none" xml:space="preserve">800</text>
<text font-size="11" x="262" y="257" clip-path="url(#clipPath2)" stroke="none" xml:space="preserve">800</text>
<line clip-path="url(#clipPath2)" fill="none" x1="297" x2="297" y1="19" y2="21"/>
<line clip-path="url(#clipPath2)" fill="none" x1="297" x2="297" y1="243" y2="241"/>
<line clip-path="url(#clipPath2)" fill="none" x1="327" x2="327" y1="17" y2="21"/>
<line clip-path="url(#clipPath2)" fill="none" x1="327" x2="327" y1="245" y2="241"/>
<text font-size="11" x="318" y="14" clip-path="url(#clipPath2)" stroke="none" xml:space="preserve">1000</text>
<text font-size="11" x="318" y="257" clip-path="url(#clipPath2)" stroke="none" xml:space="preserve">1000</text>
<line clip-path="url(#clipPath2)" fill="none" x1="357" x2="357" y1="19" y2="21"/>
<line clip-path="url(#clipPath2)" fill="none" x1="357" x2="357" y1="243" y2="241"/>
<line clip-path="url(#clipPath2)" fill="none" x1="386" x2="386" y1="17" y2="21"/>
<line clip-path="url(#clipPath2)" fill="none" x1="386" x2="386" y1="245" y2="241"/>
<text font-size="11" x="377" y="14" clip-path="url(#clipPath2)" stroke="none" xml:space="preserve">1200</text>
<text font-size="11" x="377" y="257" clip-path="url(#clipPath2)" stroke="none" xml:space="preserve">1200</text>
<line clip-path="url(#clipPath2)" fill="none" x1="416" x2="416" y1="19" y2="21"/>
<line clip-path="url(#clipPath2)" fill="none" x1="416" x2="416" y1="243" y2="241"/>
<line clip-path="url(#clipPath2)" fill="none" x1="446" x2="446" y1="17" y2="21"/>
<line clip-path="url(#clipPath2)" fill="none" x1="446" x2="446" y1="245" y2="241"/>
<text font-size="11" x="437" y="14" clip-path="url(#clipPath2)" stroke="none" xml:space="preserve">1400</text>
<text font-size="11" x="437" y="257" clip-path="url(#clipPath2)" stroke="none" xml:space="preserve">1400</text>
<line clip-path="url(#clipPath2)" fill="none" x1="475" x2="475" y1="19" y2="21"/>
<line clip-path="url(#clipPath2)" fill="none" x1="475" x2="475" y1="243" y2="241"/>
<line clip-path="url(#clipPath2)" fill="none" x1="505" x2="505" y1="17" y2="21"/>
<line clip-path="url(#clipPath2)" fill="none" x1="505" x2="505" y1="245" y2="241"/>
<text font-size="11" x="496" y="14" clip-path="url(#clipPath2)" stroke="none" xml:space="preserve">1600</text>
<text font-size="11" x="496" y="257" clip-path="url(#clipPath2)" stroke="none" xml:space="preserve">1600</text>
<line clip-path="url(#clipPath2)" fill="none" x1="535" x2="535" y1="19" y2="21"/>
<line clip-path="url(#clipPath2)" fill="none" x1="535" x2="535" y1="243" y2="241"/>
<line clip-path="url(#clipPath2)" fill="none" x1="564" x2="564" y1="17" y2="21"/>
<line clip-path="url(#clipPath2)" fill="none" x1="564" x2="564" y1="245" y2="241"/>
<text font-size="11" x="555" y="14" clip-path="url(#clipPath2)" stroke="none" xml:space="preserve">1800</text>
<text font-size="11" x="555" y="257" clip-path="url(#clipPath2)" stroke="none" xml:space="preserve">1800</text>
<line clip-path="url(#clipPath2)" fill="none" x1="594" x2="594" y1="19" y2="21"/>
<line clip-path="url(#clipPath2)" fill="none" x1="594" x2="594" y1="243" y2="241"/>
<line clip-path="url(#clipPath2)" fill="none" x1="624" x2="624" y1="17" y2="21"/>
<line clip-path="url(#clipPath2)" fill="none" x1="624" x2="624" y1="245" y2="241"/>
<text font-size="11" x="615" y="14" clip-path="url(#clipPath2)" stroke="none" xml:space="preserve">2000</text>
<text font-size="11" x="615" y="257" clip-path="url(#clipPath2)" stroke="none" xml:space="preserve">2000</text>
<line clip-path="url(#clipPath2)" fill="none" x1="653" x2="653" y1="19" y2="21"/>
<line clip-path="url(#clipPath2)" fill="none" x1="653" x2="653" y1="243" y2="241"/>
<line clip-path="url(#clipPath2)" fill="none" x1="683" x2="683" y1="17" y2="21"/>
<line clip-path="url(#clipPath2)" fill="none" x1="683" x2="683" y1="245" y2="241"/>
<text font-size="11" x="674" y="14" clip-path="url(#clipPath2)" stroke="none" xml:space="preserve">2200</text>
<text font-size="11" x="674" y="257" clip-path="url(#clipPath2)" stroke="none" xml:space="preserve">2200</text>
<line clip-path="url(#clipPath2)" fill="none" x1="712" x2="712" y1="19" y2="21"/>
<line clip-path="url(#clipPath2)" fill="none" x1="712" x2="712" y1="243" y2="241"/>
<line clip-path="url(#clipPath2)" fill="none" x1="742" x2="742" y1="17" y2="21"/>
<line clip-path="url(#clipPath2)" fill="none" x1="742" x2="742" y1="245" y2="241"/>
<text font-size="11" x="733" y="14" clip-path="url(#clipPath2)" stroke="none" xml:space="preserve">2400</text>
<text font-size="11" x="733" y="257" clip-path="url(#clipPath2)" stroke="none" xml:space="preserve">2400</text>
<line clip-path="url(#clipPath2)" fill="none" x1="772" x2="772" y1="19" y2="21"/>
<line clip-path="url(#clipPath2)" fill="none" x1="772" x2="772" y1="243" y2="241"/>
<line clip-path="url(#clipPath2)" fill="none" x1="801" x2="801" y1="17" y2="21"/>
<line clip-path="url(#clipPath2)" fill="none" x1="801" x2="801" y1="245" y2="241"/>
<text font-size="11" x="792" y="14" clip-path="url(#clipPath2)" stroke="none" xml:space="preserve">2600</text>
<text font-size="11" x="792" y="257" clip-path="url(#clipPath2)" stroke="none" xml:space="preserve">2600</text>
<line clip-path="url(#clipPath2)" fill="none" x1="831" x2="831" y1="19" y2="21"/>
<line clip-path="url(#clipPath2)" fill="none" x1="831" x2="831" y1="243" y2="241"/>
<line clip-path="url(#clipPath2)" fill="none" x1="861" x2="861" y1="17" y2="21"/>
<line clip-path="url(#clipPath2)" fill="none" x1="861" x2="861" y1="245" y2="241"/>
<text font-size="11" x="852" y="14" clip-path="url(#clipPath2)" stroke="none" xml:space="preserve">2800</text>
<text font-size="11" x="852" y="257" clip-path="url(#clipPath2)" stroke="none" xml:space="preserve">2800</text>
<line clip-path="url(#clipPath2)" fill="none" x1="890" x2="890" y1="19" y2="21"/>
<line clip-path="url(#clipPath2)" fill="none" x1="890" x2="890" y1="243" y2="241"/>
<line clip-path="url(#clipPath2)" fill="none" x1="920" x2="920" y1="17" y2="21"/>
<line clip-path="url(#clipPath2)" fill="none" x1="920" x2="920" y1="245" y2="241"/>
<text font-size="11" x="911" y="14" clip-path="url(#clipPath2)" stroke="none" xml:space="preserve">3000</text>
<text font-size="11" x="911" y="257" clip-path="url(#clipPath2)" stroke="none" xml:space="preserve">3000</text>
<line clip-path="url(#clipPath2)" fill="none" x1="29" x2="29" y1="23" y2="239"/>
<line clip-path="url(#clipPath2)" fill="none" x1="945" x2="945" y1="23" y2="239"/>
<line clip-path="url(#clipPath2)" fill="none" x1="25" x2="29" y1="239" y2="239"/>
<line clip-path="url(#clipPath2)" fill="none" x1="949" x2="945" y1="239" y2="239"/>
<text font-size="11" x="9" y="244" clip-path="url(#clipPath2)" stroke="none" xml:space="preserve">0.0</text>
<text font-size="11" x="952" y="244" clip-path="url(#clipPath2)" stroke="none" xml:space="preserve">0.0</text>
<line clip-path="url(#clipPath2)" fill="none" x1="27" x2="29" y1="221" y2="221"/>
<line clip-path="url(#clipPath2)" fill="none" x1="947" x2="945" y1="221" y2="221"/>
<line clip-path="url(#clipPath2)" fill="none" x1="27" x2="29" y1="204" y2="204"/>
<line clip-path="url(#clipPath2)" fill="none" x1="947" x2="945" y1="204" y2="204"/>
<line clip-path="url(#clipPath2)" fill="none" x1="27" x2="29" y1="186" y2="186"/>
<line clip-path="url(#clipPath2)" fill="none" x1="947" x2="945" y1="186" y2="186"/>
<line clip-path="url(#clipPath2)" fill="none" x1="27" x2="29" y1="169" y2="169"/>
<line clip-path="url(#clipPath2)" fill="none" x1="947" x2="945" y1="169" y2="169"/>
<line clip-path="url(#clipPath2)" fill="none" x1="25" x2="29" y1="152" y2="152"/>
<line clip-path="url(#clipPath2)" fill="none" x1="949" x2="945" y1="152" y2="152"/>
<text font-size="11" x="4" y="157" clip-path="url(#clipPath2)" stroke="none" xml:space="preserve">0.10</text>
<text font-size="11" x="952" y="157" clip-path="url(#clipPath2)" stroke="none" xml:space="preserve">0.10</text>
<line clip-path="url(#clipPath2)" fill="none" x1="27" x2="29" y1="134" y2="134"/>
<line clip-path="url(#clipPath2)" fill="none" x1="947" x2="945" y1="134" y2="134"/>
<line clip-path="url(#clipPath2)" fill="none" x1="27" x2="29" y1="117" y2="117"/>
<line clip-path="url(#clipPath2)" fill="none" x1="947" x2="945" y1="117" y2="117"/>
<line clip-path="url(#clipPath2)" fill="none" x1="27" x2="29" y1="99" y2="99"/>
<line clip-path="url(#clipPath2)" fill="none" x1="947" x2="945" y1="99" y2="99"/>
<line clip-path="url(#clipPath2)" fill="none" x1="27" x2="29" y1="82" y2="82"/>
<line clip-path="url(#clipPath2)" fill="none" x1="947" x2="945" y1="82" y2="82"/>
<line clip-path="url(#clipPath2)" fill="none" x1="25" x2="29" y1="65" y2="65"/>
<line clip-path="url(#clipPath2)" fill="none" x1="949" x2="945" y1="65" y2="65"/>
<text font-size="11" x="4" y="70" clip-path="url(#clipPath2)" stroke="none" xml:space="preserve">0.20</text>
<text font-size="11" x="952" y="70" clip-path="url(#clipPath2)" stroke="none" xml:space="preserve">0.20</text>
<line clip-path="url(#clipPath2)" fill="none" x1="27" x2="29" y1="47" y2="47"/>
<line clip-path="url(#clipPath2)" fill="none" x1="947" x2="945" y1="47" y2="47"/>
<line clip-path="url(#clipPath2)" fill="none" x1="27" x2="29" y1="30" y2="30"/>
<line clip-path="url(#clipPath2)" fill="none" x1="947" x2="945" y1="30" y2="30"/>
</g>
</g>
</svg>
