<?xml version="1.0" encoding="UTF-8"?><svg xmlns="http://www.w3.org/2000/svg" xmlns:xlink="http://www.w3.org/1999/xlink" stroke-dasharray="none" shape-rendering="auto" font-family="'Dialog'" width="804" text-rendering="auto" fill-opacity="1" contentScriptType="text/ecmascript" color-interpolation="auto" color-rendering="auto" preserveAspectRatio="xMidYMid meet" font-size="12" fill="black" stroke="black" image-rendering="auto" stroke-miterlimit="10" zoomAndPan="magnify" version="1.0" stroke-linecap="square" stroke-linejoin="miter" contentStyleType="text/css" font-style="normal" height="187" stroke-width="1" stroke-dashoffset="0" font-weight="normal" stroke-opacity="1">
<!--Generated by the Batik Graphics2D SVG Generator-->
<defs id="genericDefs"/>
<g>
<defs id="defs1">
<clipPath clipPathUnits="userSpaceOnUse" id="clipPath1">
<path d="M36 22 L768 22 L768 165 L36 165 L36 22 Z"/>
</clipPath>
<clipPath clipPathUnits="userSpaceOnUse" id="clipPath2">
<path d="M-1 -1 L805 -1 L805 188 L-1 188 L-1 -1 Z"/>
</clipPath>
</defs>
<g font-size="15" fill="white" text-rendering="geometricPrecision" font-family="'Ubuntu'" stroke-linejoin="round" stroke="white" stroke-width="0" stroke-miterlimit="0">
<rect x="37" y="23" clip-path="url(#clipPath1)" width="730" height="141" stroke="none"/>
</g>
<g font-size="15" stroke-linecap="butt" fill="rgb(204,204,204)" text-rendering="geometricPrecision" font-family="'Ubuntu'" stroke-dasharray="3,3" stroke="rgb(204,204,204)">
<line clip-path="url(#clipPath1)" fill="none" x1="37" x2="37" y1="23" y2="164"/>
<line clip-path="url(#clipPath1)" fill="none" x1="108" x2="108" y1="23" y2="164"/>
<line clip-path="url(#clipPath1)" fill="none" x1="179" x2="179" y1="23" y2="164"/>
<line clip-path="url(#clipPath1)" fill="none" x1="250" x2="250" y1="23" y2="164"/>
<line clip-path="url(#clipPath1)" fill="none" x1="321" x2="321" y1="23" y2="164"/>
<line clip-path="url(#clipPath1)" fill="none" x1="392" x2="392" y1="23" y2="164"/>
<line clip-path="url(#clipPath1)" fill="none" x1="463" x2="463" y1="23" y2="164"/>
<line clip-path="url(#clipPath1)" fill="none" x1="535" x2="535" y1="23" y2="164"/>
<line clip-path="url(#clipPath1)" fill="none" x1="606" x2="606" y1="23" y2="164"/>
<line clip-path="url(#clipPath1)" fill="none" x1="677" x2="677" y1="23" y2="164"/>
<line clip-path="url(#clipPath1)" fill="none" x1="748" x2="748" y1="23" y2="164"/>
<line clip-path="url(#clipPath1)" fill="none" x1="37" x2="767" y1="164" y2="164"/>
<line clip-path="url(#clipPath1)" fill="none" x1="37" x2="767" y1="79" y2="79"/>
<rect x="357" y="162" clip-path="url(#clipPath1)" fill="rgb(0,0,139)" width="5" height="5" stroke="none"/>
</g>
<g font-size="15" stroke-linecap="butt" fill="rgb(0,0,139)" text-rendering="geometricPrecision" font-family="'Ubuntu'" shape-rendering="crispEdges" stroke="rgb(0,0,139)">
<line clip-path="url(#clipPath1)" fill="none" x1="359" x2="359" y1="164" y2="159"/>
<rect x="357" y="157" clip-path="url(#clipPath1)" width="5" shape-rendering="auto" height="5" stroke="none"/>
<line clip-path="url(#clipPath1)" fill="none" x1="359" x2="359" y1="159" y2="155"/>
<rect x="357" y="153" clip-path="url(#clipPath1)" width="5" shape-rendering="auto" height="5" stroke="none"/>
<line clip-path="url(#clipPath1)" fill="none" x1="359" x2="359" y1="155" y2="151"/>
<rect x="357" y="149" clip-path="url(#clipPath1)" width="5" shape-rendering="auto" height="5" stroke="none"/>
<line clip-path="url(#clipPath1)" fill="none" x1="359" x2="359" y1="151" y2="147"/>
<rect x="357" y="145" clip-path="url(#clipPath1)" width="5" shape-rendering="auto" height="5" stroke="none"/>
<line clip-path="url(#clipPath1)" fill="none" x1="359" x2="360" y1="147" y2="147" shape-rendering="auto"/>
<rect x="358" y="145" clip-path="url(#clipPath1)" width="5" shape-rendering="auto" height="5" stroke="none"/>
<line clip-path="url(#clipPath1)" fill="none" x1="360" x2="360" y1="147" y2="143"/>
<rect x="358" y="141" clip-path="url(#clipPath1)" width="5" shape-rendering="auto" height="5" stroke="none"/>
<line clip-path="url(#clipPath1)" fill="none" x1="360" x2="398" y1="143" y2="144" shape-rendering="auto"/>
<rect x="396" y="142" clip-path="url(#clipPath1)" width="5" shape-rendering="auto" height="5" stroke="none"/>
<line clip-path="url(#clipPath1)" fill="none" x1="398" x2="466" y1="144" y2="141" shape-rendering="auto"/>
<rect x="464" y="139" clip-path="url(#clipPath1)" width="5" shape-rendering="auto" height="5" stroke="none"/>
<line clip-path="url(#clipPath1)" fill="none" x1="466" x2="466" y1="141" y2="137"/>
<rect x="464" y="135" clip-path="url(#clipPath1)" width="5" shape-rendering="auto" height="5" stroke="none"/>
<line clip-path="url(#clipPath1)" fill="none" x1="466" x2="466" y1="137" y2="134"/>
<rect x="464" y="132" clip-path="url(#clipPath1)" width="5" shape-rendering="auto" height="5" stroke="none"/>
<line clip-path="url(#clipPath1)" fill="none" x1="466" x2="466" y1="134" y2="130"/>
<rect x="464" y="128" clip-path="url(#clipPath1)" width="5" shape-rendering="auto" height="5" stroke="none"/>
<line clip-path="url(#clipPath1)" fill="none" x1="466" x2="467" y1="130" y2="130" shape-rendering="auto"/>
<rect x="465" y="128" clip-path="url(#clipPath1)" width="5" shape-rendering="auto" height="5" stroke="none"/>
<line clip-path="url(#clipPath1)" fill="none" x1="467" x2="467" y1="130" y2="126"/>
<rect x="465" y="124" clip-path="url(#clipPath1)" width="5" shape-rendering="auto" height="5" stroke="none"/>
<line clip-path="url(#clipPath1)" fill="none" x1="467" x2="501" y1="126" y2="119" shape-rendering="auto"/>
<rect x="499" y="117" clip-path="url(#clipPath1)" width="5" shape-rendering="auto" height="5" stroke="none"/>
<line clip-path="url(#clipPath1)" fill="none" x1="501" x2="501" y1="119" y2="115"/>
<rect x="499" y="113" clip-path="url(#clipPath1)" width="5" shape-rendering="auto" height="5" stroke="none"/>
<line clip-path="url(#clipPath1)" fill="none" x1="501" x2="501" y1="115" y2="112"/>
<rect x="499" y="110" clip-path="url(#clipPath1)" width="5" shape-rendering="auto" height="5" stroke="none"/>
<line clip-path="url(#clipPath1)" fill="none" x1="501" x2="501" y1="112" y2="108"/>
<rect x="499" y="106" clip-path="url(#clipPath1)" width="5" shape-rendering="auto" height="5" stroke="none"/>
<line clip-path="url(#clipPath1)" fill="none" x1="501" x2="501" y1="108" y2="104"/>
<rect x="499" y="102" clip-path="url(#clipPath1)" width="5" shape-rendering="auto" height="5" stroke="none"/>
<line clip-path="url(#clipPath1)" fill="none" x1="501" x2="501" y1="104" y2="101"/>
<rect x="499" y="99" clip-path="url(#clipPath1)" width="5" shape-rendering="auto" height="5" stroke="none"/>
<line clip-path="url(#clipPath1)" fill="none" x1="501" x2="501" y1="101" y2="97"/>
<rect x="499" y="95" clip-path="url(#clipPath1)" width="5" shape-rendering="auto" height="5" stroke="none"/>
<line clip-path="url(#clipPath1)" fill="none" x1="501" x2="501" y1="97" y2="94"/>
<rect x="499" y="92" clip-path="url(#clipPath1)" width="5" shape-rendering="auto" height="5" stroke="none"/>
<line clip-path="url(#clipPath1)" fill="none" x1="501" x2="502" y1="94" y2="94" shape-rendering="auto"/>
<rect x="500" y="92" clip-path="url(#clipPath1)" width="5" shape-rendering="auto" height="5" stroke="none"/>
<line clip-path="url(#clipPath1)" fill="none" x1="502" x2="502" y1="94" y2="90"/>
<rect x="500" y="88" clip-path="url(#clipPath1)" width="5" shape-rendering="auto" height="5" stroke="none"/>
<line clip-path="url(#clipPath1)" fill="none" x1="502" x2="502" y1="90" y2="87"/>
<rect x="500" y="85" clip-path="url(#clipPath1)" width="5" shape-rendering="auto" height="5" stroke="none"/>
<line clip-path="url(#clipPath1)" fill="none" x1="502" x2="502" y1="87" y2="83"/>
<rect x="500" y="81" clip-path="url(#clipPath1)" width="5" shape-rendering="auto" height="5" stroke="none"/>
<line clip-path="url(#clipPath1)" fill="none" x1="502" x2="578" y1="83" y2="83" shape-rendering="auto"/>
<rect x="576" y="81" clip-path="url(#clipPath1)" width="5" shape-rendering="auto" height="5" stroke="none"/>
<line clip-path="url(#clipPath1)" fill="none" x1="578" x2="578" y1="83" y2="79"/>
<rect x="576" y="77" clip-path="url(#clipPath1)" width="5" shape-rendering="auto" height="5" stroke="none"/>
<line clip-path="url(#clipPath1)" fill="none" x1="578" x2="578" y1="79" y2="76"/>
<rect x="576" y="74" clip-path="url(#clipPath1)" width="5" shape-rendering="auto" height="5" stroke="none"/>
<line clip-path="url(#clipPath1)" fill="none" x1="578" x2="579" y1="76" y2="76" shape-rendering="auto"/>
<rect x="577" y="74" clip-path="url(#clipPath1)" width="5" shape-rendering="auto" height="5" stroke="none"/>
<line clip-path="url(#clipPath1)" fill="none" x1="579" x2="579" y1="76" y2="73"/>
<rect x="577" y="71" clip-path="url(#clipPath1)" width="5" shape-rendering="auto" height="5" stroke="none"/>
<line clip-path="url(#clipPath1)" fill="none" x1="579" x2="681" y1="73" y2="74" shape-rendering="auto"/>
<rect x="679" y="72" clip-path="url(#clipPath1)" width="5" shape-rendering="auto" height="5" stroke="none"/>
<line clip-path="url(#clipPath1)" fill="none" x1="681" x2="681" y1="74" y2="72"/>
<rect x="679" y="70" clip-path="url(#clipPath1)" width="5" shape-rendering="auto" height="5" stroke="none"/>
<line clip-path="url(#clipPath1)" fill="none" x1="681" x2="681" y1="72" y2="69"/>
<rect x="679" y="67" clip-path="url(#clipPath1)" width="5" shape-rendering="auto" height="5" stroke="none"/>
<line clip-path="url(#clipPath1)" fill="none" x1="681" x2="681" y1="69" y2="66"/>
<rect x="679" y="64" clip-path="url(#clipPath1)" width="5" shape-rendering="auto" height="5" stroke="none"/>
<line clip-path="url(#clipPath1)" fill="none" x1="681" x2="681" y1="66" y2="64"/>
<rect x="679" y="62" clip-path="url(#clipPath1)" width="5" shape-rendering="auto" height="5" stroke="none"/>
<line clip-path="url(#clipPath1)" fill="none" x1="681" x2="681" y1="64" y2="61"/>
<rect x="679" y="59" clip-path="url(#clipPath1)" width="5" shape-rendering="auto" height="5" stroke="none"/>
<line clip-path="url(#clipPath1)" fill="none" x1="681" x2="682" y1="61" y2="59" shape-rendering="auto"/>
<rect x="680" y="57" clip-path="url(#clipPath1)" width="5" shape-rendering="auto" height="5" stroke="none"/>
<line clip-path="url(#clipPath1)" fill="none" x1="682" x2="757" y1="59" y2="58" shape-rendering="auto"/>
<rect x="755" y="56" clip-path="url(#clipPath1)" width="5" shape-rendering="auto" height="5" stroke="none"/>
<rect x="37" y="23" clip-path="url(#clipPath2)" fill="none" width="730" shape-rendering="auto" height="141" stroke="black"/>
</g>
<g text-rendering="geometricPrecision" font-size="13" stroke-linecap="butt">
<line clip-path="url(#clipPath2)" fill="none" x1="37" x2="767" y1="21" y2="21"/>
<line clip-path="url(#clipPath2)" fill="none" x1="37" x2="767" y1="166" y2="166"/>
<text xml:space="preserve" x="402" y="184" clip-path="url(#clipPath2)" stroke="none"/>
<line clip-path="url(#clipPath2)" fill="none" x1="37" x2="37" y1="17" y2="21"/>
<line clip-path="url(#clipPath2)" fill="none" x1="37" x2="37" y1="170" y2="166"/>
<text font-size="11" x="36" y="14" clip-path="url(#clipPath2)" stroke="none" xml:space="preserve">0</text>
<text font-size="11" x="36" y="182" clip-path="url(#clipPath2)" stroke="none" xml:space="preserve">0</text>
<line clip-path="url(#clipPath2)" fill="none" x1="72" x2="72" y1="19" y2="21"/>
<line clip-path="url(#clipPath2)" fill="none" x1="72" x2="72" y1="168" y2="166"/>
<line clip-path="url(#clipPath2)" fill="none" x1="108" x2="108" y1="17" y2="21"/>
<line clip-path="url(#clipPath2)" fill="none" x1="108" x2="108" y1="170" y2="166"/>
<text font-size="11" x="102" y="14" clip-path="url(#clipPath2)" stroke="none" xml:space="preserve">200</text>
<text font-size="11" x="102" y="182" clip-path="url(#clipPath2)" stroke="none" xml:space="preserve">200</text>
<line clip-path="url(#clipPath2)" fill="none" x1="143" x2="143" y1="19" y2="21"/>
<line clip-path="url(#clipPath2)" fill="none" x1="143" x2="143" y1="168" y2="166"/>
<line clip-path="url(#clipPath2)" fill="none" x1="179" x2="179" y1="17" y2="21"/>
<line clip-path="url(#clipPath2)" fill="none" x1="179" x2="179" y1="170" y2="166"/>
<text font-size="11" x="173" y="14" clip-path="url(#clipPath2)" stroke="none" xml:space="preserve">400</text>
<text font-size="11" x="173" y="182" clip-path="url(#clipPath2)" stroke="none" xml:space="preserve">400</text>
<line clip-path="url(#clipPath2)" fill="none" x1="214" x2="214" y1="19" y2="21"/>
<line clip-path="url(#clipPath2)" fill="none" x1="214" x2="214" y1="168" y2="166"/>
<line clip-path="url(#clipPath2)" fill="none" x1="250" x2="250" y1="17" y2="21"/>
<line clip-path="url(#clipPath2)" fill="none" x1="250" x2="250" y1="170" y2="166"/>
<text font-size="11" x="244" y="14" clip-path="url(#clipPath2)" stroke="none" xml:space="preserve">600</text>
<text font-size="11" x="244" y="182" clip-path="url(#clipPath2)" stroke="none" xml:space="preserve">600</text>
<line clip-path="url(#clipPath2)" fill="none" x1="286" x2="286" y1="19" y2="21"/>
<line clip-path="url(#clipPath2)" fill="none" x1="286" x2="286" y1="168" y2="166"/>
<line clip-path="url(#clipPath2)" fill="none" x1="321" x2="321" y1="17" y2="21"/>
<line clip-path="url(#clipPath2)" fill="none" x1="321" x2="321" y1="170" y2="166"/>
<text font-size="11" x="315" y="14" clip-path="url(#clipPath2)" stroke="none" xml:space="preserve">800</text>
<text font-size="11" x="315" y="182" clip-path="url(#clipPath2)" stroke="none" xml:space="preserve">800</text>
<line clip-path="url(#clipPath2)" fill="none" x1="357" x2="357" y1="19" y2="21"/>
<line clip-path="url(#clipPath2)" fill="none" x1="357" x2="357" y1="168" y2="166"/>
<line clip-path="url(#clipPath2)" fill="none" x1="392" x2="392" y1="17" y2="21"/>
<line clip-path="url(#clipPath2)" fill="none" x1="392" x2="392" y1="170" y2="166"/>
<text font-size="11" x="383" y="14" clip-path="url(#clipPath2)" stroke="none" xml:space="preserve">1000</text>
<text font-size="11" x="383" y="182" clip-path="url(#clipPath2)" stroke="none" xml:space="preserve">1000</text>
<line clip-path="url(#clipPath2)" fill="none" x1="428" x2="428" y1="19" y2="21"/>
<line clip-path="url(#clipPath2)" fill="none" x1="428" x2="428" y1="168" y2="166"/>
<line clip-path="url(#clipPath2)" fill="none" x1="463" x2="463" y1="17" y2="21"/>
<line clip-path="url(#clipPath2)" fill="none" x1="463" x2="463" y1="170" y2="166"/>
<text font-size="11" x="454" y="14" clip-path="url(#clipPath2)" stroke="none" xml:space="preserve">1200</text>
<text font-size="11" x="454" y="182" clip-path="url(#clipPath2)" stroke="none" xml:space="preserve">1200</text>
<line clip-path="url(#clipPath2)" fill="none" x1="499" x2="499" y1="19" y2="21"/>
<line clip-path="url(#clipPath2)" fill="none" x1="499" x2="499" y1="168" y2="166"/>
<line clip-path="url(#clipPath2)" fill="none" x1="535" x2="535" y1="17" y2="21"/>
<line clip-path="url(#clipPath2)" fill="none" x1="535" x2="535" y1="170" y2="166"/>
<text font-size="11" x="526" y="14" clip-path="url(#clipPath2)" stroke="none" xml:space="preserve">1400</text>
<text font-size="11" x="526" y="182" clip-path="url(#clipPath2)" stroke="none" xml:space="preserve">1400</text>
<line clip-path="url(#clipPath2)" fill="none" x1="570" x2="570" y1="19" y2="21"/>
<line clip-path="url(#clipPath2)" fill="none" x1="570" x2="570" y1="168" y2="166"/>
<line clip-path="url(#clipPath2)" fill="none" x1="606" x2="606" y1="17" y2="21"/>
<line clip-path="url(#clipPath2)" fill="none" x1="606" x2="606" y1="170" y2="166"/>
<text font-size="11" x="597" y="14" clip-path="url(#clipPath2)" stroke="none" xml:space="preserve">1600</text>
<text font-size="11" x="597" y="182" clip-path="url(#clipPath2)" stroke="none" xml:space="preserve">1600</text>
<line clip-path="url(#clipPath2)" fill="none" x1="641" x2="641" y1="19" y2="21"/>
<line clip-path="url(#clipPath2)" fill="none" x1="641" x2="641" y1="168" y2="166"/>
<line clip-path="url(#clipPath2)" fill="none" x1="677" x2="677" y1="17" y2="21"/>
<line clip-path="url(#clipPath2)" fill="none" x1="677" x2="677" y1="170" y2="166"/>
<text font-size="11" x="668" y="14" clip-path="url(#clipPath2)" stroke="none" xml:space="preserve">1800</text>
<text font-size="11" x="668" y="182" clip-path="url(#clipPath2)" stroke="none" xml:space="preserve">1800</text>
<line clip-path="url(#clipPath2)" fill="none" x1="712" x2="712" y1="19" y2="21"/>
<line clip-path="url(#clipPath2)" fill="none" x1="712" x2="712" y1="168" y2="166"/>
<line clip-path="url(#clipPath2)" fill="none" x1="748" x2="748" y1="17" y2="21"/>
<line clip-path="url(#clipPath2)" fill="none" x1="748" x2="748" y1="170" y2="166"/>
<text font-size="11" x="739" y="14" clip-path="url(#clipPath2)" stroke="none" xml:space="preserve">2000</text>
<text font-size="11" x="739" y="182" clip-path="url(#clipPath2)" stroke="none" xml:space="preserve">2000</text>
<line clip-path="url(#clipPath2)" fill="none" x1="35" x2="35" y1="23" y2="164"/>
<line clip-path="url(#clipPath2)" fill="none" x1="769" x2="769" y1="23" y2="164"/>
<line clip-path="url(#clipPath2)" fill="none" x1="31" x2="35" y1="164" y2="164"/>
<line clip-path="url(#clipPath2)" fill="none" x1="773" x2="769" y1="164" y2="164"/>
<text font-size="11" x="10" y="169" clip-path="url(#clipPath2)" stroke="none" xml:space="preserve">0.00</text>
<text font-size="11" x="776" y="169" clip-path="url(#clipPath2)" stroke="none" xml:space="preserve">0.00</text>
<line clip-path="url(#clipPath2)" fill="none" x1="33" x2="35" y1="147" y2="147"/>
<line clip-path="url(#clipPath2)" fill="none" x1="771" x2="769" y1="147" y2="147"/>
<line clip-path="url(#clipPath2)" fill="none" x1="33" x2="35" y1="130" y2="130"/>
<line clip-path="url(#clipPath2)" fill="none" x1="771" x2="769" y1="130" y2="130"/>
<line clip-path="url(#clipPath2)" fill="none" x1="33" x2="35" y1="113" y2="113"/>
<line clip-path="url(#clipPath2)" fill="none" x1="771" x2="769" y1="113" y2="113"/>
<line clip-path="url(#clipPath2)" fill="none" x1="33" x2="35" y1="96" y2="96"/>
<line clip-path="url(#clipPath2)" fill="none" x1="771" x2="769" y1="96" y2="96"/>
<line clip-path="url(#clipPath2)" fill="none" x1="31" x2="35" y1="79" y2="79"/>
<line clip-path="url(#clipPath2)" fill="none" x1="773" x2="769" y1="79" y2="79"/>
<text font-size="11" x="5" y="84" clip-path="url(#clipPath2)" stroke="none" xml:space="preserve">0.010</text>
<text font-size="11" x="776" y="84" clip-path="url(#clipPath2)" stroke="none" xml:space="preserve">0.010</text>
<line clip-path="url(#clipPath2)" fill="none" x1="33" x2="35" y1="62" y2="62"/>
<line clip-path="url(#clipPath2)" fill="none" x1="771" x2="769" y1="62" y2="62"/>
<line clip-path="url(#clipPath2)" fill="none" x1="33" x2="35" y1="45" y2="45"/>
<line clip-path="url(#clipPath2)" fill="none" x1="771" x2="769" y1="45" y2="45"/>
<line clip-path="url(#clipPath2)" fill="none" x1="33" x2="35" y1="28" y2="28"/>
<line clip-path="url(#clipPath2)" fill="none" x1="771" x2="769" y1="28" y2="28"/>
</g>
</g>
</svg>
