<?xml version="1.0" encoding="UTF-8"?><svg xmlns="http://www.w3.org/2000/svg" xmlns:xlink="http://www.w3.org/1999/xlink" stroke-dasharray="none" shape-rendering="auto" font-family="'Dialog'" width="804" text-rendering="auto" fill-opacity="1" contentScriptType="text/ecmascript" color-interpolation="auto" color-rendering="auto" preserveAspectRatio="xMidYMid meet" font-size="12" fill="black" stroke="black" image-rendering="auto" stroke-miterlimit="10" zoomAndPan="magnify" version="1.0" stroke-linecap="square" stroke-linejoin="miter" contentStyleType="text/css" font-style="normal" height="187" stroke-width="1" stroke-dashoffset="0" font-weight="normal" stroke-opacity="1">
<!--Generated by the Batik Graphics2D SVG Generator-->
<defs id="genericDefs"/>
<g>
<defs id="defs1">
<clipPath clipPathUnits="userSpaceOnUse" id="clipPath1">
<path d="M40 22 L764 22 L764 165 L40 165 L40 22 Z"/>
</clipPath>
<clipPath clipPathUnits="userSpaceOnUse" id="clipPath2">
<path d="M-1 -1 L805 -1 L805 188 L-1 188 L-1 -1 Z"/>
</clipPath>
</defs>
<g font-size="15" fill="white" text-rendering="geometricPrecision" font-family="'Ubuntu'" stroke-linejoin="round" stroke="white" stroke-width="0" stroke-miterlimit="0">
<rect x="41" y="23" clip-path="url(#clipPath1)" width="722" height="141" stroke="none"/>
</g>
<g font-size="15" stroke-linecap="butt" fill="rgb(204,204,204)" text-rendering="geometricPrecision" font-family="'Ubuntu'" stroke-dasharray="3,3" stroke="rgb(204,204,204)">
<line clip-path="url(#clipPath1)" fill="none" x1="41" x2="41" y1="23" y2="164"/>
<line clip-path="url(#clipPath1)" fill="none" x1="111" x2="111" y1="23" y2="164"/>
<line clip-path="url(#clipPath1)" fill="none" x1="181" x2="181" y1="23" y2="164"/>
<line clip-path="url(#clipPath1)" fill="none" x1="252" x2="252" y1="23" y2="164"/>
<line clip-path="url(#clipPath1)" fill="none" x1="322" x2="322" y1="23" y2="164"/>
<line clip-path="url(#clipPath1)" fill="none" x1="392" x2="392" y1="23" y2="164"/>
<line clip-path="url(#clipPath1)" fill="none" x1="463" x2="463" y1="23" y2="164"/>
<line clip-path="url(#clipPath1)" fill="none" x1="533" x2="533" y1="23" y2="164"/>
<line clip-path="url(#clipPath1)" fill="none" x1="603" x2="603" y1="23" y2="164"/>
<line clip-path="url(#clipPath1)" fill="none" x1="674" x2="674" y1="23" y2="164"/>
<line clip-path="url(#clipPath1)" fill="none" x1="744" x2="744" y1="23" y2="164"/>
<line clip-path="url(#clipPath1)" fill="none" x1="41" x2="763" y1="164" y2="164"/>
<line clip-path="url(#clipPath1)" fill="none" x1="41" x2="763" y1="112" y2="112"/>
<line clip-path="url(#clipPath1)" fill="none" x1="41" x2="763" y1="60" y2="60"/>
<rect x="602" y="162" clip-path="url(#clipPath1)" fill="rgb(0,0,139)" width="5" height="5" stroke="none"/>
</g>
<g font-size="15" stroke-linecap="butt" fill="rgb(0,0,139)" text-rendering="geometricPrecision" font-family="'Ubuntu'" shape-rendering="crispEdges" stroke="rgb(0,0,139)">
<line clip-path="url(#clipPath1)" fill="none" x1="604" x2="604" y1="164" y2="151"/>
<rect x="602" y="149" clip-path="url(#clipPath1)" width="5" shape-rendering="auto" height="5" stroke="none"/>
<line clip-path="url(#clipPath1)" fill="none" x1="604" x2="604" y1="151" y2="147"/>
<rect x="602" y="145" clip-path="url(#clipPath1)" width="5" shape-rendering="auto" height="5" stroke="none"/>
<line clip-path="url(#clipPath1)" fill="none" x1="604" x2="604" y1="147" y2="135"/>
<rect x="602" y="133" clip-path="url(#clipPath1)" width="5" shape-rendering="auto" height="5" stroke="none"/>
<line clip-path="url(#clipPath1)" fill="none" x1="604" x2="604" y1="135" y2="130"/>
<rect x="602" y="128" clip-path="url(#clipPath1)" width="5" shape-rendering="auto" height="5" stroke="none"/>
<line clip-path="url(#clipPath1)" fill="none" x1="604" x2="604" y1="130" y2="126"/>
<rect x="602" y="124" clip-path="url(#clipPath1)" width="5" shape-rendering="auto" height="5" stroke="none"/>
<line clip-path="url(#clipPath1)" fill="none" x1="604" x2="604" y1="126" y2="122"/>
<rect x="602" y="120" clip-path="url(#clipPath1)" width="5" shape-rendering="auto" height="5" stroke="none"/>
<line clip-path="url(#clipPath1)" fill="none" x1="604" x2="604" y1="122" y2="118"/>
<rect x="602" y="116" clip-path="url(#clipPath1)" width="5" shape-rendering="auto" height="5" stroke="none"/>
<line clip-path="url(#clipPath1)" fill="none" x1="604" x2="604" y1="118" y2="114"/>
<rect x="602" y="112" clip-path="url(#clipPath1)" width="5" shape-rendering="auto" height="5" stroke="none"/>
<line clip-path="url(#clipPath1)" fill="none" x1="604" x2="605" y1="114" y2="110" shape-rendering="auto"/>
<rect x="603" y="108" clip-path="url(#clipPath1)" width="5" shape-rendering="auto" height="5" stroke="none"/>
<line clip-path="url(#clipPath1)" fill="none" x1="605" x2="677" y1="110" y2="110" shape-rendering="auto"/>
<rect x="675" y="108" clip-path="url(#clipPath1)" width="5" shape-rendering="auto" height="5" stroke="none"/>
<line clip-path="url(#clipPath1)" fill="none" x1="677" x2="677" y1="110" y2="106"/>
<rect x="675" y="104" clip-path="url(#clipPath1)" width="5" shape-rendering="auto" height="5" stroke="none"/>
<line clip-path="url(#clipPath1)" fill="none" x1="677" x2="677" y1="106" y2="103"/>
<rect x="675" y="101" clip-path="url(#clipPath1)" width="5" shape-rendering="auto" height="5" stroke="none"/>
<line clip-path="url(#clipPath1)" fill="none" x1="677" x2="678" y1="103" y2="98" shape-rendering="auto"/>
<rect x="676" y="96" clip-path="url(#clipPath1)" width="5" shape-rendering="auto" height="5" stroke="none"/>
<line clip-path="url(#clipPath1)" fill="none" x1="678" x2="678" y1="98" y2="95"/>
<rect x="676" y="93" clip-path="url(#clipPath1)" width="5" shape-rendering="auto" height="5" stroke="none"/>
<line clip-path="url(#clipPath1)" fill="none" x1="678" x2="678" y1="95" y2="91"/>
<rect x="676" y="89" clip-path="url(#clipPath1)" width="5" shape-rendering="auto" height="5" stroke="none"/>
<line clip-path="url(#clipPath1)" fill="none" x1="678" x2="678" y1="91" y2="87"/>
<rect x="676" y="85" clip-path="url(#clipPath1)" width="5" shape-rendering="auto" height="5" stroke="none"/>
<line clip-path="url(#clipPath1)" fill="none" x1="678" x2="678" y1="87" y2="84"/>
<rect x="676" y="82" clip-path="url(#clipPath1)" width="5" shape-rendering="auto" height="5" stroke="none"/>
<line clip-path="url(#clipPath1)" fill="none" x1="678" x2="678" y1="84" y2="81"/>
<rect x="676" y="79" clip-path="url(#clipPath1)" width="5" shape-rendering="auto" height="5" stroke="none"/>
<line clip-path="url(#clipPath1)" fill="none" x1="678" x2="678" y1="81" y2="77"/>
<rect x="676" y="75" clip-path="url(#clipPath1)" width="5" shape-rendering="auto" height="5" stroke="none"/>
<line clip-path="url(#clipPath1)" fill="none" x1="678" x2="678" y1="77" y2="73"/>
<rect x="676" y="71" clip-path="url(#clipPath1)" width="5" shape-rendering="auto" height="5" stroke="none"/>
<line clip-path="url(#clipPath1)" fill="none" x1="678" x2="678" y1="73" y2="70"/>
<rect x="676" y="68" clip-path="url(#clipPath1)" width="5" shape-rendering="auto" height="5" stroke="none"/>
<line clip-path="url(#clipPath1)" fill="none" x1="678" x2="678" y1="70" y2="66"/>
<rect x="676" y="64" clip-path="url(#clipPath1)" width="5" shape-rendering="auto" height="5" stroke="none"/>
<rect x="676" y="65" clip-path="url(#clipPath1)" width="5" shape-rendering="auto" height="5" stroke="none"/>
<line clip-path="url(#clipPath1)" fill="none" x1="678" x2="679" y1="67" y2="64" shape-rendering="auto"/>
<rect x="677" y="62" clip-path="url(#clipPath1)" width="5" shape-rendering="auto" height="5" stroke="none"/>
<line clip-path="url(#clipPath1)" fill="none" x1="679" x2="679" y1="64" y2="60"/>
<rect x="677" y="58" clip-path="url(#clipPath1)" width="5" shape-rendering="auto" height="5" stroke="none"/>
<line clip-path="url(#clipPath1)" fill="none" x1="679" x2="754" y1="60" y2="58" shape-rendering="auto"/>
<rect x="752" y="56" clip-path="url(#clipPath1)" width="5" shape-rendering="auto" height="5" stroke="none"/>
<rect x="41" y="23" clip-path="url(#clipPath2)" fill="none" width="722" shape-rendering="auto" height="141" stroke="black"/>
</g>
<g text-rendering="geometricPrecision" font-size="13" stroke-linecap="butt">
<line clip-path="url(#clipPath2)" fill="none" x1="41" x2="763" y1="21" y2="21"/>
<line clip-path="url(#clipPath2)" fill="none" x1="41" x2="763" y1="166" y2="166"/>
<text xml:space="preserve" x="402" y="184" clip-path="url(#clipPath2)" stroke="none"/>
<line clip-path="url(#clipPath2)" fill="none" x1="41" x2="41" y1="17" y2="21"/>
<line clip-path="url(#clipPath2)" fill="none" x1="41" x2="41" y1="170" y2="166"/>
<text font-size="11" x="40" y="14" clip-path="url(#clipPath2)" stroke="none" xml:space="preserve">0</text>
<text font-size="11" x="40" y="182" clip-path="url(#clipPath2)" stroke="none" xml:space="preserve">0</text>
<line clip-path="url(#clipPath2)" fill="none" x1="76" x2="76" y1="19" y2="21"/>
<line clip-path="url(#clipPath2)" fill="none" x1="76" x2="76" y1="168" y2="166"/>
<line clip-path="url(#clipPath2)" fill="none" x1="111" x2="111" y1="17" y2="21"/>
<line clip-path="url(#clipPath2)" fill="none" x1="111" x2="111" y1="170" y2="166"/>
<text font-size="11" x="105" y="14" clip-path="url(#clipPath2)" stroke="none" xml:space="preserve">200</text>
<text font-size="11" x="105" y="182" clip-path="url(#clipPath2)" stroke="none" xml:space="preserve">200</text>
<line clip-path="url(#clipPath2)" fill="none" x1="146" x2="146" y1="19" y2="21"/>
<line clip-path="url(#clipPath2)" fill="none" x1="146" x2="146" y1="168" y2="166"/>
<line clip-path="url(#clipPath2)" fill="none" x1="181" x2="181" y1="17" y2="21"/>
<line clip-path="url(#clipPath2)" fill="none" x1="181" x2="181" y1="170" y2="166"/>
<text font-size="11" x="175" y="14" clip-path="url(#clipPath2)" stroke="none" xml:space="preserve">400</text>
<text font-size="11" x="175" y="182" clip-path="url(#clipPath2)" stroke="none" xml:space="preserve">400</text>
<line clip-path="url(#clipPath2)" fill="none" x1="216" x2="216" y1="19" y2="21"/>
<line clip-path="url(#clipPath2)" fill="none" x1="216" x2="216" y1="168" y2="166"/>
<line clip-path="url(#clipPath2)" fill="none" x1="252" x2="252" y1="17" y2="21"/>
<line clip-path="url(#clipPath2)" fill="none" x1="252" x2="252" y1="170" y2="166"/>
<text font-size="11" x="246" y="14" clip-path="url(#clipPath2)" stroke="none" xml:space="preserve">600</text>
<text font-size="11" x="246" y="182" clip-path="url(#clipPath2)" stroke="none" xml:space="preserve">600</text>
<line clip-path="url(#clipPath2)" fill="none" x1="287" x2="287" y1="19" y2="21"/>
<line clip-path="url(#clipPath2)" fill="none" x1="287" x2="287" y1="168" y2="166"/>
<line clip-path="url(#clipPath2)" fill="none" x1="322" x2="322" y1="17" y2="21"/>
<line clip-path="url(#clipPath2)" fill="none" x1="322" x2="322" y1="170" y2="166"/>
<text font-size="11" x="316" y="14" clip-path="url(#clipPath2)" stroke="none" xml:space="preserve">800</text>
<text font-size="11" x="316" y="182" clip-path="url(#clipPath2)" stroke="none" xml:space="preserve">800</text>
<line clip-path="url(#clipPath2)" fill="none" x1="357" x2="357" y1="19" y2="21"/>
<line clip-path="url(#clipPath2)" fill="none" x1="357" x2="357" y1="168" y2="166"/>
<line clip-path="url(#clipPath2)" fill="none" x1="392" x2="392" y1="17" y2="21"/>
<line clip-path="url(#clipPath2)" fill="none" x1="392" x2="392" y1="170" y2="166"/>
<text font-size="11" x="383" y="14" clip-path="url(#clipPath2)" stroke="none" xml:space="preserve">1000</text>
<text font-size="11" x="383" y="182" clip-path="url(#clipPath2)" stroke="none" xml:space="preserve">1000</text>
<line clip-path="url(#clipPath2)" fill="none" x1="427" x2="427" y1="19" y2="21"/>
<line clip-path="url(#clipPath2)" fill="none" x1="427" x2="427" y1="168" y2="166"/>
<line clip-path="url(#clipPath2)" fill="none" x1="463" x2="463" y1="17" y2="21"/>
<line clip-path="url(#clipPath2)" fill="none" x1="463" x2="463" y1="170" y2="166"/>
<text font-size="11" x="454" y="14" clip-path="url(#clipPath2)" stroke="none" xml:space="preserve">1200</text>
<text font-size="11" x="454" y="182" clip-path="url(#clipPath2)" stroke="none" xml:space="preserve">1200</text>
<line clip-path="url(#clipPath2)" fill="none" x1="498" x2="498" y1="19" y2="21"/>
<line clip-path="url(#clipPath2)" fill="none" x1="498" x2="498" y1="168" y2="166"/>
<line clip-path="url(#clipPath2)" fill="none" x1="533" x2="533" y1="17" y2="21"/>
<line clip-path="url(#clipPath2)" fill="none" x1="533" x2="533" y1="170" y2="166"/>
<text font-size="11" x="524" y="14" clip-path="url(#clipPath2)" stroke="none" xml:space="preserve">1400</text>
<text font-size="11" x="524" y="182" clip-path="url(#clipPath2)" stroke="none" xml:space="preserve">1400</text>
<line clip-path="url(#clipPath2)" fill="none" x1="568" x2="568" y1="19" y2="21"/>
<line clip-path="url(#clipPath2)" fill="none" x1="568" x2="568" y1="168" y2="166"/>
<line clip-path="url(#clipPath2)" fill="none" x1="603" x2="603" y1="17" y2="21"/>
<line clip-path="url(#clipPath2)" fill="none" x1="603" x2="603" y1="170" y2="166"/>
<text font-size="11" x="594" y="14" clip-path="url(#clipPath2)" stroke="none" xml:space="preserve">1600</text>
<text font-size="11" x="594" y="182" clip-path="url(#clipPath2)" stroke="none" xml:space="preserve">1600</text>
<line clip-path="url(#clipPath2)" fill="none" x1="639" x2="639" y1="19" y2="21"/>
<line clip-path="url(#clipPath2)" fill="none" x1="639" x2="639" y1="168" y2="166"/>
<line clip-path="url(#clipPath2)" fill="none" x1="674" x2="674" y1="17" y2="21"/>
<line clip-path="url(#clipPath2)" fill="none" x1="674" x2="674" y1="170" y2="166"/>
<text font-size="11" x="665" y="14" clip-path="url(#clipPath2)" stroke="none" xml:space="preserve">1800</text>
<text font-size="11" x="665" y="182" clip-path="url(#clipPath2)" stroke="none" xml:space="preserve">1800</text>
<line clip-path="url(#clipPath2)" fill="none" x1="709" x2="709" y1="19" y2="21"/>
<line clip-path="url(#clipPath2)" fill="none" x1="709" x2="709" y1="168" y2="166"/>
<line clip-path="url(#clipPath2)" fill="none" x1="744" x2="744" y1="17" y2="21"/>
<line clip-path="url(#clipPath2)" fill="none" x1="744" x2="744" y1="170" y2="166"/>
<text font-size="11" x="735" y="14" clip-path="url(#clipPath2)" stroke="none" xml:space="preserve">2000</text>
<text font-size="11" x="735" y="182" clip-path="url(#clipPath2)" stroke="none" xml:space="preserve">2000</text>
<line clip-path="url(#clipPath2)" fill="none" x1="39" x2="39" y1="23" y2="164"/>
<line clip-path="url(#clipPath2)" fill="none" x1="765" x2="765" y1="23" y2="164"/>
<line clip-path="url(#clipPath2)" fill="none" x1="35" x2="39" y1="164" y2="164"/>
<line clip-path="url(#clipPath2)" fill="none" x1="769" x2="765" y1="164" y2="164"/>
<text font-size="11" x="14" y="169" clip-path="url(#clipPath2)" stroke="none" xml:space="preserve">0.00</text>
<text font-size="11" x="772" y="169" clip-path="url(#clipPath2)" stroke="none" xml:space="preserve">0.00</text>
<line clip-path="url(#clipPath2)" fill="none" x1="37" x2="39" y1="153" y2="153"/>
<line clip-path="url(#clipPath2)" fill="none" x1="767" x2="765" y1="153" y2="153"/>
<line clip-path="url(#clipPath2)" fill="none" x1="37" x2="39" y1="143" y2="143"/>
<line clip-path="url(#clipPath2)" fill="none" x1="767" x2="765" y1="143" y2="143"/>
<line clip-path="url(#clipPath2)" fill="none" x1="37" x2="39" y1="133" y2="133"/>
<line clip-path="url(#clipPath2)" fill="none" x1="767" x2="765" y1="133" y2="133"/>
<line clip-path="url(#clipPath2)" fill="none" x1="37" x2="39" y1="122" y2="122"/>
<line clip-path="url(#clipPath2)" fill="none" x1="767" x2="765" y1="122" y2="122"/>
<line clip-path="url(#clipPath2)" fill="none" x1="35" x2="39" y1="112" y2="112"/>
<line clip-path="url(#clipPath2)" fill="none" x1="769" x2="765" y1="112" y2="112"/>
<text font-size="11" x="9" y="117" clip-path="url(#clipPath2)" stroke="none" xml:space="preserve">0.005</text>
<text font-size="11" x="772" y="117" clip-path="url(#clipPath2)" stroke="none" xml:space="preserve">0.005</text>
<line clip-path="url(#clipPath2)" fill="none" x1="37" x2="39" y1="102" y2="102"/>
<line clip-path="url(#clipPath2)" fill="none" x1="767" x2="765" y1="102" y2="102"/>
<line clip-path="url(#clipPath2)" fill="none" x1="37" x2="39" y1="91" y2="91"/>
<line clip-path="url(#clipPath2)" fill="none" x1="767" x2="765" y1="91" y2="91"/>
<line clip-path="url(#clipPath2)" fill="none" x1="37" x2="39" y1="81" y2="81"/>
<line clip-path="url(#clipPath2)" fill="none" x1="767" x2="765" y1="81" y2="81"/>
<line clip-path="url(#clipPath2)" fill="none" x1="37" x2="39" y1="71" y2="71"/>
<line clip-path="url(#clipPath2)" fill="none" x1="767" x2="765" y1="71" y2="71"/>
<line clip-path="url(#clipPath2)" fill="none" x1="35" x2="39" y1="60" y2="60"/>
<line clip-path="url(#clipPath2)" fill="none" x1="769" x2="765" y1="60" y2="60"/>
<text font-size="11" x="9" y="65" clip-path="url(#clipPath2)" stroke="none" xml:space="preserve">0.010</text>
<text font-size="11" x="772" y="65" clip-path="url(#clipPath2)" stroke="none" xml:space="preserve">0.010</text>
<line clip-path="url(#clipPath2)" fill="none" x1="37" x2="39" y1="50" y2="50"/>
<line clip-path="url(#clipPath2)" fill="none" x1="767" x2="765" y1="50" y2="50"/>
<line clip-path="url(#clipPath2)" fill="none" x1="37" x2="39" y1="40" y2="40"/>
<line clip-path="url(#clipPath2)" fill="none" x1="767" x2="765" y1="40" y2="40"/>
<line clip-path="url(#clipPath2)" fill="none" x1="37" x2="39" y1="30" y2="30"/>
<line clip-path="url(#clipPath2)" fill="none" x1="767" x2="765" y1="30" y2="30"/>
</g>
</g>
</svg>
