<?xml version="1.0" encoding="UTF-8"?><svg xmlns="http://www.w3.org/2000/svg" xmlns:xlink="http://www.w3.org/1999/xlink" stroke-dasharray="none" shape-rendering="auto" font-family="'Dialog'" width="804" text-rendering="auto" fill-opacity="1" contentScriptType="text/ecmascript" color-interpolation="auto" color-rendering="auto" preserveAspectRatio="xMidYMid meet" font-size="12" fill="black" stroke="black" image-rendering="auto" stroke-miterlimit="10" zoomAndPan="magnify" version="1.0" stroke-linecap="square" stroke-linejoin="miter" contentStyleType="text/css" font-style="normal" height="187" stroke-width="1" stroke-dashoffset="0" font-weight="normal" stroke-opacity="1">
<!--Generated by the Batik Graphics2D SVG Generator-->
<defs id="genericDefs"/>
<g>
<defs id="defs1">
<clipPath clipPathUnits="userSpaceOnUse" id="clipPath1">
<path d="M36 22 L768 22 L768 165 L36 165 L36 22 Z"/>
</clipPath>
<clipPath clipPathUnits="userSpaceOnUse" id="clipPath2">
<path d="M-1 -1 L805 -1 L805 188 L-1 188 L-1 -1 Z"/>
</clipPath>
</defs>
<g font-size="15" fill="white" text-rendering="geometricPrecision" font-family="'Ubuntu'" stroke-linejoin="round" stroke="white" stroke-width="0" stroke-miterlimit="0">
<rect x="37" y="23" clip-path="url(#clipPath1)" width="730" height="141" stroke="none"/>
</g>
<g font-size="15" stroke-linecap="butt" fill="rgb(204,204,204)" text-rendering="geometricPrecision" font-family="'Ubuntu'" stroke-dasharray="3,3" stroke="rgb(204,204,204)">
<line clip-path="url(#clipPath1)" fill="none" x1="37" x2="37" y1="23" y2="164"/>
<line clip-path="url(#clipPath1)" fill="none" x1="116" x2="116" y1="23" y2="164"/>
<line clip-path="url(#clipPath1)" fill="none" x1="195" x2="195" y1="23" y2="164"/>
<line clip-path="url(#clipPath1)" fill="none" x1="275" x2="275" y1="23" y2="164"/>
<line clip-path="url(#clipPath1)" fill="none" x1="354" x2="354" y1="23" y2="164"/>
<line clip-path="url(#clipPath1)" fill="none" x1="434" x2="434" y1="23" y2="164"/>
<line clip-path="url(#clipPath1)" fill="none" x1="513" x2="513" y1="23" y2="164"/>
<line clip-path="url(#clipPath1)" fill="none" x1="593" x2="593" y1="23" y2="164"/>
<line clip-path="url(#clipPath1)" fill="none" x1="672" x2="672" y1="23" y2="164"/>
<line clip-path="url(#clipPath1)" fill="none" x1="752" x2="752" y1="23" y2="164"/>
<line clip-path="url(#clipPath1)" fill="none" x1="37" x2="767" y1="164" y2="164"/>
<line clip-path="url(#clipPath1)" fill="none" x1="37" x2="767" y1="75" y2="75"/>
<rect x="513" y="162" clip-path="url(#clipPath1)" fill="rgb(0,0,139)" width="5" height="5" stroke="none"/>
</g>
<g font-size="15" stroke-linecap="butt" fill="rgb(0,0,139)" text-rendering="geometricPrecision" font-family="'Ubuntu'" shape-rendering="crispEdges" stroke="rgb(0,0,139)">
<line clip-path="url(#clipPath1)" fill="none" x1="515" x2="515" y1="164" y2="152"/>
<rect x="513" y="150" clip-path="url(#clipPath1)" width="5" shape-rendering="auto" height="5" stroke="none"/>
<line clip-path="url(#clipPath1)" fill="none" x1="515" x2="515" y1="152" y2="148"/>
<rect x="513" y="146" clip-path="url(#clipPath1)" width="5" shape-rendering="auto" height="5" stroke="none"/>
<line clip-path="url(#clipPath1)" fill="none" x1="515" x2="516" y1="148" y2="148" shape-rendering="auto"/>
<rect x="514" y="146" clip-path="url(#clipPath1)" width="5" shape-rendering="auto" height="5" stroke="none"/>
<line clip-path="url(#clipPath1)" fill="none" x1="516" x2="516" y1="148" y2="136"/>
<rect x="514" y="134" clip-path="url(#clipPath1)" width="5" shape-rendering="auto" height="5" stroke="none"/>
<line clip-path="url(#clipPath1)" fill="none" x1="516" x2="516" y1="136" y2="132"/>
<rect x="514" y="130" clip-path="url(#clipPath1)" width="5" shape-rendering="auto" height="5" stroke="none"/>
<line clip-path="url(#clipPath1)" fill="none" x1="516" x2="516" y1="132" y2="128"/>
<rect x="514" y="126" clip-path="url(#clipPath1)" width="5" shape-rendering="auto" height="5" stroke="none"/>
<line clip-path="url(#clipPath1)" fill="none" x1="516" x2="516" y1="128" y2="124"/>
<rect x="514" y="122" clip-path="url(#clipPath1)" width="5" shape-rendering="auto" height="5" stroke="none"/>
<line clip-path="url(#clipPath1)" fill="none" x1="516" x2="516" y1="124" y2="120"/>
<rect x="514" y="118" clip-path="url(#clipPath1)" width="5" shape-rendering="auto" height="5" stroke="none"/>
<line clip-path="url(#clipPath1)" fill="none" x1="516" x2="517" y1="120" y2="120" shape-rendering="auto"/>
<rect x="515" y="118" clip-path="url(#clipPath1)" width="5" shape-rendering="auto" height="5" stroke="none"/>
<line clip-path="url(#clipPath1)" fill="none" x1="517" x2="517" y1="120" y2="117"/>
<rect x="515" y="115" clip-path="url(#clipPath1)" width="5" shape-rendering="auto" height="5" stroke="none"/>
<line clip-path="url(#clipPath1)" fill="none" x1="517" x2="595" y1="117" y2="118" shape-rendering="auto"/>
<rect x="593" y="116" clip-path="url(#clipPath1)" width="5" shape-rendering="auto" height="5" stroke="none"/>
<line clip-path="url(#clipPath1)" fill="none" x1="595" x2="595" y1="118" y2="115"/>
<rect x="593" y="113" clip-path="url(#clipPath1)" width="5" shape-rendering="auto" height="5" stroke="none"/>
<line clip-path="url(#clipPath1)" fill="none" x1="595" x2="595" y1="115" y2="111"/>
<rect x="593" y="109" clip-path="url(#clipPath1)" width="5" shape-rendering="auto" height="5" stroke="none"/>
<line clip-path="url(#clipPath1)" fill="none" x1="595" x2="595" y1="111" y2="107"/>
<rect x="593" y="105" clip-path="url(#clipPath1)" width="5" shape-rendering="auto" height="5" stroke="none"/>
<line clip-path="url(#clipPath1)" fill="none" x1="595" x2="596" y1="107" y2="104" shape-rendering="auto"/>
<rect x="594" y="102" clip-path="url(#clipPath1)" width="5" shape-rendering="auto" height="5" stroke="none"/>
<line clip-path="url(#clipPath1)" fill="none" x1="596" x2="596" y1="104" y2="100"/>
<rect x="594" y="98" clip-path="url(#clipPath1)" width="5" shape-rendering="auto" height="5" stroke="none"/>
<line clip-path="url(#clipPath1)" fill="none" x1="596" x2="596" y1="100" y2="96"/>
<rect x="594" y="94" clip-path="url(#clipPath1)" width="5" shape-rendering="auto" height="5" stroke="none"/>
<line clip-path="url(#clipPath1)" fill="none" x1="596" x2="596" y1="96" y2="93"/>
<rect x="594" y="91" clip-path="url(#clipPath1)" width="5" shape-rendering="auto" height="5" stroke="none"/>
<line clip-path="url(#clipPath1)" fill="none" x1="596" x2="641" y1="93" y2="89" shape-rendering="auto"/>
<rect x="639" y="87" clip-path="url(#clipPath1)" width="5" shape-rendering="auto" height="5" stroke="none"/>
<line clip-path="url(#clipPath1)" fill="none" x1="641" x2="756" y1="89" y2="90" shape-rendering="auto"/>
<rect x="754" y="88" clip-path="url(#clipPath1)" width="5" shape-rendering="auto" height="5" stroke="none"/>
<line clip-path="url(#clipPath1)" fill="none" x1="756" x2="756" y1="90" y2="87"/>
<rect x="754" y="85" clip-path="url(#clipPath1)" width="5" shape-rendering="auto" height="5" stroke="none"/>
<line clip-path="url(#clipPath1)" fill="none" x1="756" x2="756" y1="87" y2="83"/>
<rect x="754" y="81" clip-path="url(#clipPath1)" width="5" shape-rendering="auto" height="5" stroke="none"/>
<line clip-path="url(#clipPath1)" fill="none" x1="756" x2="756" y1="83" y2="80"/>
<rect x="754" y="78" clip-path="url(#clipPath1)" width="5" shape-rendering="auto" height="5" stroke="none"/>
<line clip-path="url(#clipPath1)" fill="none" x1="756" x2="756" y1="80" y2="77"/>
<rect x="754" y="75" clip-path="url(#clipPath1)" width="5" shape-rendering="auto" height="5" stroke="none"/>
<line clip-path="url(#clipPath1)" fill="none" x1="756" x2="756" y1="77" y2="73"/>
<rect x="754" y="71" clip-path="url(#clipPath1)" width="5" shape-rendering="auto" height="5" stroke="none"/>
<line clip-path="url(#clipPath1)" fill="none" x1="756" x2="756" y1="73" y2="70"/>
<rect x="754" y="68" clip-path="url(#clipPath1)" width="5" shape-rendering="auto" height="5" stroke="none"/>
<line clip-path="url(#clipPath1)" fill="none" x1="756" x2="756" y1="70" y2="67"/>
<rect x="754" y="65" clip-path="url(#clipPath1)" width="5" shape-rendering="auto" height="5" stroke="none"/>
<line clip-path="url(#clipPath1)" fill="none" x1="756" x2="756" y1="67" y2="64"/>
<rect x="754" y="62" clip-path="url(#clipPath1)" width="5" shape-rendering="auto" height="5" stroke="none"/>
<line clip-path="url(#clipPath1)" fill="none" x1="756" x2="757" y1="64" y2="62" shape-rendering="auto"/>
<rect x="755" y="60" clip-path="url(#clipPath1)" width="5" shape-rendering="auto" height="5" stroke="none"/>
<line clip-path="url(#clipPath1)" fill="none" x1="757" x2="757" y1="62" y2="60"/>
<rect x="755" y="58" clip-path="url(#clipPath1)" width="5" shape-rendering="auto" height="5" stroke="none"/>
<line clip-path="url(#clipPath1)" fill="none" x1="757" x2="757" y1="60" y2="58"/>
<rect x="755" y="56" clip-path="url(#clipPath1)" width="5" shape-rendering="auto" height="5" stroke="none"/>
<rect x="37" y="23" clip-path="url(#clipPath2)" fill="none" width="730" shape-rendering="auto" height="141" stroke="black"/>
</g>
<g text-rendering="geometricPrecision" font-size="13" stroke-linecap="butt">
<line clip-path="url(#clipPath2)" fill="none" x1="37" x2="767" y1="21" y2="21"/>
<line clip-path="url(#clipPath2)" fill="none" x1="37" x2="767" y1="166" y2="166"/>
<text xml:space="preserve" x="402" y="184" clip-path="url(#clipPath2)" stroke="none"/>
<line clip-path="url(#clipPath2)" fill="none" x1="37" x2="37" y1="17" y2="21"/>
<line clip-path="url(#clipPath2)" fill="none" x1="37" x2="37" y1="170" y2="166"/>
<text font-size="11" x="36" y="14" clip-path="url(#clipPath2)" stroke="none" xml:space="preserve">0</text>
<text font-size="11" x="36" y="182" clip-path="url(#clipPath2)" stroke="none" xml:space="preserve">0</text>
<line clip-path="url(#clipPath2)" fill="none" x1="76" x2="76" y1="19" y2="21"/>
<line clip-path="url(#clipPath2)" fill="none" x1="76" x2="76" y1="168" y2="166"/>
<line clip-path="url(#clipPath2)" fill="none" x1="116" x2="116" y1="17" y2="21"/>
<line clip-path="url(#clipPath2)" fill="none" x1="116" x2="116" y1="170" y2="166"/>
<text font-size="11" x="110" y="14" clip-path="url(#clipPath2)" stroke="none" xml:space="preserve">200</text>
<text font-size="11" x="110" y="182" clip-path="url(#clipPath2)" stroke="none" xml:space="preserve">200</text>
<line clip-path="url(#clipPath2)" fill="none" x1="156" x2="156" y1="19" y2="21"/>
<line clip-path="url(#clipPath2)" fill="none" x1="156" x2="156" y1="168" y2="166"/>
<line clip-path="url(#clipPath2)" fill="none" x1="195" x2="195" y1="17" y2="21"/>
<line clip-path="url(#clipPath2)" fill="none" x1="195" x2="195" y1="170" y2="166"/>
<text font-size="11" x="189" y="14" clip-path="url(#clipPath2)" stroke="none" xml:space="preserve">400</text>
<text font-size="11" x="189" y="182" clip-path="url(#clipPath2)" stroke="none" xml:space="preserve">400</text>
<line clip-path="url(#clipPath2)" fill="none" x1="235" x2="235" y1="19" y2="21"/>
<line clip-path="url(#clipPath2)" fill="none" x1="235" x2="235" y1="168" y2="166"/>
<line clip-path="url(#clipPath2)" fill="none" x1="275" x2="275" y1="17" y2="21"/>
<line clip-path="url(#clipPath2)" fill="none" x1="275" x2="275" y1="170" y2="166"/>
<text font-size="11" x="269" y="14" clip-path="url(#clipPath2)" stroke="none" xml:space="preserve">600</text>
<text font-size="11" x="269" y="182" clip-path="url(#clipPath2)" stroke="none" xml:space="preserve">600</text>
<line clip-path="url(#clipPath2)" fill="none" x1="315" x2="315" y1="19" y2="21"/>
<line clip-path="url(#clipPath2)" fill="none" x1="315" x2="315" y1="168" y2="166"/>
<line clip-path="url(#clipPath2)" fill="none" x1="354" x2="354" y1="17" y2="21"/>
<line clip-path="url(#clipPath2)" fill="none" x1="354" x2="354" y1="170" y2="166"/>
<text font-size="11" x="348" y="14" clip-path="url(#clipPath2)" stroke="none" xml:space="preserve">800</text>
<text font-size="11" x="348" y="182" clip-path="url(#clipPath2)" stroke="none" xml:space="preserve">800</text>
<line clip-path="url(#clipPath2)" fill="none" x1="394" x2="394" y1="19" y2="21"/>
<line clip-path="url(#clipPath2)" fill="none" x1="394" x2="394" y1="168" y2="166"/>
<line clip-path="url(#clipPath2)" fill="none" x1="434" x2="434" y1="17" y2="21"/>
<line clip-path="url(#clipPath2)" fill="none" x1="434" x2="434" y1="170" y2="166"/>
<text font-size="11" x="425" y="14" clip-path="url(#clipPath2)" stroke="none" xml:space="preserve">1000</text>
<text font-size="11" x="425" y="182" clip-path="url(#clipPath2)" stroke="none" xml:space="preserve">1000</text>
<line clip-path="url(#clipPath2)" fill="none" x1="474" x2="474" y1="19" y2="21"/>
<line clip-path="url(#clipPath2)" fill="none" x1="474" x2="474" y1="168" y2="166"/>
<line clip-path="url(#clipPath2)" fill="none" x1="513" x2="513" y1="17" y2="21"/>
<line clip-path="url(#clipPath2)" fill="none" x1="513" x2="513" y1="170" y2="166"/>
<text font-size="11" x="504" y="14" clip-path="url(#clipPath2)" stroke="none" xml:space="preserve">1200</text>
<text font-size="11" x="504" y="182" clip-path="url(#clipPath2)" stroke="none" xml:space="preserve">1200</text>
<line clip-path="url(#clipPath2)" fill="none" x1="553" x2="553" y1="19" y2="21"/>
<line clip-path="url(#clipPath2)" fill="none" x1="553" x2="553" y1="168" y2="166"/>
<line clip-path="url(#clipPath2)" fill="none" x1="593" x2="593" y1="17" y2="21"/>
<line clip-path="url(#clipPath2)" fill="none" x1="593" x2="593" y1="170" y2="166"/>
<text font-size="11" x="584" y="14" clip-path="url(#clipPath2)" stroke="none" xml:space="preserve">1400</text>
<text font-size="11" x="584" y="182" clip-path="url(#clipPath2)" stroke="none" xml:space="preserve">1400</text>
<line clip-path="url(#clipPath2)" fill="none" x1="633" x2="633" y1="19" y2="21"/>
<line clip-path="url(#clipPath2)" fill="none" x1="633" x2="633" y1="168" y2="166"/>
<line clip-path="url(#clipPath2)" fill="none" x1="672" x2="672" y1="17" y2="21"/>
<line clip-path="url(#clipPath2)" fill="none" x1="672" x2="672" y1="170" y2="166"/>
<text font-size="11" x="663" y="14" clip-path="url(#clipPath2)" stroke="none" xml:space="preserve">1600</text>
<text font-size="11" x="663" y="182" clip-path="url(#clipPath2)" stroke="none" xml:space="preserve">1600</text>
<line clip-path="url(#clipPath2)" fill="none" x1="712" x2="712" y1="19" y2="21"/>
<line clip-path="url(#clipPath2)" fill="none" x1="712" x2="712" y1="168" y2="166"/>
<line clip-path="url(#clipPath2)" fill="none" x1="752" x2="752" y1="17" y2="21"/>
<line clip-path="url(#clipPath2)" fill="none" x1="752" x2="752" y1="170" y2="166"/>
<text font-size="11" x="743" y="14" clip-path="url(#clipPath2)" stroke="none" xml:space="preserve">1800</text>
<text font-size="11" x="743" y="182" clip-path="url(#clipPath2)" stroke="none" xml:space="preserve">1800</text>
<line clip-path="url(#clipPath2)" fill="none" x1="35" x2="35" y1="23" y2="164"/>
<line clip-path="url(#clipPath2)" fill="none" x1="769" x2="769" y1="23" y2="164"/>
<line clip-path="url(#clipPath2)" fill="none" x1="31" x2="35" y1="164" y2="164"/>
<line clip-path="url(#clipPath2)" fill="none" x1="773" x2="769" y1="164" y2="164"/>
<text font-size="11" x="10" y="169" clip-path="url(#clipPath2)" stroke="none" xml:space="preserve">0.00</text>
<text font-size="11" x="776" y="169" clip-path="url(#clipPath2)" stroke="none" xml:space="preserve">0.00</text>
<line clip-path="url(#clipPath2)" fill="none" x1="33" x2="35" y1="146" y2="146"/>
<line clip-path="url(#clipPath2)" fill="none" x1="771" x2="769" y1="146" y2="146"/>
<line clip-path="url(#clipPath2)" fill="none" x1="33" x2="35" y1="128" y2="128"/>
<line clip-path="url(#clipPath2)" fill="none" x1="771" x2="769" y1="128" y2="128"/>
<line clip-path="url(#clipPath2)" fill="none" x1="33" x2="35" y1="110" y2="110"/>
<line clip-path="url(#clipPath2)" fill="none" x1="771" x2="769" y1="110" y2="110"/>
<line clip-path="url(#clipPath2)" fill="none" x1="33" x2="35" y1="92" y2="92"/>
<line clip-path="url(#clipPath2)" fill="none" x1="771" x2="769" y1="92" y2="92"/>
<line clip-path="url(#clipPath2)" fill="none" x1="31" x2="35" y1="75" y2="75"/>
<line clip-path="url(#clipPath2)" fill="none" x1="773" x2="769" y1="75" y2="75"/>
<text font-size="11" x="5" y="80" clip-path="url(#clipPath2)" stroke="none" xml:space="preserve">0.010</text>
<text font-size="11" x="776" y="80" clip-path="url(#clipPath2)" stroke="none" xml:space="preserve">0.010</text>
<line clip-path="url(#clipPath2)" fill="none" x1="33" x2="35" y1="57" y2="57"/>
<line clip-path="url(#clipPath2)" fill="none" x1="771" x2="769" y1="57" y2="57"/>
<line clip-path="url(#clipPath2)" fill="none" x1="33" x2="35" y1="39" y2="39"/>
<line clip-path="url(#clipPath2)" fill="none" x1="771" x2="769" y1="39" y2="39"/>
</g>
</g>
</svg>
