<?xml version="1.0" encoding="UTF-8"?><svg xmlns="http://www.w3.org/2000/svg" xmlns:xlink="http://www.w3.org/1999/xlink" stroke-dasharray="none" shape-rendering="auto" font-family="'Dialog'" width="974" text-rendering="auto" fill-opacity="1" contentScriptType="text/ecmascript" color-interpolation="auto" color-rendering="auto" preserveAspectRatio="xMidYMid meet" font-size="12" fill="black" stroke="black" image-rendering="auto" stroke-miterlimit="10" zoomAndPan="magnify" version="1.0" stroke-linecap="square" stroke-linejoin="miter" contentStyleType="text/css" font-style="normal" height="262" stroke-width="1" stroke-dashoffset="0" font-weight="normal" stroke-opacity="1">
<!--Generated by the Batik Graphics2D SVG Generator-->
<defs id="genericDefs"/>
<g>
<defs id="defs1">
<clipPath clipPathUnits="userSpaceOnUse" id="clipPath1">
<path d="M34 22 L940 22 L940 240 L34 240 L34 22 Z"/>
</clipPath>
<clipPath clipPathUnits="userSpaceOnUse" id="clipPath2">
<path d="M-1 -1 L975 -1 L975 263 L-1 263 L-1 -1 Z"/>
</clipPath>
</defs>
<g font-size="15" fill="white" text-rendering="geometricPrecision" font-family="'Ubuntu'" stroke-linejoin="round" stroke="white" stroke-width="0" stroke-miterlimit="0">
<rect x="35" y="23" clip-path="url(#clipPath1)" width="904" height="216" stroke="none"/>
</g>
<g font-size="15" stroke-linecap="butt" fill="rgb(204,204,204)" text-rendering="geometricPrecision" font-family="'Ubuntu'" stroke-dasharray="3,3" stroke="rgb(204,204,204)">
<line clip-path="url(#clipPath1)" fill="none" x1="35" x2="35" y1="23" y2="239"/>
<line clip-path="url(#clipPath1)" fill="none" x1="93" x2="93" y1="23" y2="239"/>
<line clip-path="url(#clipPath1)" fill="none" x1="152" x2="152" y1="23" y2="239"/>
<line clip-path="url(#clipPath1)" fill="none" x1="211" x2="211" y1="23" y2="239"/>
<line clip-path="url(#clipPath1)" fill="none" x1="270" x2="270" y1="23" y2="239"/>
<line clip-path="url(#clipPath1)" fill="none" x1="328" x2="328" y1="23" y2="239"/>
<line clip-path="url(#clipPath1)" fill="none" x1="387" x2="387" y1="23" y2="239"/>
<line clip-path="url(#clipPath1)" fill="none" x1="446" x2="446" y1="23" y2="239"/>
<line clip-path="url(#clipPath1)" fill="none" x1="505" x2="505" y1="23" y2="239"/>
<line clip-path="url(#clipPath1)" fill="none" x1="563" x2="563" y1="23" y2="239"/>
<line clip-path="url(#clipPath1)" fill="none" x1="622" x2="622" y1="23" y2="239"/>
<line clip-path="url(#clipPath1)" fill="none" x1="681" x2="681" y1="23" y2="239"/>
<line clip-path="url(#clipPath1)" fill="none" x1="740" x2="740" y1="23" y2="239"/>
<line clip-path="url(#clipPath1)" fill="none" x1="799" x2="799" y1="23" y2="239"/>
<line clip-path="url(#clipPath1)" fill="none" x1="857" x2="857" y1="23" y2="239"/>
<line clip-path="url(#clipPath1)" fill="none" x1="916" x2="916" y1="23" y2="239"/>
<line clip-path="url(#clipPath1)" fill="none" x1="35" x2="939" y1="239" y2="239"/>
<line clip-path="url(#clipPath1)" fill="none" x1="35" x2="939" y1="175" y2="175"/>
<line clip-path="url(#clipPath1)" fill="none" x1="35" x2="939" y1="112" y2="112"/>
<line clip-path="url(#clipPath1)" fill="none" x1="35" x2="939" y1="48" y2="48"/>
<rect x="299" y="237" clip-path="url(#clipPath1)" fill="rgb(0,0,139)" width="5" height="5" stroke="none"/>
</g>
<g font-size="15" stroke-linecap="butt" fill="rgb(0,0,139)" text-rendering="geometricPrecision" font-family="'Ubuntu'" shape-rendering="crispEdges" stroke="rgb(0,0,139)">
<line clip-path="url(#clipPath1)" fill="none" x1="301" x2="301" y1="239" y2="188"/>
<rect x="299" y="186" clip-path="url(#clipPath1)" width="5" shape-rendering="auto" height="5" stroke="none"/>
<line clip-path="url(#clipPath1)" fill="none" x1="301" x2="301" y1="188" y2="148"/>
<rect x="299" y="146" clip-path="url(#clipPath1)" width="5" shape-rendering="auto" height="5" stroke="none"/>
<line clip-path="url(#clipPath1)" fill="none" x1="301" x2="301" y1="148" y2="112"/>
<rect x="299" y="110" clip-path="url(#clipPath1)" width="5" shape-rendering="auto" height="5" stroke="none"/>
<line clip-path="url(#clipPath1)" fill="none" x1="301" x2="302" y1="112" y2="105" shape-rendering="auto"/>
<rect x="300" y="103" clip-path="url(#clipPath1)" width="5" shape-rendering="auto" height="5" stroke="none"/>
<line clip-path="url(#clipPath1)" fill="none" x1="302" x2="302" y1="105" y2="84"/>
<rect x="300" y="82" clip-path="url(#clipPath1)" width="5" shape-rendering="auto" height="5" stroke="none"/>
<rect x="300" y="89" clip-path="url(#clipPath1)" width="5" shape-rendering="auto" height="5" stroke="none"/>
<line clip-path="url(#clipPath1)" fill="none" x1="302" x2="302" y1="84" y2="77"/>
<rect x="300" y="75" clip-path="url(#clipPath1)" width="5" shape-rendering="auto" height="5" stroke="none"/>
<rect x="300" y="93" clip-path="url(#clipPath1)" width="5" shape-rendering="auto" height="5" stroke="none"/>
<line clip-path="url(#clipPath1)" fill="none" x1="302" x2="303" y1="95" y2="153" shape-rendering="auto"/>
<rect x="301" y="151" clip-path="url(#clipPath1)" width="5" shape-rendering="auto" height="5" stroke="none"/>
<line clip-path="url(#clipPath1)" fill="none" x1="303" x2="362" y1="153" y2="198" shape-rendering="auto"/>
<rect x="360" y="196" clip-path="url(#clipPath1)" width="5" shape-rendering="auto" height="5" stroke="none"/>
<line clip-path="url(#clipPath1)" fill="none" x1="362" x2="362" y1="198" y2="195"/>
<rect x="360" y="193" clip-path="url(#clipPath1)" width="5" shape-rendering="auto" height="5" stroke="none"/>
<line clip-path="url(#clipPath1)" fill="none" x1="362" x2="390" y1="195" y2="201" shape-rendering="auto"/>
<rect x="388" y="199" clip-path="url(#clipPath1)" width="5" shape-rendering="auto" height="5" stroke="none"/>
<line clip-path="url(#clipPath1)" fill="none" x1="390" x2="418" y1="201" y2="200" shape-rendering="auto"/>
<rect x="416" y="198" clip-path="url(#clipPath1)" width="5" shape-rendering="auto" height="5" stroke="none"/>
<line clip-path="url(#clipPath1)" fill="none" x1="418" x2="418" y1="200" y2="194"/>
<rect x="416" y="192" clip-path="url(#clipPath1)" width="5" shape-rendering="auto" height="5" stroke="none"/>
<line clip-path="url(#clipPath1)" fill="none" x1="418" x2="418" y1="194" y2="191"/>
<rect x="416" y="189" clip-path="url(#clipPath1)" width="5" shape-rendering="auto" height="5" stroke="none"/>
<line clip-path="url(#clipPath1)" fill="none" x1="418" x2="419" y1="191" y2="188" shape-rendering="auto"/>
<rect x="417" y="186" clip-path="url(#clipPath1)" width="5" shape-rendering="auto" height="5" stroke="none"/>
<line clip-path="url(#clipPath1)" fill="none" x1="419" x2="419" y1="188" y2="189"/>
<rect x="417" y="187" clip-path="url(#clipPath1)" width="5" shape-rendering="auto" height="5" stroke="none"/>
<line clip-path="url(#clipPath1)" fill="none" x1="419" x2="419" y1="188" y2="186"/>
<rect x="417" y="184" clip-path="url(#clipPath1)" width="5" shape-rendering="auto" height="5" stroke="none"/>
<line clip-path="url(#clipPath1)" fill="none" x1="419" x2="419" y1="186" y2="183"/>
<rect x="417" y="181" clip-path="url(#clipPath1)" width="5" shape-rendering="auto" height="5" stroke="none"/>
<line clip-path="url(#clipPath1)" fill="none" x1="419" x2="419" y1="183" y2="181"/>
<rect x="417" y="179" clip-path="url(#clipPath1)" width="5" shape-rendering="auto" height="5" stroke="none"/>
<line clip-path="url(#clipPath1)" fill="none" x1="419" x2="419" y1="181" y2="178"/>
<rect x="417" y="176" clip-path="url(#clipPath1)" width="5" shape-rendering="auto" height="5" stroke="none"/>
<line clip-path="url(#clipPath1)" fill="none" x1="419" x2="419" y1="178" y2="176"/>
<rect x="417" y="174" clip-path="url(#clipPath1)" width="5" shape-rendering="auto" height="5" stroke="none"/>
<line clip-path="url(#clipPath1)" fill="none" x1="419" x2="419" y1="176" y2="173"/>
<rect x="417" y="171" clip-path="url(#clipPath1)" width="5" shape-rendering="auto" height="5" stroke="none"/>
<line clip-path="url(#clipPath1)" fill="none" x1="419" x2="419" y1="173" y2="168"/>
<rect x="417" y="166" clip-path="url(#clipPath1)" width="5" shape-rendering="auto" height="5" stroke="none"/>
<line clip-path="url(#clipPath1)" fill="none" x1="419" x2="419" y1="168" y2="166"/>
<rect x="417" y="164" clip-path="url(#clipPath1)" width="5" shape-rendering="auto" height="5" stroke="none"/>
<line clip-path="url(#clipPath1)" fill="none" x1="419" x2="419" y1="166" y2="164"/>
<rect x="417" y="162" clip-path="url(#clipPath1)" width="5" shape-rendering="auto" height="5" stroke="none"/>
<line clip-path="url(#clipPath1)" fill="none" x1="419" x2="419" y1="164" y2="162"/>
<rect x="417" y="160" clip-path="url(#clipPath1)" width="5" shape-rendering="auto" height="5" stroke="none"/>
<line clip-path="url(#clipPath1)" fill="none" x1="419" x2="419" y1="162" y2="159"/>
<rect x="417" y="157" clip-path="url(#clipPath1)" width="5" shape-rendering="auto" height="5" stroke="none"/>
<line clip-path="url(#clipPath1)" fill="none" x1="419" x2="419" y1="159" y2="158"/>
<rect x="417" y="156" clip-path="url(#clipPath1)" width="5" shape-rendering="auto" height="5" stroke="none"/>
<line clip-path="url(#clipPath1)" fill="none" x1="419" x2="419" y1="158" y2="156"/>
<rect x="417" y="154" clip-path="url(#clipPath1)" width="5" shape-rendering="auto" height="5" stroke="none"/>
<line clip-path="url(#clipPath1)" fill="none" x1="419" x2="447" y1="156" y2="159" shape-rendering="auto"/>
<rect x="445" y="157" clip-path="url(#clipPath1)" width="5" shape-rendering="auto" height="5" stroke="none"/>
<line clip-path="url(#clipPath1)" fill="none" x1="447" x2="482" y1="159" y2="179" shape-rendering="auto"/>
<rect x="480" y="177" clip-path="url(#clipPath1)" width="5" shape-rendering="auto" height="5" stroke="none"/>
<line clip-path="url(#clipPath1)" fill="none" x1="482" x2="568" y1="179" y2="200" shape-rendering="auto"/>
<rect x="566" y="198" clip-path="url(#clipPath1)" width="5" shape-rendering="auto" height="5" stroke="none"/>
<line clip-path="url(#clipPath1)" fill="none" x1="568" x2="568" y1="200" y2="199"/>
<rect x="566" y="197" clip-path="url(#clipPath1)" width="5" shape-rendering="auto" height="5" stroke="none"/>
<line clip-path="url(#clipPath1)" fill="none" x1="568" x2="568" y1="199" y2="198"/>
<rect x="566" y="196" clip-path="url(#clipPath1)" width="5" shape-rendering="auto" height="5" stroke="none"/>
<line clip-path="url(#clipPath1)" fill="none" x1="568" x2="568" y1="198" y2="197"/>
<rect x="566" y="195" clip-path="url(#clipPath1)" width="5" shape-rendering="auto" height="5" stroke="none"/>
<line clip-path="url(#clipPath1)" fill="none" x1="568" x2="568" y1="197" y2="196"/>
<rect x="566" y="194" clip-path="url(#clipPath1)" width="5" shape-rendering="auto" height="5" stroke="none"/>
<line clip-path="url(#clipPath1)" fill="none" x1="568" x2="568" y1="196" y2="195"/>
<rect x="566" y="193" clip-path="url(#clipPath1)" width="5" shape-rendering="auto" height="5" stroke="none"/>
<line clip-path="url(#clipPath1)" fill="none" x1="568" x2="568" y1="195" y2="194"/>
<rect x="566" y="192" clip-path="url(#clipPath1)" width="5" shape-rendering="auto" height="5" stroke="none"/>
<line clip-path="url(#clipPath1)" fill="none" x1="568" x2="568" y1="194" y2="191"/>
<rect x="566" y="189" clip-path="url(#clipPath1)" width="5" shape-rendering="auto" height="5" stroke="none"/>
<line clip-path="url(#clipPath1)" fill="none" x1="568" x2="568" y1="191" y2="190"/>
<rect x="566" y="188" clip-path="url(#clipPath1)" width="5" shape-rendering="auto" height="5" stroke="none"/>
<line clip-path="url(#clipPath1)" fill="none" x1="568" x2="568" y1="190" y2="189"/>
<rect x="566" y="187" clip-path="url(#clipPath1)" width="5" shape-rendering="auto" height="5" stroke="none"/>
<line clip-path="url(#clipPath1)" fill="none" x1="568" x2="687" y1="189" y2="192" shape-rendering="auto"/>
<rect x="685" y="190" clip-path="url(#clipPath1)" width="5" shape-rendering="auto" height="5" stroke="none"/>
<line clip-path="url(#clipPath1)" fill="none" x1="687" x2="687" y1="192" y2="191"/>
<rect x="685" y="189" clip-path="url(#clipPath1)" width="5" shape-rendering="auto" height="5" stroke="none"/>
<line clip-path="url(#clipPath1)" fill="none" x1="687" x2="687" y1="191" y2="190"/>
<rect x="685" y="188" clip-path="url(#clipPath1)" width="5" shape-rendering="auto" height="5" stroke="none"/>
<line clip-path="url(#clipPath1)" fill="none" x1="687" x2="687" y1="190" y2="188"/>
<rect x="685" y="186" clip-path="url(#clipPath1)" width="5" shape-rendering="auto" height="5" stroke="none"/>
<line clip-path="url(#clipPath1)" fill="none" x1="687" x2="687" y1="188" y2="187"/>
<rect x="685" y="185" clip-path="url(#clipPath1)" width="5" shape-rendering="auto" height="5" stroke="none"/>
<line clip-path="url(#clipPath1)" fill="none" x1="687" x2="860" y1="187" y2="196" shape-rendering="auto"/>
<rect x="858" y="194" clip-path="url(#clipPath1)" width="5" shape-rendering="auto" height="5" stroke="none"/>
<line clip-path="url(#clipPath1)" fill="none" x1="860" x2="860" y1="196" y2="195"/>
<rect x="858" y="193" clip-path="url(#clipPath1)" width="5" shape-rendering="auto" height="5" stroke="none"/>
<line clip-path="url(#clipPath1)" fill="none" x1="860" x2="860" y1="195" y2="194"/>
<rect x="858" y="192" clip-path="url(#clipPath1)" width="5" shape-rendering="auto" height="5" stroke="none"/>
<line clip-path="url(#clipPath1)" fill="none" x1="860" x2="860" y1="194" y2="193"/>
<rect x="858" y="191" clip-path="url(#clipPath1)" width="5" shape-rendering="auto" height="5" stroke="none"/>
<line clip-path="url(#clipPath1)" fill="none" x1="860" x2="861" y1="193" y2="193" shape-rendering="auto"/>
<rect x="859" y="191" clip-path="url(#clipPath1)" width="5" shape-rendering="auto" height="5" stroke="none"/>
<line clip-path="url(#clipPath1)" fill="none" x1="861" x2="926" y1="193" y2="193" shape-rendering="auto"/>
<rect x="924" y="191" clip-path="url(#clipPath1)" width="5" shape-rendering="auto" height="5" stroke="none"/>
<line clip-path="url(#clipPath1)" fill="none" x1="926" x2="926" y1="193" y2="191"/>
<rect x="924" y="189" clip-path="url(#clipPath1)" width="5" shape-rendering="auto" height="5" stroke="none"/>
<line clip-path="url(#clipPath1)" fill="none" x1="926" x2="927" y1="191" y2="193" shape-rendering="auto"/>
<rect x="925" y="191" clip-path="url(#clipPath1)" width="5" shape-rendering="auto" height="5" stroke="none"/>
<rect x="35" y="23" clip-path="url(#clipPath2)" fill="none" width="904" shape-rendering="auto" height="216" stroke="black"/>
</g>
<g text-rendering="geometricPrecision" font-size="13" stroke-linecap="butt">
<line clip-path="url(#clipPath2)" fill="none" x1="35" x2="939" y1="21" y2="21"/>
<line clip-path="url(#clipPath2)" fill="none" x1="35" x2="939" y1="241" y2="241"/>
<text xml:space="preserve" x="487" y="259" clip-path="url(#clipPath2)" stroke="none"/>
<line clip-path="url(#clipPath2)" fill="none" x1="35" x2="35" y1="17" y2="21"/>
<line clip-path="url(#clipPath2)" fill="none" x1="35" x2="35" y1="245" y2="241"/>
<text font-size="11" x="34" y="14" clip-path="url(#clipPath2)" stroke="none" xml:space="preserve">0</text>
<text font-size="11" x="34" y="257" clip-path="url(#clipPath2)" stroke="none" xml:space="preserve">0</text>
<line clip-path="url(#clipPath2)" fill="none" x1="64" x2="64" y1="19" y2="21"/>
<line clip-path="url(#clipPath2)" fill="none" x1="64" x2="64" y1="243" y2="241"/>
<line clip-path="url(#clipPath2)" fill="none" x1="93" x2="93" y1="17" y2="21"/>
<line clip-path="url(#clipPath2)" fill="none" x1="93" x2="93" y1="245" y2="241"/>
<text font-size="11" x="87" y="14" clip-path="url(#clipPath2)" stroke="none" xml:space="preserve">200</text>
<text font-size="11" x="87" y="257" clip-path="url(#clipPath2)" stroke="none" xml:space="preserve">200</text>
<line clip-path="url(#clipPath2)" fill="none" x1="123" x2="123" y1="19" y2="21"/>
<line clip-path="url(#clipPath2)" fill="none" x1="123" x2="123" y1="243" y2="241"/>
<line clip-path="url(#clipPath2)" fill="none" x1="152" x2="152" y1="17" y2="21"/>
<line clip-path="url(#clipPath2)" fill="none" x1="152" x2="152" y1="245" y2="241"/>
<text font-size="11" x="146" y="14" clip-path="url(#clipPath2)" stroke="none" xml:space="preserve">400</text>
<text font-size="11" x="146" y="257" clip-path="url(#clipPath2)" stroke="none" xml:space="preserve">400</text>
<line clip-path="url(#clipPath2)" fill="none" x1="181" x2="181" y1="19" y2="21"/>
<line clip-path="url(#clipPath2)" fill="none" x1="181" x2="181" y1="243" y2="241"/>
<line clip-path="url(#clipPath2)" fill="none" x1="211" x2="211" y1="17" y2="21"/>
<line clip-path="url(#clipPath2)" fill="none" x1="211" x2="211" y1="245" y2="241"/>
<text font-size="11" x="205" y="14" clip-path="url(#clipPath2)" stroke="none" xml:space="preserve">600</text>
<text font-size="11" x="205" y="257" clip-path="url(#clipPath2)" stroke="none" xml:space="preserve">600</text>
<line clip-path="url(#clipPath2)" fill="none" x1="240" x2="240" y1="19" y2="21"/>
<line clip-path="url(#clipPath2)" fill="none" x1="240" x2="240" y1="243" y2="241"/>
<line clip-path="url(#clipPath2)" fill="none" x1="270" x2="270" y1="17" y2="21"/>
<line clip-path="url(#clipPath2)" fill="none" x1="270" x2="270" y1="245" y2="241"/>
<text font-size="11" x="264" y="14" clip-path="url(#clipPath2)" stroke="none" xml:space="preserve">800</text>
<text font-size="11" x="264" y="257" clip-path="url(#clipPath2)" stroke="none" xml:space="preserve">800</text>
<line clip-path="url(#clipPath2)" fill="none" x1="299" x2="299" y1="19" y2="21"/>
<line clip-path="url(#clipPath2)" fill="none" x1="299" x2="299" y1="243" y2="241"/>
<line clip-path="url(#clipPath2)" fill="none" x1="328" x2="328" y1="17" y2="21"/>
<line clip-path="url(#clipPath2)" fill="none" x1="328" x2="328" y1="245" y2="241"/>
<text font-size="11" x="319" y="14" clip-path="url(#clipPath2)" stroke="none" xml:space="preserve">1000</text>
<text font-size="11" x="319" y="257" clip-path="url(#clipPath2)" stroke="none" xml:space="preserve">1000</text>
<line clip-path="url(#clipPath2)" fill="none" x1="358" x2="358" y1="19" y2="21"/>
<line clip-path="url(#clipPath2)" fill="none" x1="358" x2="358" y1="243" y2="241"/>
<line clip-path="url(#clipPath2)" fill="none" x1="387" x2="387" y1="17" y2="21"/>
<line clip-path="url(#clipPath2)" fill="none" x1="387" x2="387" y1="245" y2="241"/>
<text font-size="11" x="378" y="14" clip-path="url(#clipPath2)" stroke="none" xml:space="preserve">1200</text>
<text font-size="11" x="378" y="257" clip-path="url(#clipPath2)" stroke="none" xml:space="preserve">1200</text>
<line clip-path="url(#clipPath2)" fill="none" x1="417" x2="417" y1="19" y2="21"/>
<line clip-path="url(#clipPath2)" fill="none" x1="417" x2="417" y1="243" y2="241"/>
<line clip-path="url(#clipPath2)" fill="none" x1="446" x2="446" y1="17" y2="21"/>
<line clip-path="url(#clipPath2)" fill="none" x1="446" x2="446" y1="245" y2="241"/>
<text font-size="11" x="437" y="14" clip-path="url(#clipPath2)" stroke="none" xml:space="preserve">1400</text>
<text font-size="11" x="437" y="257" clip-path="url(#clipPath2)" stroke="none" xml:space="preserve">1400</text>
<line clip-path="url(#clipPath2)" fill="none" x1="475" x2="475" y1="19" y2="21"/>
<line clip-path="url(#clipPath2)" fill="none" x1="475" x2="475" y1="243" y2="241"/>
<line clip-path="url(#clipPath2)" fill="none" x1="505" x2="505" y1="17" y2="21"/>
<line clip-path="url(#clipPath2)" fill="none" x1="505" x2="505" y1="245" y2="241"/>
<text font-size="11" x="496" y="14" clip-path="url(#clipPath2)" stroke="none" xml:space="preserve">1600</text>
<text font-size="11" x="496" y="257" clip-path="url(#clipPath2)" stroke="none" xml:space="preserve">1600</text>
<line clip-path="url(#clipPath2)" fill="none" x1="534" x2="534" y1="19" y2="21"/>
<line clip-path="url(#clipPath2)" fill="none" x1="534" x2="534" y1="243" y2="241"/>
<line clip-path="url(#clipPath2)" fill="none" x1="563" x2="563" y1="17" y2="21"/>
<line clip-path="url(#clipPath2)" fill="none" x1="563" x2="563" y1="245" y2="241"/>
<text font-size="11" x="554" y="14" clip-path="url(#clipPath2)" stroke="none" xml:space="preserve">1800</text>
<text font-size="11" x="554" y="257" clip-path="url(#clipPath2)" stroke="none" xml:space="preserve">1800</text>
<line clip-path="url(#clipPath2)" fill="none" x1="593" x2="593" y1="19" y2="21"/>
<line clip-path="url(#clipPath2)" fill="none" x1="593" x2="593" y1="243" y2="241"/>
<line clip-path="url(#clipPath2)" fill="none" x1="622" x2="622" y1="17" y2="21"/>
<line clip-path="url(#clipPath2)" fill="none" x1="622" x2="622" y1="245" y2="241"/>
<text font-size="11" x="613" y="14" clip-path="url(#clipPath2)" stroke="none" xml:space="preserve">2000</text>
<text font-size="11" x="613" y="257" clip-path="url(#clipPath2)" stroke="none" xml:space="preserve">2000</text>
<line clip-path="url(#clipPath2)" fill="none" x1="652" x2="652" y1="19" y2="21"/>
<line clip-path="url(#clipPath2)" fill="none" x1="652" x2="652" y1="243" y2="241"/>
<line clip-path="url(#clipPath2)" fill="none" x1="681" x2="681" y1="17" y2="21"/>
<line clip-path="url(#clipPath2)" fill="none" x1="681" x2="681" y1="245" y2="241"/>
<text font-size="11" x="672" y="14" clip-path="url(#clipPath2)" stroke="none" xml:space="preserve">2200</text>
<text font-size="11" x="672" y="257" clip-path="url(#clipPath2)" stroke="none" xml:space="preserve">2200</text>
<line clip-path="url(#clipPath2)" fill="none" x1="710" x2="710" y1="19" y2="21"/>
<line clip-path="url(#clipPath2)" fill="none" x1="710" x2="710" y1="243" y2="241"/>
<line clip-path="url(#clipPath2)" fill="none" x1="740" x2="740" y1="17" y2="21"/>
<line clip-path="url(#clipPath2)" fill="none" x1="740" x2="740" y1="245" y2="241"/>
<text font-size="11" x="731" y="14" clip-path="url(#clipPath2)" stroke="none" xml:space="preserve">2400</text>
<text font-size="11" x="731" y="257" clip-path="url(#clipPath2)" stroke="none" xml:space="preserve">2400</text>
<line clip-path="url(#clipPath2)" fill="none" x1="769" x2="769" y1="19" y2="21"/>
<line clip-path="url(#clipPath2)" fill="none" x1="769" x2="769" y1="243" y2="241"/>
<line clip-path="url(#clipPath2)" fill="none" x1="799" x2="799" y1="17" y2="21"/>
<line clip-path="url(#clipPath2)" fill="none" x1="799" x2="799" y1="245" y2="241"/>
<text font-size="11" x="790" y="14" clip-path="url(#clipPath2)" stroke="none" xml:space="preserve">2600</text>
<text font-size="11" x="790" y="257" clip-path="url(#clipPath2)" stroke="none" xml:space="preserve">2600</text>
<line clip-path="url(#clipPath2)" fill="none" x1="828" x2="828" y1="19" y2="21"/>
<line clip-path="url(#clipPath2)" fill="none" x1="828" x2="828" y1="243" y2="241"/>
<line clip-path="url(#clipPath2)" fill="none" x1="857" x2="857" y1="17" y2="21"/>
<line clip-path="url(#clipPath2)" fill="none" x1="857" x2="857" y1="245" y2="241"/>
<text font-size="11" x="848" y="14" clip-path="url(#clipPath2)" stroke="none" xml:space="preserve">2800</text>
<text font-size="11" x="848" y="257" clip-path="url(#clipPath2)" stroke="none" xml:space="preserve">2800</text>
<line clip-path="url(#clipPath2)" fill="none" x1="887" x2="887" y1="19" y2="21"/>
<line clip-path="url(#clipPath2)" fill="none" x1="887" x2="887" y1="243" y2="241"/>
<line clip-path="url(#clipPath2)" fill="none" x1="916" x2="916" y1="17" y2="21"/>
<line clip-path="url(#clipPath2)" fill="none" x1="916" x2="916" y1="245" y2="241"/>
<text font-size="11" x="907" y="14" clip-path="url(#clipPath2)" stroke="none" xml:space="preserve">3000</text>
<text font-size="11" x="907" y="257" clip-path="url(#clipPath2)" stroke="none" xml:space="preserve">3000</text>
<line clip-path="url(#clipPath2)" fill="none" x1="33" x2="33" y1="23" y2="239"/>
<line clip-path="url(#clipPath2)" fill="none" x1="941" x2="941" y1="23" y2="239"/>
<line clip-path="url(#clipPath2)" fill="none" x1="29" x2="33" y1="239" y2="239"/>
<line clip-path="url(#clipPath2)" fill="none" x1="945" x2="941" y1="239" y2="239"/>
<text font-size="11" x="13" y="244" clip-path="url(#clipPath2)" stroke="none" xml:space="preserve">0.0</text>
<text font-size="11" x="948" y="244" clip-path="url(#clipPath2)" stroke="none" xml:space="preserve">0.0</text>
<line clip-path="url(#clipPath2)" fill="none" x1="31" x2="33" y1="226" y2="226"/>
<line clip-path="url(#clipPath2)" fill="none" x1="943" x2="941" y1="226" y2="226"/>
<line clip-path="url(#clipPath2)" fill="none" x1="31" x2="33" y1="213" y2="213"/>
<line clip-path="url(#clipPath2)" fill="none" x1="943" x2="941" y1="213" y2="213"/>
<line clip-path="url(#clipPath2)" fill="none" x1="31" x2="33" y1="200" y2="200"/>
<line clip-path="url(#clipPath2)" fill="none" x1="943" x2="941" y1="200" y2="200"/>
<line clip-path="url(#clipPath2)" fill="none" x1="31" x2="33" y1="188" y2="188"/>
<line clip-path="url(#clipPath2)" fill="none" x1="943" x2="941" y1="188" y2="188"/>
<line clip-path="url(#clipPath2)" fill="none" x1="29" x2="33" y1="175" y2="175"/>
<line clip-path="url(#clipPath2)" fill="none" x1="945" x2="941" y1="175" y2="175"/>
<text font-size="11" x="8" y="180" clip-path="url(#clipPath2)" stroke="none" xml:space="preserve">0.05</text>
<text font-size="11" x="948" y="180" clip-path="url(#clipPath2)" stroke="none" xml:space="preserve">0.05</text>
<line clip-path="url(#clipPath2)" fill="none" x1="31" x2="33" y1="162" y2="162"/>
<line clip-path="url(#clipPath2)" fill="none" x1="943" x2="941" y1="162" y2="162"/>
<line clip-path="url(#clipPath2)" fill="none" x1="31" x2="33" y1="150" y2="150"/>
<line clip-path="url(#clipPath2)" fill="none" x1="943" x2="941" y1="150" y2="150"/>
<line clip-path="url(#clipPath2)" fill="none" x1="31" x2="33" y1="137" y2="137"/>
<line clip-path="url(#clipPath2)" fill="none" x1="943" x2="941" y1="137" y2="137"/>
<line clip-path="url(#clipPath2)" fill="none" x1="31" x2="33" y1="124" y2="124"/>
<line clip-path="url(#clipPath2)" fill="none" x1="943" x2="941" y1="124" y2="124"/>
<line clip-path="url(#clipPath2)" fill="none" x1="29" x2="33" y1="112" y2="112"/>
<line clip-path="url(#clipPath2)" fill="none" x1="945" x2="941" y1="112" y2="112"/>
<text font-size="11" x="8" y="117" clip-path="url(#clipPath2)" stroke="none" xml:space="preserve">0.10</text>
<text font-size="11" x="948" y="117" clip-path="url(#clipPath2)" stroke="none" xml:space="preserve">0.10</text>
<line clip-path="url(#clipPath2)" fill="none" x1="31" x2="33" y1="99" y2="99"/>
<line clip-path="url(#clipPath2)" fill="none" x1="943" x2="941" y1="99" y2="99"/>
<line clip-path="url(#clipPath2)" fill="none" x1="31" x2="33" y1="86" y2="86"/>
<line clip-path="url(#clipPath2)" fill="none" x1="943" x2="941" y1="86" y2="86"/>
<line clip-path="url(#clipPath2)" fill="none" x1="31" x2="33" y1="74" y2="74"/>
<line clip-path="url(#clipPath2)" fill="none" x1="943" x2="941" y1="74" y2="74"/>
<line clip-path="url(#clipPath2)" fill="none" x1="31" x2="33" y1="61" y2="61"/>
<line clip-path="url(#clipPath2)" fill="none" x1="943" x2="941" y1="61" y2="61"/>
<line clip-path="url(#clipPath2)" fill="none" x1="29" x2="33" y1="48" y2="48"/>
<line clip-path="url(#clipPath2)" fill="none" x1="945" x2="941" y1="48" y2="48"/>
<text font-size="11" x="8" y="53" clip-path="url(#clipPath2)" stroke="none" xml:space="preserve">0.15</text>
<text font-size="11" x="948" y="53" clip-path="url(#clipPath2)" stroke="none" xml:space="preserve">0.15</text>
<line clip-path="url(#clipPath2)" fill="none" x1="31" x2="33" y1="35" y2="35"/>
<line clip-path="url(#clipPath2)" fill="none" x1="943" x2="941" y1="35" y2="35"/>
<line clip-path="url(#clipPath2)" fill="none" x1="31" x2="33" y1="23" y2="23"/>
<line clip-path="url(#clipPath2)" fill="none" x1="943" x2="941" y1="23" y2="23"/>
</g>
</g>
</svg>
