<?xml version="1.0" encoding="UTF-8"?><svg xmlns="http://www.w3.org/2000/svg" xmlns:xlink="http://www.w3.org/1999/xlink" stroke-dasharray="none" shape-rendering="auto" font-family="'Dialog'" width="974" text-rendering="auto" fill-opacity="1" contentScriptType="text/ecmascript" color-interpolation="auto" color-rendering="auto" preserveAspectRatio="xMidYMid meet" font-size="12" fill="black" stroke="black" image-rendering="auto" stroke-miterlimit="10" zoomAndPan="magnify" version="1.0" stroke-linecap="square" stroke-linejoin="miter" contentStyleType="text/css" font-style="normal" height="262" stroke-width="1" stroke-dashoffset="0" font-weight="normal" stroke-opacity="1">
<!--Generated by the Batik Graphics2D SVG Generator-->
<defs id="genericDefs"/>
<g>
<defs id="defs1">
<clipPath clipPathUnits="userSpaceOnUse" id="clipPath1">
<path d="M31 22 L943 22 L943 240 L31 240 L31 22 Z"/>
</clipPath>
<clipPath clipPathUnits="userSpaceOnUse" id="clipPath2">
<path d="M-1 -1 L975 -1 L975 263 L-1 263 L-1 -1 Z"/>
</clipPath>
</defs>
<g font-size="15" fill="white" text-rendering="geometricPrecision" font-family="'Ubuntu'" stroke-linejoin="round" stroke="white" stroke-width="0" stroke-miterlimit="0">
<rect x="32" y="23" clip-path="url(#clipPath1)" width="910" height="216" stroke="none"/>
</g>
<g font-size="15" stroke-linecap="butt" fill="rgb(204,204,204)" text-rendering="geometricPrecision" font-family="'Ubuntu'" stroke-dasharray="3,3" stroke="rgb(204,204,204)">
<line clip-path="url(#clipPath1)" fill="none" x1="32" x2="32" y1="23" y2="239"/>
<line clip-path="url(#clipPath1)" fill="none" x1="97" x2="97" y1="23" y2="239"/>
<line clip-path="url(#clipPath1)" fill="none" x1="162" x2="162" y1="23" y2="239"/>
<line clip-path="url(#clipPath1)" fill="none" x1="228" x2="228" y1="23" y2="239"/>
<line clip-path="url(#clipPath1)" fill="none" x1="293" x2="293" y1="23" y2="239"/>
<line clip-path="url(#clipPath1)" fill="none" x1="358" x2="358" y1="23" y2="239"/>
<line clip-path="url(#clipPath1)" fill="none" x1="424" x2="424" y1="23" y2="239"/>
<line clip-path="url(#clipPath1)" fill="none" x1="489" x2="489" y1="23" y2="239"/>
<line clip-path="url(#clipPath1)" fill="none" x1="554" x2="554" y1="23" y2="239"/>
<line clip-path="url(#clipPath1)" fill="none" x1="620" x2="620" y1="23" y2="239"/>
<line clip-path="url(#clipPath1)" fill="none" x1="685" x2="685" y1="23" y2="239"/>
<line clip-path="url(#clipPath1)" fill="none" x1="750" x2="750" y1="23" y2="239"/>
<line clip-path="url(#clipPath1)" fill="none" x1="816" x2="816" y1="23" y2="239"/>
<line clip-path="url(#clipPath1)" fill="none" x1="881" x2="881" y1="23" y2="239"/>
<line clip-path="url(#clipPath1)" fill="none" x1="32" x2="942" y1="239" y2="239"/>
<line clip-path="url(#clipPath1)" fill="none" x1="32" x2="942" y1="188" y2="188"/>
<line clip-path="url(#clipPath1)" fill="none" x1="32" x2="942" y1="137" y2="137"/>
<line clip-path="url(#clipPath1)" fill="none" x1="32" x2="942" y1="87" y2="87"/>
<line clip-path="url(#clipPath1)" fill="none" x1="32" x2="942" y1="36" y2="36"/>
<rect x="326" y="237" clip-path="url(#clipPath1)" fill="rgb(0,0,139)" width="5" height="5" stroke="none"/>
</g>
<g font-size="15" stroke-linecap="butt" fill="rgb(0,0,139)" text-rendering="geometricPrecision" font-family="'Ubuntu'" shape-rendering="crispEdges" stroke="rgb(0,0,139)">
<line clip-path="url(#clipPath1)" fill="none" x1="328" x2="328" y1="239" y2="236"/>
<rect x="326" y="234" clip-path="url(#clipPath1)" width="5" shape-rendering="auto" height="5" stroke="none"/>
<line clip-path="url(#clipPath1)" fill="none" x1="328" x2="328" y1="236" y2="233"/>
<rect x="326" y="231" clip-path="url(#clipPath1)" width="5" shape-rendering="auto" height="5" stroke="none"/>
<line clip-path="url(#clipPath1)" fill="none" x1="328" x2="328" y1="233" y2="231"/>
<rect x="326" y="229" clip-path="url(#clipPath1)" width="5" shape-rendering="auto" height="5" stroke="none"/>
<line clip-path="url(#clipPath1)" fill="none" x1="328" x2="328" y1="231" y2="228"/>
<rect x="326" y="226" clip-path="url(#clipPath1)" width="5" shape-rendering="auto" height="5" stroke="none"/>
<line clip-path="url(#clipPath1)" fill="none" x1="328" x2="328" y1="228" y2="226"/>
<rect x="326" y="224" clip-path="url(#clipPath1)" width="5" shape-rendering="auto" height="5" stroke="none"/>
<line clip-path="url(#clipPath1)" fill="none" x1="328" x2="328" y1="226" y2="223"/>
<rect x="326" y="221" clip-path="url(#clipPath1)" width="5" shape-rendering="auto" height="5" stroke="none"/>
<line clip-path="url(#clipPath1)" fill="none" x1="328" x2="329" y1="223" y2="223" shape-rendering="auto"/>
<rect x="327" y="221" clip-path="url(#clipPath1)" width="5" shape-rendering="auto" height="5" stroke="none"/>
<line clip-path="url(#clipPath1)" fill="none" x1="329" x2="330" y1="223" y2="221" shape-rendering="auto"/>
<rect x="328" y="219" clip-path="url(#clipPath1)" width="5" shape-rendering="auto" height="5" stroke="none"/>
<line clip-path="url(#clipPath1)" fill="none" x1="330" x2="330" y1="221" y2="218"/>
<rect x="328" y="216" clip-path="url(#clipPath1)" width="5" shape-rendering="auto" height="5" stroke="none"/>
<line clip-path="url(#clipPath1)" fill="none" x1="330" x2="331" y1="218" y2="216" shape-rendering="auto"/>
<rect x="329" y="214" clip-path="url(#clipPath1)" width="5" shape-rendering="auto" height="5" stroke="none"/>
<line clip-path="url(#clipPath1)" fill="none" x1="331" x2="395" y1="216" y2="213" shape-rendering="auto"/>
<rect x="393" y="211" clip-path="url(#clipPath1)" width="5" shape-rendering="auto" height="5" stroke="none"/>
<line clip-path="url(#clipPath1)" fill="none" x1="395" x2="395" y1="213" y2="211"/>
<rect x="393" y="209" clip-path="url(#clipPath1)" width="5" shape-rendering="auto" height="5" stroke="none"/>
<line clip-path="url(#clipPath1)" fill="none" x1="395" x2="395" y1="211" y2="208"/>
<rect x="393" y="206" clip-path="url(#clipPath1)" width="5" shape-rendering="auto" height="5" stroke="none"/>
<line clip-path="url(#clipPath1)" fill="none" x1="395" x2="396" y1="208" y2="206" shape-rendering="auto"/>
<rect x="394" y="204" clip-path="url(#clipPath1)" width="5" shape-rendering="auto" height="5" stroke="none"/>
<line clip-path="url(#clipPath1)" fill="none" x1="396" x2="396" y1="206" y2="203"/>
<rect x="394" y="201" clip-path="url(#clipPath1)" width="5" shape-rendering="auto" height="5" stroke="none"/>
<line clip-path="url(#clipPath1)" fill="none" x1="396" x2="427" y1="203" y2="201" shape-rendering="auto"/>
<rect x="425" y="199" clip-path="url(#clipPath1)" width="5" shape-rendering="auto" height="5" stroke="none"/>
<line clip-path="url(#clipPath1)" fill="none" x1="427" x2="427" y1="201" y2="198"/>
<rect x="425" y="196" clip-path="url(#clipPath1)" width="5" shape-rendering="auto" height="5" stroke="none"/>
<line clip-path="url(#clipPath1)" fill="none" x1="427" x2="458" y1="198" y2="193" shape-rendering="auto"/>
<rect x="456" y="191" clip-path="url(#clipPath1)" width="5" shape-rendering="auto" height="5" stroke="none"/>
<line clip-path="url(#clipPath1)" fill="none" x1="458" x2="458" y1="193" y2="188"/>
<rect x="456" y="186" clip-path="url(#clipPath1)" width="5" shape-rendering="auto" height="5" stroke="none"/>
<line clip-path="url(#clipPath1)" fill="none" x1="458" x2="458" y1="188" y2="185"/>
<rect x="456" y="183" clip-path="url(#clipPath1)" width="5" shape-rendering="auto" height="5" stroke="none"/>
<line clip-path="url(#clipPath1)" fill="none" x1="458" x2="458" y1="185" y2="183"/>
<rect x="456" y="181" clip-path="url(#clipPath1)" width="5" shape-rendering="auto" height="5" stroke="none"/>
<line clip-path="url(#clipPath1)" fill="none" x1="458" x2="458" y1="183" y2="180"/>
<rect x="456" y="178" clip-path="url(#clipPath1)" width="5" shape-rendering="auto" height="5" stroke="none"/>
<line clip-path="url(#clipPath1)" fill="none" x1="458" x2="458" y1="180" y2="178"/>
<rect x="456" y="176" clip-path="url(#clipPath1)" width="5" shape-rendering="auto" height="5" stroke="none"/>
<line clip-path="url(#clipPath1)" fill="none" x1="458" x2="458" y1="178" y2="175"/>
<rect x="456" y="173" clip-path="url(#clipPath1)" width="5" shape-rendering="auto" height="5" stroke="none"/>
<line clip-path="url(#clipPath1)" fill="none" x1="458" x2="459" y1="175" y2="173" shape-rendering="auto"/>
<rect x="457" y="171" clip-path="url(#clipPath1)" width="5" shape-rendering="auto" height="5" stroke="none"/>
<line clip-path="url(#clipPath1)" fill="none" x1="459" x2="459" y1="173" y2="170"/>
<rect x="457" y="168" clip-path="url(#clipPath1)" width="5" shape-rendering="auto" height="5" stroke="none"/>
<line clip-path="url(#clipPath1)" fill="none" x1="459" x2="459" y1="170" y2="168"/>
<rect x="457" y="166" clip-path="url(#clipPath1)" width="5" shape-rendering="auto" height="5" stroke="none"/>
<line clip-path="url(#clipPath1)" fill="none" x1="459" x2="459" y1="168" y2="165"/>
<rect x="457" y="163" clip-path="url(#clipPath1)" width="5" shape-rendering="auto" height="5" stroke="none"/>
<line clip-path="url(#clipPath1)" fill="none" x1="459" x2="459" y1="165" y2="160"/>
<rect x="457" y="158" clip-path="url(#clipPath1)" width="5" shape-rendering="auto" height="5" stroke="none"/>
<line clip-path="url(#clipPath1)" fill="none" x1="459" x2="459" y1="160" y2="158"/>
<rect x="457" y="156" clip-path="url(#clipPath1)" width="5" shape-rendering="auto" height="5" stroke="none"/>
<line clip-path="url(#clipPath1)" fill="none" x1="459" x2="459" y1="158" y2="155"/>
<rect x="457" y="153" clip-path="url(#clipPath1)" width="5" shape-rendering="auto" height="5" stroke="none"/>
<line clip-path="url(#clipPath1)" fill="none" x1="459" x2="459" y1="155" y2="152"/>
<rect x="457" y="150" clip-path="url(#clipPath1)" width="5" shape-rendering="auto" height="5" stroke="none"/>
<line clip-path="url(#clipPath1)" fill="none" x1="459" x2="459" y1="152" y2="150"/>
<rect x="457" y="148" clip-path="url(#clipPath1)" width="5" shape-rendering="auto" height="5" stroke="none"/>
<line clip-path="url(#clipPath1)" fill="none" x1="459" x2="490" y1="150" y2="147" shape-rendering="auto"/>
<rect x="488" y="145" clip-path="url(#clipPath1)" width="5" shape-rendering="auto" height="5" stroke="none"/>
<line clip-path="url(#clipPath1)" fill="none" x1="490" x2="490" y1="147" y2="145"/>
<rect x="488" y="143" clip-path="url(#clipPath1)" width="5" shape-rendering="auto" height="5" stroke="none"/>
<line clip-path="url(#clipPath1)" fill="none" x1="490" x2="529" y1="145" y2="142" shape-rendering="auto"/>
<rect x="527" y="140" clip-path="url(#clipPath1)" width="5" shape-rendering="auto" height="5" stroke="none"/>
<line clip-path="url(#clipPath1)" fill="none" x1="529" x2="623" y1="142" y2="140" shape-rendering="auto"/>
<rect x="621" y="138" clip-path="url(#clipPath1)" width="5" shape-rendering="auto" height="5" stroke="none"/>
<line clip-path="url(#clipPath1)" fill="none" x1="623" x2="623" y1="140" y2="137"/>
<rect x="621" y="135" clip-path="url(#clipPath1)" width="5" shape-rendering="auto" height="5" stroke="none"/>
<line clip-path="url(#clipPath1)" fill="none" x1="623" x2="623" y1="137" y2="135"/>
<rect x="621" y="133" clip-path="url(#clipPath1)" width="5" shape-rendering="auto" height="5" stroke="none"/>
<line clip-path="url(#clipPath1)" fill="none" x1="623" x2="623" y1="135" y2="132"/>
<rect x="621" y="130" clip-path="url(#clipPath1)" width="5" shape-rendering="auto" height="5" stroke="none"/>
<line clip-path="url(#clipPath1)" fill="none" x1="623" x2="623" y1="132" y2="130"/>
<rect x="621" y="128" clip-path="url(#clipPath1)" width="5" shape-rendering="auto" height="5" stroke="none"/>
<line clip-path="url(#clipPath1)" fill="none" x1="623" x2="624" y1="130" y2="127" shape-rendering="auto"/>
<rect x="622" y="125" clip-path="url(#clipPath1)" width="5" shape-rendering="auto" height="5" stroke="none"/>
<line clip-path="url(#clipPath1)" fill="none" x1="624" x2="624" y1="127" y2="125"/>
<rect x="622" y="123" clip-path="url(#clipPath1)" width="5" shape-rendering="auto" height="5" stroke="none"/>
<line clip-path="url(#clipPath1)" fill="none" x1="624" x2="694" y1="125" y2="122" shape-rendering="auto"/>
<rect x="692" y="120" clip-path="url(#clipPath1)" width="5" shape-rendering="auto" height="5" stroke="none"/>
<line clip-path="url(#clipPath1)" fill="none" x1="694" x2="694" y1="122" y2="120"/>
<rect x="692" y="118" clip-path="url(#clipPath1)" width="5" shape-rendering="auto" height="5" stroke="none"/>
<line clip-path="url(#clipPath1)" fill="none" x1="694" x2="694" y1="120" y2="117"/>
<rect x="692" y="115" clip-path="url(#clipPath1)" width="5" shape-rendering="auto" height="5" stroke="none"/>
<line clip-path="url(#clipPath1)" fill="none" x1="694" x2="694" y1="117" y2="114"/>
<rect x="692" y="112" clip-path="url(#clipPath1)" width="5" shape-rendering="auto" height="5" stroke="none"/>
<line clip-path="url(#clipPath1)" fill="none" x1="694" x2="694" y1="114" y2="107"/>
<rect x="692" y="105" clip-path="url(#clipPath1)" width="5" shape-rendering="auto" height="5" stroke="none"/>
<line clip-path="url(#clipPath1)" fill="none" x1="694" x2="694" y1="107" y2="104"/>
<rect x="692" y="102" clip-path="url(#clipPath1)" width="5" shape-rendering="auto" height="5" stroke="none"/>
<line clip-path="url(#clipPath1)" fill="none" x1="694" x2="695" y1="104" y2="102" shape-rendering="auto"/>
<rect x="693" y="100" clip-path="url(#clipPath1)" width="5" shape-rendering="auto" height="5" stroke="none"/>
<line clip-path="url(#clipPath1)" fill="none" x1="695" x2="695" y1="102" y2="99"/>
<rect x="693" y="97" clip-path="url(#clipPath1)" width="5" shape-rendering="auto" height="5" stroke="none"/>
<line clip-path="url(#clipPath1)" fill="none" x1="695" x2="695" y1="99" y2="97"/>
<rect x="693" y="95" clip-path="url(#clipPath1)" width="5" shape-rendering="auto" height="5" stroke="none"/>
<line clip-path="url(#clipPath1)" fill="none" x1="695" x2="695" y1="97" y2="94"/>
<rect x="693" y="92" clip-path="url(#clipPath1)" width="5" shape-rendering="auto" height="5" stroke="none"/>
<line clip-path="url(#clipPath1)" fill="none" x1="695" x2="695" y1="94" y2="92"/>
<rect x="693" y="90" clip-path="url(#clipPath1)" width="5" shape-rendering="auto" height="5" stroke="none"/>
<line clip-path="url(#clipPath1)" fill="none" x1="695" x2="695" y1="92" y2="89"/>
<rect x="693" y="87" clip-path="url(#clipPath1)" width="5" shape-rendering="auto" height="5" stroke="none"/>
<line clip-path="url(#clipPath1)" fill="none" x1="695" x2="695" y1="89" y2="87"/>
<rect x="693" y="85" clip-path="url(#clipPath1)" width="5" shape-rendering="auto" height="5" stroke="none"/>
<line clip-path="url(#clipPath1)" fill="none" x1="695" x2="756" y1="87" y2="84" shape-rendering="auto"/>
<rect x="754" y="82" clip-path="url(#clipPath1)" width="5" shape-rendering="auto" height="5" stroke="none"/>
<line clip-path="url(#clipPath1)" fill="none" x1="756" x2="757" y1="84" y2="82" shape-rendering="auto"/>
<rect x="755" y="80" clip-path="url(#clipPath1)" width="5" shape-rendering="auto" height="5" stroke="none"/>
<line clip-path="url(#clipPath1)" fill="none" x1="757" x2="757" y1="82" y2="79"/>
<rect x="755" y="77" clip-path="url(#clipPath1)" width="5" shape-rendering="auto" height="5" stroke="none"/>
<line clip-path="url(#clipPath1)" fill="none" x1="757" x2="930" y1="79" y2="76" shape-rendering="auto"/>
<rect x="928" y="74" clip-path="url(#clipPath1)" width="5" shape-rendering="auto" height="5" stroke="none"/>
<rect x="32" y="23" clip-path="url(#clipPath2)" fill="none" width="910" shape-rendering="auto" height="216" stroke="black"/>
</g>
<g text-rendering="geometricPrecision" font-size="13" stroke-linecap="butt">
<line clip-path="url(#clipPath2)" fill="none" x1="32" x2="942" y1="21" y2="21"/>
<line clip-path="url(#clipPath2)" fill="none" x1="32" x2="942" y1="241" y2="241"/>
<text xml:space="preserve" x="487" y="259" clip-path="url(#clipPath2)" stroke="none"/>
<line clip-path="url(#clipPath2)" fill="none" x1="32" x2="32" y1="17" y2="21"/>
<line clip-path="url(#clipPath2)" fill="none" x1="32" x2="32" y1="245" y2="241"/>
<text font-size="11" x="31" y="14" clip-path="url(#clipPath2)" stroke="none" xml:space="preserve">0</text>
<text font-size="11" x="31" y="257" clip-path="url(#clipPath2)" stroke="none" xml:space="preserve">0</text>
<line clip-path="url(#clipPath2)" fill="none" x1="64" x2="64" y1="19" y2="21"/>
<line clip-path="url(#clipPath2)" fill="none" x1="64" x2="64" y1="243" y2="241"/>
<line clip-path="url(#clipPath2)" fill="none" x1="97" x2="97" y1="17" y2="21"/>
<line clip-path="url(#clipPath2)" fill="none" x1="97" x2="97" y1="245" y2="241"/>
<text font-size="11" x="91" y="14" clip-path="url(#clipPath2)" stroke="none" xml:space="preserve">200</text>
<text font-size="11" x="91" y="257" clip-path="url(#clipPath2)" stroke="none" xml:space="preserve">200</text>
<line clip-path="url(#clipPath2)" fill="none" x1="130" x2="130" y1="19" y2="21"/>
<line clip-path="url(#clipPath2)" fill="none" x1="130" x2="130" y1="243" y2="241"/>
<line clip-path="url(#clipPath2)" fill="none" x1="162" x2="162" y1="17" y2="21"/>
<line clip-path="url(#clipPath2)" fill="none" x1="162" x2="162" y1="245" y2="241"/>
<text font-size="11" x="156" y="14" clip-path="url(#clipPath2)" stroke="none" xml:space="preserve">400</text>
<text font-size="11" x="156" y="257" clip-path="url(#clipPath2)" stroke="none" xml:space="preserve">400</text>
<line clip-path="url(#clipPath2)" fill="none" x1="195" x2="195" y1="19" y2="21"/>
<line clip-path="url(#clipPath2)" fill="none" x1="195" x2="195" y1="243" y2="241"/>
<line clip-path="url(#clipPath2)" fill="none" x1="228" x2="228" y1="17" y2="21"/>
<line clip-path="url(#clipPath2)" fill="none" x1="228" x2="228" y1="245" y2="241"/>
<text font-size="11" x="222" y="14" clip-path="url(#clipPath2)" stroke="none" xml:space="preserve">600</text>
<text font-size="11" x="222" y="257" clip-path="url(#clipPath2)" stroke="none" xml:space="preserve">600</text>
<line clip-path="url(#clipPath2)" fill="none" x1="260" x2="260" y1="19" y2="21"/>
<line clip-path="url(#clipPath2)" fill="none" x1="260" x2="260" y1="243" y2="241"/>
<line clip-path="url(#clipPath2)" fill="none" x1="293" x2="293" y1="17" y2="21"/>
<line clip-path="url(#clipPath2)" fill="none" x1="293" x2="293" y1="245" y2="241"/>
<text font-size="11" x="287" y="14" clip-path="url(#clipPath2)" stroke="none" xml:space="preserve">800</text>
<text font-size="11" x="287" y="257" clip-path="url(#clipPath2)" stroke="none" xml:space="preserve">800</text>
<line clip-path="url(#clipPath2)" fill="none" x1="326" x2="326" y1="19" y2="21"/>
<line clip-path="url(#clipPath2)" fill="none" x1="326" x2="326" y1="243" y2="241"/>
<line clip-path="url(#clipPath2)" fill="none" x1="358" x2="358" y1="17" y2="21"/>
<line clip-path="url(#clipPath2)" fill="none" x1="358" x2="358" y1="245" y2="241"/>
<text font-size="11" x="349" y="14" clip-path="url(#clipPath2)" stroke="none" xml:space="preserve">1000</text>
<text font-size="11" x="349" y="257" clip-path="url(#clipPath2)" stroke="none" xml:space="preserve">1000</text>
<line clip-path="url(#clipPath2)" fill="none" x1="391" x2="391" y1="19" y2="21"/>
<line clip-path="url(#clipPath2)" fill="none" x1="391" x2="391" y1="243" y2="241"/>
<line clip-path="url(#clipPath2)" fill="none" x1="424" x2="424" y1="17" y2="21"/>
<line clip-path="url(#clipPath2)" fill="none" x1="424" x2="424" y1="245" y2="241"/>
<text font-size="11" x="415" y="14" clip-path="url(#clipPath2)" stroke="none" xml:space="preserve">1200</text>
<text font-size="11" x="415" y="257" clip-path="url(#clipPath2)" stroke="none" xml:space="preserve">1200</text>
<line clip-path="url(#clipPath2)" fill="none" x1="456" x2="456" y1="19" y2="21"/>
<line clip-path="url(#clipPath2)" fill="none" x1="456" x2="456" y1="243" y2="241"/>
<line clip-path="url(#clipPath2)" fill="none" x1="489" x2="489" y1="17" y2="21"/>
<line clip-path="url(#clipPath2)" fill="none" x1="489" x2="489" y1="245" y2="241"/>
<text font-size="11" x="480" y="14" clip-path="url(#clipPath2)" stroke="none" xml:space="preserve">1400</text>
<text font-size="11" x="480" y="257" clip-path="url(#clipPath2)" stroke="none" xml:space="preserve">1400</text>
<line clip-path="url(#clipPath2)" fill="none" x1="522" x2="522" y1="19" y2="21"/>
<line clip-path="url(#clipPath2)" fill="none" x1="522" x2="522" y1="243" y2="241"/>
<line clip-path="url(#clipPath2)" fill="none" x1="554" x2="554" y1="17" y2="21"/>
<line clip-path="url(#clipPath2)" fill="none" x1="554" x2="554" y1="245" y2="241"/>
<text font-size="11" x="545" y="14" clip-path="url(#clipPath2)" stroke="none" xml:space="preserve">1600</text>
<text font-size="11" x="545" y="257" clip-path="url(#clipPath2)" stroke="none" xml:space="preserve">1600</text>
<line clip-path="url(#clipPath2)" fill="none" x1="587" x2="587" y1="19" y2="21"/>
<line clip-path="url(#clipPath2)" fill="none" x1="587" x2="587" y1="243" y2="241"/>
<line clip-path="url(#clipPath2)" fill="none" x1="620" x2="620" y1="17" y2="21"/>
<line clip-path="url(#clipPath2)" fill="none" x1="620" x2="620" y1="245" y2="241"/>
<text font-size="11" x="611" y="14" clip-path="url(#clipPath2)" stroke="none" xml:space="preserve">1800</text>
<text font-size="11" x="611" y="257" clip-path="url(#clipPath2)" stroke="none" xml:space="preserve">1800</text>
<line clip-path="url(#clipPath2)" fill="none" x1="652" x2="652" y1="19" y2="21"/>
<line clip-path="url(#clipPath2)" fill="none" x1="652" x2="652" y1="243" y2="241"/>
<line clip-path="url(#clipPath2)" fill="none" x1="685" x2="685" y1="17" y2="21"/>
<line clip-path="url(#clipPath2)" fill="none" x1="685" x2="685" y1="245" y2="241"/>
<text font-size="11" x="676" y="14" clip-path="url(#clipPath2)" stroke="none" xml:space="preserve">2000</text>
<text font-size="11" x="676" y="257" clip-path="url(#clipPath2)" stroke="none" xml:space="preserve">2000</text>
<line clip-path="url(#clipPath2)" fill="none" x1="718" x2="718" y1="19" y2="21"/>
<line clip-path="url(#clipPath2)" fill="none" x1="718" x2="718" y1="243" y2="241"/>
<line clip-path="url(#clipPath2)" fill="none" x1="750" x2="750" y1="17" y2="21"/>
<line clip-path="url(#clipPath2)" fill="none" x1="750" x2="750" y1="245" y2="241"/>
<text font-size="11" x="741" y="14" clip-path="url(#clipPath2)" stroke="none" xml:space="preserve">2200</text>
<text font-size="11" x="741" y="257" clip-path="url(#clipPath2)" stroke="none" xml:space="preserve">2200</text>
<line clip-path="url(#clipPath2)" fill="none" x1="783" x2="783" y1="19" y2="21"/>
<line clip-path="url(#clipPath2)" fill="none" x1="783" x2="783" y1="243" y2="241"/>
<line clip-path="url(#clipPath2)" fill="none" x1="816" x2="816" y1="17" y2="21"/>
<line clip-path="url(#clipPath2)" fill="none" x1="816" x2="816" y1="245" y2="241"/>
<text font-size="11" x="807" y="14" clip-path="url(#clipPath2)" stroke="none" xml:space="preserve">2400</text>
<text font-size="11" x="807" y="257" clip-path="url(#clipPath2)" stroke="none" xml:space="preserve">2400</text>
<line clip-path="url(#clipPath2)" fill="none" x1="848" x2="848" y1="19" y2="21"/>
<line clip-path="url(#clipPath2)" fill="none" x1="848" x2="848" y1="243" y2="241"/>
<line clip-path="url(#clipPath2)" fill="none" x1="881" x2="881" y1="17" y2="21"/>
<line clip-path="url(#clipPath2)" fill="none" x1="881" x2="881" y1="245" y2="241"/>
<text font-size="11" x="872" y="14" clip-path="url(#clipPath2)" stroke="none" xml:space="preserve">2600</text>
<text font-size="11" x="872" y="257" clip-path="url(#clipPath2)" stroke="none" xml:space="preserve">2600</text>
<line clip-path="url(#clipPath2)" fill="none" x1="914" x2="914" y1="19" y2="21"/>
<line clip-path="url(#clipPath2)" fill="none" x1="914" x2="914" y1="243" y2="241"/>
<line clip-path="url(#clipPath2)" fill="none" x1="30" x2="30" y1="23" y2="239"/>
<line clip-path="url(#clipPath2)" fill="none" x1="944" x2="944" y1="23" y2="239"/>
<line clip-path="url(#clipPath2)" fill="none" x1="26" x2="30" y1="239" y2="239"/>
<line clip-path="url(#clipPath2)" fill="none" x1="948" x2="944" y1="239" y2="239"/>
<text font-size="11" x="20" y="244" clip-path="url(#clipPath2)" stroke="none" xml:space="preserve">0</text>
<text font-size="11" x="951" y="244" clip-path="url(#clipPath2)" stroke="none" xml:space="preserve">0</text>
<line clip-path="url(#clipPath2)" fill="none" x1="28" x2="30" y1="213" y2="213"/>
<line clip-path="url(#clipPath2)" fill="none" x1="946" x2="944" y1="213" y2="213"/>
<line clip-path="url(#clipPath2)" fill="none" x1="26" x2="30" y1="188" y2="188"/>
<line clip-path="url(#clipPath2)" fill="none" x1="948" x2="944" y1="188" y2="188"/>
<text font-size="11" x="15" y="193" clip-path="url(#clipPath2)" stroke="none" xml:space="preserve">20</text>
<text font-size="11" x="951" y="193" clip-path="url(#clipPath2)" stroke="none" xml:space="preserve">20</text>
<line clip-path="url(#clipPath2)" fill="none" x1="28" x2="30" y1="163" y2="163"/>
<line clip-path="url(#clipPath2)" fill="none" x1="946" x2="944" y1="163" y2="163"/>
<line clip-path="url(#clipPath2)" fill="none" x1="26" x2="30" y1="137" y2="137"/>
<line clip-path="url(#clipPath2)" fill="none" x1="948" x2="944" y1="137" y2="137"/>
<text font-size="11" x="15" y="142" clip-path="url(#clipPath2)" stroke="none" xml:space="preserve">40</text>
<text font-size="11" x="951" y="142" clip-path="url(#clipPath2)" stroke="none" xml:space="preserve">40</text>
<line clip-path="url(#clipPath2)" fill="none" x1="28" x2="30" y1="112" y2="112"/>
<line clip-path="url(#clipPath2)" fill="none" x1="946" x2="944" y1="112" y2="112"/>
<line clip-path="url(#clipPath2)" fill="none" x1="26" x2="30" y1="87" y2="87"/>
<line clip-path="url(#clipPath2)" fill="none" x1="948" x2="944" y1="87" y2="87"/>
<text font-size="11" x="15" y="92" clip-path="url(#clipPath2)" stroke="none" xml:space="preserve">60</text>
<text font-size="11" x="951" y="92" clip-path="url(#clipPath2)" stroke="none" xml:space="preserve">60</text>
<line clip-path="url(#clipPath2)" fill="none" x1="28" x2="30" y1="61" y2="61"/>
<line clip-path="url(#clipPath2)" fill="none" x1="946" x2="944" y1="61" y2="61"/>
<line clip-path="url(#clipPath2)" fill="none" x1="26" x2="30" y1="36" y2="36"/>
<line clip-path="url(#clipPath2)" fill="none" x1="948" x2="944" y1="36" y2="36"/>
<text font-size="11" x="15" y="41" clip-path="url(#clipPath2)" stroke="none" xml:space="preserve">80</text>
<text font-size="11" x="951" y="41" clip-path="url(#clipPath2)" stroke="none" xml:space="preserve">80</text>
</g>
</g>
</svg>
