<?xml version="1.0" encoding="UTF-8"?><svg xmlns="http://www.w3.org/2000/svg" xmlns:xlink="http://www.w3.org/1999/xlink" stroke-dasharray="none" shape-rendering="auto" font-family="'Dialog'" width="804" text-rendering="auto" fill-opacity="1" contentScriptType="text/ecmascript" color-interpolation="auto" color-rendering="auto" preserveAspectRatio="xMidYMid meet" font-size="12" fill="black" stroke="black" image-rendering="auto" stroke-miterlimit="10" zoomAndPan="magnify" version="1.0" stroke-linecap="square" stroke-linejoin="miter" contentStyleType="text/css" font-style="normal" height="187" stroke-width="1" stroke-dashoffset="0" font-weight="normal" stroke-opacity="1">
<!--Generated by the Batik Graphics2D SVG Generator-->
<defs id="genericDefs"/>
<g>
<defs id="defs1">
<clipPath clipPathUnits="userSpaceOnUse" id="clipPath1">
<path d="M36 22 L768 22 L768 165 L36 165 L36 22 Z"/>
</clipPath>
<clipPath clipPathUnits="userSpaceOnUse" id="clipPath2">
<path d="M-1 -1 L805 -1 L805 188 L-1 188 L-1 -1 Z"/>
</clipPath>
</defs>
<g font-size="15" fill="white" text-rendering="geometricPrecision" font-family="'Ubuntu'" stroke-linejoin="round" stroke="white" stroke-width="0" stroke-miterlimit="0">
<rect x="37" y="23" clip-path="url(#clipPath1)" width="730" height="141" stroke="none"/>
</g>
<g font-size="15" stroke-linecap="butt" fill="rgb(204,204,204)" text-rendering="geometricPrecision" font-family="'Ubuntu'" stroke-dasharray="3,3" stroke="rgb(204,204,204)">
<line clip-path="url(#clipPath1)" fill="none" x1="37" x2="37" y1="23" y2="164"/>
<line clip-path="url(#clipPath1)" fill="none" x1="116" x2="116" y1="23" y2="164"/>
<line clip-path="url(#clipPath1)" fill="none" x1="196" x2="196" y1="23" y2="164"/>
<line clip-path="url(#clipPath1)" fill="none" x1="275" x2="275" y1="23" y2="164"/>
<line clip-path="url(#clipPath1)" fill="none" x1="355" x2="355" y1="23" y2="164"/>
<line clip-path="url(#clipPath1)" fill="none" x1="435" x2="435" y1="23" y2="164"/>
<line clip-path="url(#clipPath1)" fill="none" x1="514" x2="514" y1="23" y2="164"/>
<line clip-path="url(#clipPath1)" fill="none" x1="594" x2="594" y1="23" y2="164"/>
<line clip-path="url(#clipPath1)" fill="none" x1="674" x2="674" y1="23" y2="164"/>
<line clip-path="url(#clipPath1)" fill="none" x1="753" x2="753" y1="23" y2="164"/>
<line clip-path="url(#clipPath1)" fill="none" x1="37" x2="767" y1="164" y2="164"/>
<line clip-path="url(#clipPath1)" fill="none" x1="37" x2="767" y1="90" y2="90"/>
<rect x="395" y="162" clip-path="url(#clipPath1)" fill="rgb(0,0,139)" width="5" height="5" stroke="none"/>
<line clip-path="url(#clipPath1)" fill="none" x1="397" x2="398" y1="164" y2="153" stroke-dasharray="none" stroke="rgb(0,0,139)"/>
<rect x="396" y="151" clip-path="url(#clipPath1)" fill="rgb(0,0,139)" width="5" stroke-dasharray="none" height="5" stroke="none"/>
</g>
<g font-size="15" stroke-linecap="butt" fill="rgb(0,0,139)" text-rendering="geometricPrecision" font-family="'Ubuntu'" shape-rendering="crispEdges" stroke="rgb(0,0,139)">
<line clip-path="url(#clipPath1)" fill="none" x1="398" x2="398" y1="153" y2="149"/>
<rect x="396" y="147" clip-path="url(#clipPath1)" width="5" shape-rendering="auto" height="5" stroke="none"/>
<line clip-path="url(#clipPath1)" fill="none" x1="398" x2="398" y1="149" y2="139"/>
<rect x="396" y="137" clip-path="url(#clipPath1)" width="5" shape-rendering="auto" height="5" stroke="none"/>
<line clip-path="url(#clipPath1)" fill="none" x1="398" x2="399" y1="139" y2="135" shape-rendering="auto"/>
<rect x="397" y="133" clip-path="url(#clipPath1)" width="5" shape-rendering="auto" height="5" stroke="none"/>
<line clip-path="url(#clipPath1)" fill="none" x1="399" x2="399" y1="135" y2="132"/>
<rect x="397" y="130" clip-path="url(#clipPath1)" width="5" shape-rendering="auto" height="5" stroke="none"/>
<line clip-path="url(#clipPath1)" fill="none" x1="399" x2="400" y1="132" y2="132" shape-rendering="auto"/>
<rect x="398" y="130" clip-path="url(#clipPath1)" width="5" shape-rendering="auto" height="5" stroke="none"/>
<line clip-path="url(#clipPath1)" fill="none" x1="400" x2="400" y1="132" y2="129"/>
<rect x="398" y="127" clip-path="url(#clipPath1)" width="5" shape-rendering="auto" height="5" stroke="none"/>
<line clip-path="url(#clipPath1)" fill="none" x1="400" x2="400" y1="129" y2="125"/>
<rect x="398" y="123" clip-path="url(#clipPath1)" width="5" shape-rendering="auto" height="5" stroke="none"/>
<line clip-path="url(#clipPath1)" fill="none" x1="400" x2="401" y1="125" y2="122" shape-rendering="auto"/>
<rect x="399" y="120" clip-path="url(#clipPath1)" width="5" shape-rendering="auto" height="5" stroke="none"/>
<line clip-path="url(#clipPath1)" fill="none" x1="401" x2="440" y1="122" y2="122" shape-rendering="auto"/>
<rect x="438" y="120" clip-path="url(#clipPath1)" width="5" shape-rendering="auto" height="5" stroke="none"/>
<line clip-path="url(#clipPath1)" fill="none" x1="440" x2="440" y1="122" y2="119"/>
<rect x="438" y="117" clip-path="url(#clipPath1)" width="5" shape-rendering="auto" height="5" stroke="none"/>
<line clip-path="url(#clipPath1)" fill="none" x1="440" x2="440" y1="119" y2="116"/>
<rect x="438" y="114" clip-path="url(#clipPath1)" width="5" shape-rendering="auto" height="5" stroke="none"/>
<line clip-path="url(#clipPath1)" fill="none" x1="440" x2="480" y1="116" y2="114" shape-rendering="auto"/>
<rect x="478" y="112" clip-path="url(#clipPath1)" width="5" shape-rendering="auto" height="5" stroke="none"/>
<line clip-path="url(#clipPath1)" fill="none" x1="480" x2="480" y1="114" y2="110"/>
<rect x="478" y="108" clip-path="url(#clipPath1)" width="5" shape-rendering="auto" height="5" stroke="none"/>
<line clip-path="url(#clipPath1)" fill="none" x1="480" x2="518" y1="110" y2="109" shape-rendering="auto"/>
<rect x="516" y="107" clip-path="url(#clipPath1)" width="5" shape-rendering="auto" height="5" stroke="none"/>
<line clip-path="url(#clipPath1)" fill="none" x1="518" x2="518" y1="109" y2="105"/>
<rect x="516" y="103" clip-path="url(#clipPath1)" width="5" shape-rendering="auto" height="5" stroke="none"/>
<line clip-path="url(#clipPath1)" fill="none" x1="518" x2="518" y1="105" y2="102"/>
<rect x="516" y="100" clip-path="url(#clipPath1)" width="5" shape-rendering="auto" height="5" stroke="none"/>
<line clip-path="url(#clipPath1)" fill="none" x1="518" x2="518" y1="102" y2="99"/>
<rect x="516" y="97" clip-path="url(#clipPath1)" width="5" shape-rendering="auto" height="5" stroke="none"/>
<line clip-path="url(#clipPath1)" fill="none" x1="518" x2="557" y1="99" y2="96" shape-rendering="auto"/>
<rect x="555" y="94" clip-path="url(#clipPath1)" width="5" shape-rendering="auto" height="5" stroke="none"/>
<line clip-path="url(#clipPath1)" fill="none" x1="557" x2="557" y1="96" y2="93"/>
<rect x="555" y="91" clip-path="url(#clipPath1)" width="5" shape-rendering="auto" height="5" stroke="none"/>
<line clip-path="url(#clipPath1)" fill="none" x1="557" x2="557" y1="93" y2="90"/>
<rect x="555" y="88" clip-path="url(#clipPath1)" width="5" shape-rendering="auto" height="5" stroke="none"/>
<line clip-path="url(#clipPath1)" fill="none" x1="557" x2="557" y1="90" y2="87"/>
<rect x="555" y="85" clip-path="url(#clipPath1)" width="5" shape-rendering="auto" height="5" stroke="none"/>
<line clip-path="url(#clipPath1)" fill="none" x1="557" x2="557" y1="87" y2="84"/>
<rect x="555" y="82" clip-path="url(#clipPath1)" width="5" shape-rendering="auto" height="5" stroke="none"/>
<line clip-path="url(#clipPath1)" fill="none" x1="557" x2="557" y1="84" y2="81"/>
<rect x="555" y="79" clip-path="url(#clipPath1)" width="5" shape-rendering="auto" height="5" stroke="none"/>
<line clip-path="url(#clipPath1)" fill="none" x1="557" x2="596" y1="81" y2="79" shape-rendering="auto"/>
<rect x="594" y="77" clip-path="url(#clipPath1)" width="5" shape-rendering="auto" height="5" stroke="none"/>
<line clip-path="url(#clipPath1)" fill="none" x1="596" x2="596" y1="79" y2="76"/>
<rect x="594" y="74" clip-path="url(#clipPath1)" width="5" shape-rendering="auto" height="5" stroke="none"/>
<line clip-path="url(#clipPath1)" fill="none" x1="596" x2="596" y1="76" y2="73"/>
<rect x="594" y="71" clip-path="url(#clipPath1)" width="5" shape-rendering="auto" height="5" stroke="none"/>
<line clip-path="url(#clipPath1)" fill="none" x1="596" x2="598" y1="73" y2="72" shape-rendering="auto"/>
<rect x="596" y="70" clip-path="url(#clipPath1)" width="5" shape-rendering="auto" height="5" stroke="none"/>
<line clip-path="url(#clipPath1)" fill="none" x1="598" x2="598" y1="72" y2="69"/>
<rect x="596" y="67" clip-path="url(#clipPath1)" width="5" shape-rendering="auto" height="5" stroke="none"/>
<line clip-path="url(#clipPath1)" fill="none" x1="598" x2="643" y1="69" y2="66" shape-rendering="auto"/>
<rect x="641" y="64" clip-path="url(#clipPath1)" width="5" shape-rendering="auto" height="5" stroke="none"/>
<line clip-path="url(#clipPath1)" fill="none" x1="643" x2="643" y1="66" y2="64"/>
<rect x="641" y="62" clip-path="url(#clipPath1)" width="5" shape-rendering="auto" height="5" stroke="none"/>
<line clip-path="url(#clipPath1)" fill="none" x1="643" x2="643" y1="64" y2="61"/>
<rect x="641" y="59" clip-path="url(#clipPath1)" width="5" shape-rendering="auto" height="5" stroke="none"/>
<line clip-path="url(#clipPath1)" fill="none" x1="643" x2="644" y1="61" y2="58" shape-rendering="auto"/>
<rect x="642" y="56" clip-path="url(#clipPath1)" width="5" shape-rendering="auto" height="5" stroke="none"/>
<line clip-path="url(#clipPath1)" fill="none" x1="644" x2="757" y1="58" y2="59" shape-rendering="auto"/>
<rect x="755" y="57" clip-path="url(#clipPath1)" width="5" shape-rendering="auto" height="5" stroke="none"/>
<rect x="37" y="23" clip-path="url(#clipPath2)" fill="none" width="730" shape-rendering="auto" height="141" stroke="black"/>
</g>
<g text-rendering="geometricPrecision" font-size="13" stroke-linecap="butt">
<line clip-path="url(#clipPath2)" fill="none" x1="37" x2="767" y1="21" y2="21"/>
<line clip-path="url(#clipPath2)" fill="none" x1="37" x2="767" y1="166" y2="166"/>
<text xml:space="preserve" x="402" y="184" clip-path="url(#clipPath2)" stroke="none"/>
<line clip-path="url(#clipPath2)" fill="none" x1="37" x2="37" y1="17" y2="21"/>
<line clip-path="url(#clipPath2)" fill="none" x1="37" x2="37" y1="170" y2="166"/>
<text font-size="11" x="36" y="14" clip-path="url(#clipPath2)" stroke="none" xml:space="preserve">0</text>
<text font-size="11" x="36" y="182" clip-path="url(#clipPath2)" stroke="none" xml:space="preserve">0</text>
<line clip-path="url(#clipPath2)" fill="none" x1="76" x2="76" y1="19" y2="21"/>
<line clip-path="url(#clipPath2)" fill="none" x1="76" x2="76" y1="168" y2="166"/>
<line clip-path="url(#clipPath2)" fill="none" x1="116" x2="116" y1="17" y2="21"/>
<line clip-path="url(#clipPath2)" fill="none" x1="116" x2="116" y1="170" y2="166"/>
<text font-size="11" x="110" y="14" clip-path="url(#clipPath2)" stroke="none" xml:space="preserve">200</text>
<text font-size="11" x="110" y="182" clip-path="url(#clipPath2)" stroke="none" xml:space="preserve">200</text>
<line clip-path="url(#clipPath2)" fill="none" x1="156" x2="156" y1="19" y2="21"/>
<line clip-path="url(#clipPath2)" fill="none" x1="156" x2="156" y1="168" y2="166"/>
<line clip-path="url(#clipPath2)" fill="none" x1="196" x2="196" y1="17" y2="21"/>
<line clip-path="url(#clipPath2)" fill="none" x1="196" x2="196" y1="170" y2="166"/>
<text font-size="11" x="190" y="14" clip-path="url(#clipPath2)" stroke="none" xml:space="preserve">400</text>
<text font-size="11" x="190" y="182" clip-path="url(#clipPath2)" stroke="none" xml:space="preserve">400</text>
<line clip-path="url(#clipPath2)" fill="none" x1="236" x2="236" y1="19" y2="21"/>
<line clip-path="url(#clipPath2)" fill="none" x1="236" x2="236" y1="168" y2="166"/>
<line clip-path="url(#clipPath2)" fill="none" x1="275" x2="275" y1="17" y2="21"/>
<line clip-path="url(#clipPath2)" fill="none" x1="275" x2="275" y1="170" y2="166"/>
<text font-size="11" x="269" y="14" clip-path="url(#clipPath2)" stroke="none" xml:space="preserve">600</text>
<text font-size="11" x="269" y="182" clip-path="url(#clipPath2)" stroke="none" xml:space="preserve">600</text>
<line clip-path="url(#clipPath2)" fill="none" x1="315" x2="315" y1="19" y2="21"/>
<line clip-path="url(#clipPath2)" fill="none" x1="315" x2="315" y1="168" y2="166"/>
<line clip-path="url(#clipPath2)" fill="none" x1="355" x2="355" y1="17" y2="21"/>
<line clip-path="url(#clipPath2)" fill="none" x1="355" x2="355" y1="170" y2="166"/>
<text font-size="11" x="349" y="14" clip-path="url(#clipPath2)" stroke="none" xml:space="preserve">800</text>
<text font-size="11" x="349" y="182" clip-path="url(#clipPath2)" stroke="none" xml:space="preserve">800</text>
<line clip-path="url(#clipPath2)" fill="none" x1="395" x2="395" y1="19" y2="21"/>
<line clip-path="url(#clipPath2)" fill="none" x1="395" x2="395" y1="168" y2="166"/>
<line clip-path="url(#clipPath2)" fill="none" x1="435" x2="435" y1="17" y2="21"/>
<line clip-path="url(#clipPath2)" fill="none" x1="435" x2="435" y1="170" y2="166"/>
<text font-size="11" x="426" y="14" clip-path="url(#clipPath2)" stroke="none" xml:space="preserve">1000</text>
<text font-size="11" x="426" y="182" clip-path="url(#clipPath2)" stroke="none" xml:space="preserve">1000</text>
<line clip-path="url(#clipPath2)" fill="none" x1="475" x2="475" y1="19" y2="21"/>
<line clip-path="url(#clipPath2)" fill="none" x1="475" x2="475" y1="168" y2="166"/>
<line clip-path="url(#clipPath2)" fill="none" x1="514" x2="514" y1="17" y2="21"/>
<line clip-path="url(#clipPath2)" fill="none" x1="514" x2="514" y1="170" y2="166"/>
<text font-size="11" x="505" y="14" clip-path="url(#clipPath2)" stroke="none" xml:space="preserve">1200</text>
<text font-size="11" x="505" y="182" clip-path="url(#clipPath2)" stroke="none" xml:space="preserve">1200</text>
<line clip-path="url(#clipPath2)" fill="none" x1="554" x2="554" y1="19" y2="21"/>
<line clip-path="url(#clipPath2)" fill="none" x1="554" x2="554" y1="168" y2="166"/>
<line clip-path="url(#clipPath2)" fill="none" x1="594" x2="594" y1="17" y2="21"/>
<line clip-path="url(#clipPath2)" fill="none" x1="594" x2="594" y1="170" y2="166"/>
<text font-size="11" x="585" y="14" clip-path="url(#clipPath2)" stroke="none" xml:space="preserve">1400</text>
<text font-size="11" x="585" y="182" clip-path="url(#clipPath2)" stroke="none" xml:space="preserve">1400</text>
<line clip-path="url(#clipPath2)" fill="none" x1="634" x2="634" y1="19" y2="21"/>
<line clip-path="url(#clipPath2)" fill="none" x1="634" x2="634" y1="168" y2="166"/>
<line clip-path="url(#clipPath2)" fill="none" x1="674" x2="674" y1="17" y2="21"/>
<line clip-path="url(#clipPath2)" fill="none" x1="674" x2="674" y1="170" y2="166"/>
<text font-size="11" x="665" y="14" clip-path="url(#clipPath2)" stroke="none" xml:space="preserve">1600</text>
<text font-size="11" x="665" y="182" clip-path="url(#clipPath2)" stroke="none" xml:space="preserve">1600</text>
<line clip-path="url(#clipPath2)" fill="none" x1="714" x2="714" y1="19" y2="21"/>
<line clip-path="url(#clipPath2)" fill="none" x1="714" x2="714" y1="168" y2="166"/>
<line clip-path="url(#clipPath2)" fill="none" x1="753" x2="753" y1="17" y2="21"/>
<line clip-path="url(#clipPath2)" fill="none" x1="753" x2="753" y1="170" y2="166"/>
<text font-size="11" x="744" y="14" clip-path="url(#clipPath2)" stroke="none" xml:space="preserve">1800</text>
<text font-size="11" x="744" y="182" clip-path="url(#clipPath2)" stroke="none" xml:space="preserve">1800</text>
<line clip-path="url(#clipPath2)" fill="none" x1="35" x2="35" y1="23" y2="164"/>
<line clip-path="url(#clipPath2)" fill="none" x1="769" x2="769" y1="23" y2="164"/>
<line clip-path="url(#clipPath2)" fill="none" x1="31" x2="35" y1="164" y2="164"/>
<line clip-path="url(#clipPath2)" fill="none" x1="773" x2="769" y1="164" y2="164"/>
<text font-size="11" x="10" y="169" clip-path="url(#clipPath2)" stroke="none" xml:space="preserve">0.00</text>
<text font-size="11" x="776" y="169" clip-path="url(#clipPath2)" stroke="none" xml:space="preserve">0.00</text>
<line clip-path="url(#clipPath2)" fill="none" x1="33" x2="35" y1="149" y2="149"/>
<line clip-path="url(#clipPath2)" fill="none" x1="771" x2="769" y1="149" y2="149"/>
<line clip-path="url(#clipPath2)" fill="none" x1="33" x2="35" y1="134" y2="134"/>
<line clip-path="url(#clipPath2)" fill="none" x1="771" x2="769" y1="134" y2="134"/>
<line clip-path="url(#clipPath2)" fill="none" x1="33" x2="35" y1="120" y2="120"/>
<line clip-path="url(#clipPath2)" fill="none" x1="771" x2="769" y1="120" y2="120"/>
<line clip-path="url(#clipPath2)" fill="none" x1="33" x2="35" y1="105" y2="105"/>
<line clip-path="url(#clipPath2)" fill="none" x1="771" x2="769" y1="105" y2="105"/>
<line clip-path="url(#clipPath2)" fill="none" x1="31" x2="35" y1="90" y2="90"/>
<line clip-path="url(#clipPath2)" fill="none" x1="773" x2="769" y1="90" y2="90"/>
<text font-size="11" x="5" y="95" clip-path="url(#clipPath2)" stroke="none" xml:space="preserve">0.010</text>
<text font-size="11" x="776" y="95" clip-path="url(#clipPath2)" stroke="none" xml:space="preserve">0.010</text>
<line clip-path="url(#clipPath2)" fill="none" x1="33" x2="35" y1="76" y2="76"/>
<line clip-path="url(#clipPath2)" fill="none" x1="771" x2="769" y1="76" y2="76"/>
<line clip-path="url(#clipPath2)" fill="none" x1="33" x2="35" y1="61" y2="61"/>
<line clip-path="url(#clipPath2)" fill="none" x1="771" x2="769" y1="61" y2="61"/>
<line clip-path="url(#clipPath2)" fill="none" x1="33" x2="35" y1="47" y2="47"/>
<line clip-path="url(#clipPath2)" fill="none" x1="771" x2="769" y1="47" y2="47"/>
<line clip-path="url(#clipPath2)" fill="none" x1="33" x2="35" y1="32" y2="32"/>
<line clip-path="url(#clipPath2)" fill="none" x1="771" x2="769" y1="32" y2="32"/>
</g>
</g>
</svg>
