<?xml version="1.0" encoding="UTF-8"?><svg xmlns="http://www.w3.org/2000/svg" xmlns:xlink="http://www.w3.org/1999/xlink" stroke-dasharray="none" shape-rendering="auto" font-family="'Dialog'" width="974" text-rendering="auto" fill-opacity="1" contentScriptType="text/ecmascript" color-interpolation="auto" color-rendering="auto" preserveAspectRatio="xMidYMid meet" font-size="12" fill="black" stroke="black" image-rendering="auto" stroke-miterlimit="10" zoomAndPan="magnify" version="1.0" stroke-linecap="square" stroke-linejoin="miter" contentStyleType="text/css" font-style="normal" height="262" stroke-width="1" stroke-dashoffset="0" font-weight="normal" stroke-opacity="1">
<!--Generated by the Batik Graphics2D SVG Generator-->
<defs id="genericDefs"/>
<g>
<defs id="defs1">
<clipPath clipPathUnits="userSpaceOnUse" id="clipPath1">
<path d="M31 22 L943 22 L943 240 L31 240 L31 22 Z"/>
</clipPath>
<clipPath clipPathUnits="userSpaceOnUse" id="clipPath2">
<path d="M-1 -1 L975 -1 L975 263 L-1 263 L-1 -1 Z"/>
</clipPath>
</defs>
<g font-size="15" fill="white" text-rendering="geometricPrecision" font-family="'Ubuntu'" stroke-linejoin="round" stroke="white" stroke-width="0" stroke-miterlimit="0">
<rect x="32" y="23" clip-path="url(#clipPath1)" width="910" height="216" stroke="none"/>
</g>
<g font-size="15" stroke-linecap="butt" fill="rgb(204,204,204)" text-rendering="geometricPrecision" font-family="'Ubuntu'" stroke-dasharray="3,3" stroke="rgb(204,204,204)">
<line clip-path="url(#clipPath1)" fill="none" x1="32" x2="32" y1="23" y2="239"/>
<line clip-path="url(#clipPath1)" fill="none" x1="97" x2="97" y1="23" y2="239"/>
<line clip-path="url(#clipPath1)" fill="none" x1="162" x2="162" y1="23" y2="239"/>
<line clip-path="url(#clipPath1)" fill="none" x1="227" x2="227" y1="23" y2="239"/>
<line clip-path="url(#clipPath1)" fill="none" x1="293" x2="293" y1="23" y2="239"/>
<line clip-path="url(#clipPath1)" fill="none" x1="358" x2="358" y1="23" y2="239"/>
<line clip-path="url(#clipPath1)" fill="none" x1="423" x2="423" y1="23" y2="239"/>
<line clip-path="url(#clipPath1)" fill="none" x1="489" x2="489" y1="23" y2="239"/>
<line clip-path="url(#clipPath1)" fill="none" x1="554" x2="554" y1="23" y2="239"/>
<line clip-path="url(#clipPath1)" fill="none" x1="619" x2="619" y1="23" y2="239"/>
<line clip-path="url(#clipPath1)" fill="none" x1="685" x2="685" y1="23" y2="239"/>
<line clip-path="url(#clipPath1)" fill="none" x1="750" x2="750" y1="23" y2="239"/>
<line clip-path="url(#clipPath1)" fill="none" x1="815" x2="815" y1="23" y2="239"/>
<line clip-path="url(#clipPath1)" fill="none" x1="880" x2="880" y1="23" y2="239"/>
<line clip-path="url(#clipPath1)" fill="none" x1="32" x2="942" y1="239" y2="239"/>
<line clip-path="url(#clipPath1)" fill="none" x1="32" x2="942" y1="170" y2="170"/>
<line clip-path="url(#clipPath1)" fill="none" x1="32" x2="942" y1="101" y2="101"/>
<line clip-path="url(#clipPath1)" fill="none" x1="32" x2="942" y1="33" y2="33"/>
<rect x="326" y="232" clip-path="url(#clipPath1)" fill="rgb(0,0,139)" width="5" height="5" stroke="none"/>
</g>
<g font-size="15" stroke-linecap="butt" fill="rgb(0,0,139)" text-rendering="geometricPrecision" font-family="'Ubuntu'" shape-rendering="crispEdges" stroke="rgb(0,0,139)">
<line clip-path="url(#clipPath1)" fill="none" x1="328" x2="328" y1="234" y2="233"/>
<rect x="326" y="231" clip-path="url(#clipPath1)" width="5" shape-rendering="auto" height="5" stroke="none"/>
<line clip-path="url(#clipPath1)" fill="none" x1="328" x2="328" y1="233" y2="229"/>
<rect x="326" y="227" clip-path="url(#clipPath1)" width="5" shape-rendering="auto" height="5" stroke="none"/>
<line clip-path="url(#clipPath1)" fill="none" x1="328" x2="328" y1="229" y2="226"/>
<rect x="326" y="224" clip-path="url(#clipPath1)" width="5" shape-rendering="auto" height="5" stroke="none"/>
<line clip-path="url(#clipPath1)" fill="none" x1="328" x2="328" y1="226" y2="225"/>
<rect x="326" y="223" clip-path="url(#clipPath1)" width="5" shape-rendering="auto" height="5" stroke="none"/>
<line clip-path="url(#clipPath1)" fill="none" x1="328" x2="330" y1="225" y2="223" shape-rendering="auto"/>
<rect x="328" y="221" clip-path="url(#clipPath1)" width="5" shape-rendering="auto" height="5" stroke="none"/>
<line clip-path="url(#clipPath1)" fill="none" x1="330" x2="330" y1="223" y2="222"/>
<rect x="328" y="220" clip-path="url(#clipPath1)" width="5" shape-rendering="auto" height="5" stroke="none"/>
<line clip-path="url(#clipPath1)" fill="none" x1="330" x2="330" y1="222" y2="218"/>
<rect x="328" y="216" clip-path="url(#clipPath1)" width="5" shape-rendering="auto" height="5" stroke="none"/>
<line clip-path="url(#clipPath1)" fill="none" x1="330" x2="330" y1="218" y2="217"/>
<rect x="328" y="215" clip-path="url(#clipPath1)" width="5" shape-rendering="auto" height="5" stroke="none"/>
<line clip-path="url(#clipPath1)" fill="none" x1="330" x2="330" y1="217" y2="215"/>
<rect x="328" y="213" clip-path="url(#clipPath1)" width="5" shape-rendering="auto" height="5" stroke="none"/>
<line clip-path="url(#clipPath1)" fill="none" x1="330" x2="330" y1="215" y2="214"/>
<rect x="328" y="212" clip-path="url(#clipPath1)" width="5" shape-rendering="auto" height="5" stroke="none"/>
<line clip-path="url(#clipPath1)" fill="none" x1="330" x2="330" y1="214" y2="208"/>
<rect x="328" y="206" clip-path="url(#clipPath1)" width="5" shape-rendering="auto" height="5" stroke="none"/>
<line clip-path="url(#clipPath1)" fill="none" x1="330" x2="330" y1="208" y2="207"/>
<rect x="328" y="205" clip-path="url(#clipPath1)" width="5" shape-rendering="auto" height="5" stroke="none"/>
<line clip-path="url(#clipPath1)" fill="none" x1="330" x2="331" y1="207" y2="206" shape-rendering="auto"/>
<rect x="329" y="204" clip-path="url(#clipPath1)" width="5" shape-rendering="auto" height="5" stroke="none"/>
<line clip-path="url(#clipPath1)" fill="none" x1="331" x2="361" y1="206" y2="206" shape-rendering="auto"/>
<rect x="359" y="204" clip-path="url(#clipPath1)" width="5" shape-rendering="auto" height="5" stroke="none"/>
<line clip-path="url(#clipPath1)" fill="none" x1="361" x2="362" y1="206" y2="204" shape-rendering="auto"/>
<rect x="360" y="202" clip-path="url(#clipPath1)" width="5" shape-rendering="auto" height="5" stroke="none"/>
<line clip-path="url(#clipPath1)" fill="none" x1="362" x2="394" y1="204" y2="203" shape-rendering="auto"/>
<rect x="392" y="201" clip-path="url(#clipPath1)" width="5" shape-rendering="auto" height="5" stroke="none"/>
<line clip-path="url(#clipPath1)" fill="none" x1="394" x2="395" y1="203" y2="201" shape-rendering="auto"/>
<rect x="393" y="199" clip-path="url(#clipPath1)" width="5" shape-rendering="auto" height="5" stroke="none"/>
<line clip-path="url(#clipPath1)" fill="none" x1="395" x2="395" y1="201" y2="200"/>
<rect x="393" y="198" clip-path="url(#clipPath1)" width="5" shape-rendering="auto" height="5" stroke="none"/>
<line clip-path="url(#clipPath1)" fill="none" x1="395" x2="395" y1="200" y2="199"/>
<rect x="393" y="197" clip-path="url(#clipPath1)" width="5" shape-rendering="auto" height="5" stroke="none"/>
<line clip-path="url(#clipPath1)" fill="none" x1="395" x2="395" y1="199" y2="192"/>
<rect x="393" y="190" clip-path="url(#clipPath1)" width="5" shape-rendering="auto" height="5" stroke="none"/>
<line clip-path="url(#clipPath1)" fill="none" x1="395" x2="395" y1="192" y2="190"/>
<rect x="393" y="188" clip-path="url(#clipPath1)" width="5" shape-rendering="auto" height="5" stroke="none"/>
<line clip-path="url(#clipPath1)" fill="none" x1="395" x2="425" y1="190" y2="189" shape-rendering="auto"/>
<rect x="423" y="187" clip-path="url(#clipPath1)" width="5" shape-rendering="auto" height="5" stroke="none"/>
<line clip-path="url(#clipPath1)" fill="none" x1="425" x2="426" y1="189" y2="188" shape-rendering="auto"/>
<rect x="424" y="186" clip-path="url(#clipPath1)" width="5" shape-rendering="auto" height="5" stroke="none"/>
<line clip-path="url(#clipPath1)" fill="none" x1="426" x2="427" y1="188" y2="186" shape-rendering="auto"/>
<rect x="425" y="184" clip-path="url(#clipPath1)" width="5" shape-rendering="auto" height="5" stroke="none"/>
<line clip-path="url(#clipPath1)" fill="none" x1="427" x2="427" y1="186" y2="185"/>
<rect x="425" y="183" clip-path="url(#clipPath1)" width="5" shape-rendering="auto" height="5" stroke="none"/>
<line clip-path="url(#clipPath1)" fill="none" x1="427" x2="458" y1="185" y2="184" shape-rendering="auto"/>
<rect x="456" y="182" clip-path="url(#clipPath1)" width="5" shape-rendering="auto" height="5" stroke="none"/>
<line clip-path="url(#clipPath1)" fill="none" x1="458" x2="458" y1="184" y2="182"/>
<rect x="456" y="180" clip-path="url(#clipPath1)" width="5" shape-rendering="auto" height="5" stroke="none"/>
<line clip-path="url(#clipPath1)" fill="none" x1="458" x2="458" y1="182" y2="181"/>
<rect x="456" y="179" clip-path="url(#clipPath1)" width="5" shape-rendering="auto" height="5" stroke="none"/>
<line clip-path="url(#clipPath1)" fill="none" x1="458" x2="458" y1="181" y2="179"/>
<rect x="456" y="177" clip-path="url(#clipPath1)" width="5" shape-rendering="auto" height="5" stroke="none"/>
<line clip-path="url(#clipPath1)" fill="none" x1="458" x2="459" y1="179" y2="178" shape-rendering="auto"/>
<rect x="457" y="176" clip-path="url(#clipPath1)" width="5" shape-rendering="auto" height="5" stroke="none"/>
<line clip-path="url(#clipPath1)" fill="none" x1="459" x2="459" y1="178" y2="177"/>
<rect x="457" y="175" clip-path="url(#clipPath1)" width="5" shape-rendering="auto" height="5" stroke="none"/>
<line clip-path="url(#clipPath1)" fill="none" x1="459" x2="459" y1="177" y2="175"/>
<rect x="457" y="173" clip-path="url(#clipPath1)" width="5" shape-rendering="auto" height="5" stroke="none"/>
<line clip-path="url(#clipPath1)" fill="none" x1="459" x2="459" y1="175" y2="167"/>
<rect x="457" y="165" clip-path="url(#clipPath1)" width="5" shape-rendering="auto" height="5" stroke="none"/>
<line clip-path="url(#clipPath1)" fill="none" x1="459" x2="459" y1="167" y2="166"/>
<rect x="457" y="164" clip-path="url(#clipPath1)" width="5" shape-rendering="auto" height="5" stroke="none"/>
<line clip-path="url(#clipPath1)" fill="none" x1="459" x2="459" y1="166" y2="164"/>
<rect x="457" y="162" clip-path="url(#clipPath1)" width="5" shape-rendering="auto" height="5" stroke="none"/>
<line clip-path="url(#clipPath1)" fill="none" x1="459" x2="459" y1="164" y2="163"/>
<rect x="457" y="161" clip-path="url(#clipPath1)" width="5" shape-rendering="auto" height="5" stroke="none"/>
<line clip-path="url(#clipPath1)" fill="none" x1="459" x2="491" y1="163" y2="162" shape-rendering="auto"/>
<rect x="489" y="160" clip-path="url(#clipPath1)" width="5" shape-rendering="auto" height="5" stroke="none"/>
<line clip-path="url(#clipPath1)" fill="none" x1="491" x2="491" y1="162" y2="160"/>
<rect x="489" y="158" clip-path="url(#clipPath1)" width="5" shape-rendering="auto" height="5" stroke="none"/>
<line clip-path="url(#clipPath1)" fill="none" x1="491" x2="529" y1="160" y2="159" shape-rendering="auto"/>
<rect x="527" y="157" clip-path="url(#clipPath1)" width="5" shape-rendering="auto" height="5" stroke="none"/>
<line clip-path="url(#clipPath1)" fill="none" x1="529" x2="529" y1="159" y2="158"/>
<rect x="527" y="156" clip-path="url(#clipPath1)" width="5" shape-rendering="auto" height="5" stroke="none"/>
<line clip-path="url(#clipPath1)" fill="none" x1="529" x2="529" y1="158" y2="156"/>
<rect x="527" y="154" clip-path="url(#clipPath1)" width="5" shape-rendering="auto" height="5" stroke="none"/>
<line clip-path="url(#clipPath1)" fill="none" x1="529" x2="529" y1="156" y2="148"/>
<rect x="527" y="146" clip-path="url(#clipPath1)" width="5" shape-rendering="auto" height="5" stroke="none"/>
<line clip-path="url(#clipPath1)" fill="none" x1="529" x2="529" y1="148" y2="147"/>
<rect x="527" y="145" clip-path="url(#clipPath1)" width="5" shape-rendering="auto" height="5" stroke="none"/>
<line clip-path="url(#clipPath1)" fill="none" x1="529" x2="529" y1="147" y2="145"/>
<rect x="527" y="143" clip-path="url(#clipPath1)" width="5" shape-rendering="auto" height="5" stroke="none"/>
<line clip-path="url(#clipPath1)" fill="none" x1="529" x2="530" y1="145" y2="144" shape-rendering="auto"/>
<rect x="528" y="142" clip-path="url(#clipPath1)" width="5" shape-rendering="auto" height="5" stroke="none"/>
<line clip-path="url(#clipPath1)" fill="none" x1="530" x2="530" y1="144" y2="142"/>
<rect x="528" y="140" clip-path="url(#clipPath1)" width="5" shape-rendering="auto" height="5" stroke="none"/>
<line clip-path="url(#clipPath1)" fill="none" x1="530" x2="530" y1="142" y2="141"/>
<rect x="528" y="139" clip-path="url(#clipPath1)" width="5" shape-rendering="auto" height="5" stroke="none"/>
<line clip-path="url(#clipPath1)" fill="none" x1="530" x2="530" y1="141" y2="140"/>
<rect x="528" y="138" clip-path="url(#clipPath1)" width="5" shape-rendering="auto" height="5" stroke="none"/>
<line clip-path="url(#clipPath1)" fill="none" x1="530" x2="554" y1="140" y2="138" shape-rendering="auto"/>
<rect x="552" y="136" clip-path="url(#clipPath1)" width="5" shape-rendering="auto" height="5" stroke="none"/>
<line clip-path="url(#clipPath1)" fill="none" x1="554" x2="555" y1="138" y2="137" shape-rendering="auto"/>
<rect x="553" y="135" clip-path="url(#clipPath1)" width="5" shape-rendering="auto" height="5" stroke="none"/>
<line clip-path="url(#clipPath1)" fill="none" x1="555" x2="556" y1="137" y2="136" shape-rendering="auto"/>
<rect x="554" y="134" clip-path="url(#clipPath1)" width="5" shape-rendering="auto" height="5" stroke="none"/>
<line clip-path="url(#clipPath1)" fill="none" x1="556" x2="623" y1="136" y2="134" shape-rendering="auto"/>
<rect x="621" y="132" clip-path="url(#clipPath1)" width="5" shape-rendering="auto" height="5" stroke="none"/>
<line clip-path="url(#clipPath1)" fill="none" x1="623" x2="929" y1="134" y2="129" shape-rendering="auto"/>
<rect x="927" y="127" clip-path="url(#clipPath1)" width="5" shape-rendering="auto" height="5" stroke="none"/>
<line clip-path="url(#clipPath1)" fill="none" x1="929" x2="929" y1="129" y2="125"/>
<rect x="927" y="123" clip-path="url(#clipPath1)" width="5" shape-rendering="auto" height="5" stroke="none"/>
<line clip-path="url(#clipPath1)" fill="none" x1="929" x2="929" y1="125" y2="123"/>
<rect x="927" y="121" clip-path="url(#clipPath1)" width="5" shape-rendering="auto" height="5" stroke="none"/>
<line clip-path="url(#clipPath1)" fill="none" x1="929" x2="929" y1="123" y2="119"/>
<rect x="927" y="117" clip-path="url(#clipPath1)" width="5" shape-rendering="auto" height="5" stroke="none"/>
<line clip-path="url(#clipPath1)" fill="none" x1="929" x2="929" y1="119" y2="118"/>
<rect x="927" y="116" clip-path="url(#clipPath1)" width="5" shape-rendering="auto" height="5" stroke="none"/>
<line clip-path="url(#clipPath1)" fill="none" x1="929" x2="930" y1="118" y2="118" shape-rendering="auto"/>
<rect x="928" y="116" clip-path="url(#clipPath1)" width="5" shape-rendering="auto" height="5" stroke="none"/>
<line clip-path="url(#clipPath1)" fill="none" x1="930" x2="930" y1="118" y2="115"/>
<rect x="928" y="113" clip-path="url(#clipPath1)" width="5" shape-rendering="auto" height="5" stroke="none"/>
<line clip-path="url(#clipPath1)" fill="none" x1="930" x2="930" y1="115" y2="114"/>
<rect x="928" y="112" clip-path="url(#clipPath1)" width="5" shape-rendering="auto" height="5" stroke="none"/>
<line clip-path="url(#clipPath1)" fill="none" x1="930" x2="930" y1="114" y2="112"/>
<rect x="928" y="110" clip-path="url(#clipPath1)" width="5" shape-rendering="auto" height="5" stroke="none"/>
<line clip-path="url(#clipPath1)" fill="none" x1="930" x2="930" y1="112" y2="111"/>
<rect x="928" y="109" clip-path="url(#clipPath1)" width="5" shape-rendering="auto" height="5" stroke="none"/>
<line clip-path="url(#clipPath1)" fill="none" x1="930" x2="930" y1="111" y2="108"/>
<rect x="928" y="106" clip-path="url(#clipPath1)" width="5" shape-rendering="auto" height="5" stroke="none"/>
<line clip-path="url(#clipPath1)" fill="none" x1="930" x2="930" y1="108" y2="107"/>
<rect x="928" y="105" clip-path="url(#clipPath1)" width="5" shape-rendering="auto" height="5" stroke="none"/>
<line clip-path="url(#clipPath1)" fill="none" x1="930" x2="930" y1="107" y2="105"/>
<rect x="928" y="103" clip-path="url(#clipPath1)" width="5" shape-rendering="auto" height="5" stroke="none"/>
<line clip-path="url(#clipPath1)" fill="none" x1="930" x2="930" y1="105" y2="104"/>
<rect x="928" y="102" clip-path="url(#clipPath1)" width="5" shape-rendering="auto" height="5" stroke="none"/>
<line clip-path="url(#clipPath1)" fill="none" x1="930" x2="930" y1="104" y2="103"/>
<rect x="928" y="101" clip-path="url(#clipPath1)" width="5" shape-rendering="auto" height="5" stroke="none"/>
<line clip-path="url(#clipPath1)" fill="none" x1="930" x2="930" y1="103" y2="101"/>
<rect x="928" y="99" clip-path="url(#clipPath1)" width="5" shape-rendering="auto" height="5" stroke="none"/>
<line clip-path="url(#clipPath1)" fill="none" x1="930" x2="930" y1="101" y2="100"/>
<rect x="928" y="98" clip-path="url(#clipPath1)" width="5" shape-rendering="auto" height="5" stroke="none"/>
<line clip-path="url(#clipPath1)" fill="none" x1="930" x2="930" y1="100" y2="98"/>
<rect x="928" y="96" clip-path="url(#clipPath1)" width="5" shape-rendering="auto" height="5" stroke="none"/>
<line clip-path="url(#clipPath1)" fill="none" x1="930" x2="930" y1="98" y2="97"/>
<rect x="928" y="95" clip-path="url(#clipPath1)" width="5" shape-rendering="auto" height="5" stroke="none"/>
<line clip-path="url(#clipPath1)" fill="none" x1="930" x2="930" y1="97" y2="93"/>
<rect x="928" y="91" clip-path="url(#clipPath1)" width="5" shape-rendering="auto" height="5" stroke="none"/>
<line clip-path="url(#clipPath1)" fill="none" x1="930" x2="930" y1="93" y2="92"/>
<rect x="928" y="90" clip-path="url(#clipPath1)" width="5" shape-rendering="auto" height="5" stroke="none"/>
<line clip-path="url(#clipPath1)" fill="none" x1="930" x2="930" y1="92" y2="87"/>
<rect x="928" y="85" clip-path="url(#clipPath1)" width="5" shape-rendering="auto" height="5" stroke="none"/>
<line clip-path="url(#clipPath1)" fill="none" x1="930" x2="930" y1="87" y2="86"/>
<rect x="928" y="84" clip-path="url(#clipPath1)" width="5" shape-rendering="auto" height="5" stroke="none"/>
<line clip-path="url(#clipPath1)" fill="none" x1="930" x2="930" y1="86" y2="85"/>
<rect x="928" y="83" clip-path="url(#clipPath1)" width="5" shape-rendering="auto" height="5" stroke="none"/>
<line clip-path="url(#clipPath1)" fill="none" x1="930" x2="930" y1="85" y2="83"/>
<rect x="928" y="81" clip-path="url(#clipPath1)" width="5" shape-rendering="auto" height="5" stroke="none"/>
<line clip-path="url(#clipPath1)" fill="none" x1="930" x2="930" y1="83" y2="82"/>
<rect x="928" y="80" clip-path="url(#clipPath1)" width="5" shape-rendering="auto" height="5" stroke="none"/>
<line clip-path="url(#clipPath1)" fill="none" x1="930" x2="930" y1="82" y2="81"/>
<rect x="928" y="79" clip-path="url(#clipPath1)" width="5" shape-rendering="auto" height="5" stroke="none"/>
<line clip-path="url(#clipPath1)" fill="none" x1="930" x2="930" y1="81" y2="77"/>
<rect x="928" y="75" clip-path="url(#clipPath1)" width="5" shape-rendering="auto" height="5" stroke="none"/>
<rect x="32" y="23" clip-path="url(#clipPath2)" fill="none" width="910" shape-rendering="auto" height="216" stroke="black"/>
</g>
<g text-rendering="geometricPrecision" font-size="13" stroke-linecap="butt">
<line clip-path="url(#clipPath2)" fill="none" x1="32" x2="942" y1="21" y2="21"/>
<line clip-path="url(#clipPath2)" fill="none" x1="32" x2="942" y1="241" y2="241"/>
<text xml:space="preserve" x="487" y="259" clip-path="url(#clipPath2)" stroke="none"/>
<line clip-path="url(#clipPath2)" fill="none" x1="32" x2="32" y1="17" y2="21"/>
<line clip-path="url(#clipPath2)" fill="none" x1="32" x2="32" y1="245" y2="241"/>
<text font-size="11" x="31" y="14" clip-path="url(#clipPath2)" stroke="none" xml:space="preserve">0</text>
<text font-size="11" x="31" y="257" clip-path="url(#clipPath2)" stroke="none" xml:space="preserve">0</text>
<line clip-path="url(#clipPath2)" fill="none" x1="64" x2="64" y1="19" y2="21"/>
<line clip-path="url(#clipPath2)" fill="none" x1="64" x2="64" y1="243" y2="241"/>
<line clip-path="url(#clipPath2)" fill="none" x1="97" x2="97" y1="17" y2="21"/>
<line clip-path="url(#clipPath2)" fill="none" x1="97" x2="97" y1="245" y2="241"/>
<text font-size="11" x="91" y="14" clip-path="url(#clipPath2)" stroke="none" xml:space="preserve">200</text>
<text font-size="11" x="91" y="257" clip-path="url(#clipPath2)" stroke="none" xml:space="preserve">200</text>
<line clip-path="url(#clipPath2)" fill="none" x1="129" x2="129" y1="19" y2="21"/>
<line clip-path="url(#clipPath2)" fill="none" x1="129" x2="129" y1="243" y2="241"/>
<line clip-path="url(#clipPath2)" fill="none" x1="162" x2="162" y1="17" y2="21"/>
<line clip-path="url(#clipPath2)" fill="none" x1="162" x2="162" y1="245" y2="241"/>
<text font-size="11" x="156" y="14" clip-path="url(#clipPath2)" stroke="none" xml:space="preserve">400</text>
<text font-size="11" x="156" y="257" clip-path="url(#clipPath2)" stroke="none" xml:space="preserve">400</text>
<line clip-path="url(#clipPath2)" fill="none" x1="195" x2="195" y1="19" y2="21"/>
<line clip-path="url(#clipPath2)" fill="none" x1="195" x2="195" y1="243" y2="241"/>
<line clip-path="url(#clipPath2)" fill="none" x1="227" x2="227" y1="17" y2="21"/>
<line clip-path="url(#clipPath2)" fill="none" x1="227" x2="227" y1="245" y2="241"/>
<text font-size="11" x="221" y="14" clip-path="url(#clipPath2)" stroke="none" xml:space="preserve">600</text>
<text font-size="11" x="221" y="257" clip-path="url(#clipPath2)" stroke="none" xml:space="preserve">600</text>
<line clip-path="url(#clipPath2)" fill="none" x1="260" x2="260" y1="19" y2="21"/>
<line clip-path="url(#clipPath2)" fill="none" x1="260" x2="260" y1="243" y2="241"/>
<line clip-path="url(#clipPath2)" fill="none" x1="293" x2="293" y1="17" y2="21"/>
<line clip-path="url(#clipPath2)" fill="none" x1="293" x2="293" y1="245" y2="241"/>
<text font-size="11" x="287" y="14" clip-path="url(#clipPath2)" stroke="none" xml:space="preserve">800</text>
<text font-size="11" x="287" y="257" clip-path="url(#clipPath2)" stroke="none" xml:space="preserve">800</text>
<line clip-path="url(#clipPath2)" fill="none" x1="325" x2="325" y1="19" y2="21"/>
<line clip-path="url(#clipPath2)" fill="none" x1="325" x2="325" y1="243" y2="241"/>
<line clip-path="url(#clipPath2)" fill="none" x1="358" x2="358" y1="17" y2="21"/>
<line clip-path="url(#clipPath2)" fill="none" x1="358" x2="358" y1="245" y2="241"/>
<text font-size="11" x="349" y="14" clip-path="url(#clipPath2)" stroke="none" xml:space="preserve">1000</text>
<text font-size="11" x="349" y="257" clip-path="url(#clipPath2)" stroke="none" xml:space="preserve">1000</text>
<line clip-path="url(#clipPath2)" fill="none" x1="391" x2="391" y1="19" y2="21"/>
<line clip-path="url(#clipPath2)" fill="none" x1="391" x2="391" y1="243" y2="241"/>
<line clip-path="url(#clipPath2)" fill="none" x1="423" x2="423" y1="17" y2="21"/>
<line clip-path="url(#clipPath2)" fill="none" x1="423" x2="423" y1="245" y2="241"/>
<text font-size="11" x="414" y="14" clip-path="url(#clipPath2)" stroke="none" xml:space="preserve">1200</text>
<text font-size="11" x="414" y="257" clip-path="url(#clipPath2)" stroke="none" xml:space="preserve">1200</text>
<line clip-path="url(#clipPath2)" fill="none" x1="456" x2="456" y1="19" y2="21"/>
<line clip-path="url(#clipPath2)" fill="none" x1="456" x2="456" y1="243" y2="241"/>
<line clip-path="url(#clipPath2)" fill="none" x1="489" x2="489" y1="17" y2="21"/>
<line clip-path="url(#clipPath2)" fill="none" x1="489" x2="489" y1="245" y2="241"/>
<text font-size="11" x="480" y="14" clip-path="url(#clipPath2)" stroke="none" xml:space="preserve">1400</text>
<text font-size="11" x="480" y="257" clip-path="url(#clipPath2)" stroke="none" xml:space="preserve">1400</text>
<line clip-path="url(#clipPath2)" fill="none" x1="521" x2="521" y1="19" y2="21"/>
<line clip-path="url(#clipPath2)" fill="none" x1="521" x2="521" y1="243" y2="241"/>
<line clip-path="url(#clipPath2)" fill="none" x1="554" x2="554" y1="17" y2="21"/>
<line clip-path="url(#clipPath2)" fill="none" x1="554" x2="554" y1="245" y2="241"/>
<text font-size="11" x="545" y="14" clip-path="url(#clipPath2)" stroke="none" xml:space="preserve">1600</text>
<text font-size="11" x="545" y="257" clip-path="url(#clipPath2)" stroke="none" xml:space="preserve">1600</text>
<line clip-path="url(#clipPath2)" fill="none" x1="587" x2="587" y1="19" y2="21"/>
<line clip-path="url(#clipPath2)" fill="none" x1="587" x2="587" y1="243" y2="241"/>
<line clip-path="url(#clipPath2)" fill="none" x1="619" x2="619" y1="17" y2="21"/>
<line clip-path="url(#clipPath2)" fill="none" x1="619" x2="619" y1="245" y2="241"/>
<text font-size="11" x="610" y="14" clip-path="url(#clipPath2)" stroke="none" xml:space="preserve">1800</text>
<text font-size="11" x="610" y="257" clip-path="url(#clipPath2)" stroke="none" xml:space="preserve">1800</text>
<line clip-path="url(#clipPath2)" fill="none" x1="652" x2="652" y1="19" y2="21"/>
<line clip-path="url(#clipPath2)" fill="none" x1="652" x2="652" y1="243" y2="241"/>
<line clip-path="url(#clipPath2)" fill="none" x1="685" x2="685" y1="17" y2="21"/>
<line clip-path="url(#clipPath2)" fill="none" x1="685" x2="685" y1="245" y2="241"/>
<text font-size="11" x="676" y="14" clip-path="url(#clipPath2)" stroke="none" xml:space="preserve">2000</text>
<text font-size="11" x="676" y="257" clip-path="url(#clipPath2)" stroke="none" xml:space="preserve">2000</text>
<line clip-path="url(#clipPath2)" fill="none" x1="717" x2="717" y1="19" y2="21"/>
<line clip-path="url(#clipPath2)" fill="none" x1="717" x2="717" y1="243" y2="241"/>
<line clip-path="url(#clipPath2)" fill="none" x1="750" x2="750" y1="17" y2="21"/>
<line clip-path="url(#clipPath2)" fill="none" x1="750" x2="750" y1="245" y2="241"/>
<text font-size="11" x="741" y="14" clip-path="url(#clipPath2)" stroke="none" xml:space="preserve">2200</text>
<text font-size="11" x="741" y="257" clip-path="url(#clipPath2)" stroke="none" xml:space="preserve">2200</text>
<line clip-path="url(#clipPath2)" fill="none" x1="783" x2="783" y1="19" y2="21"/>
<line clip-path="url(#clipPath2)" fill="none" x1="783" x2="783" y1="243" y2="241"/>
<line clip-path="url(#clipPath2)" fill="none" x1="815" x2="815" y1="17" y2="21"/>
<line clip-path="url(#clipPath2)" fill="none" x1="815" x2="815" y1="245" y2="241"/>
<text font-size="11" x="806" y="14" clip-path="url(#clipPath2)" stroke="none" xml:space="preserve">2400</text>
<text font-size="11" x="806" y="257" clip-path="url(#clipPath2)" stroke="none" xml:space="preserve">2400</text>
<line clip-path="url(#clipPath2)" fill="none" x1="848" x2="848" y1="19" y2="21"/>
<line clip-path="url(#clipPath2)" fill="none" x1="848" x2="848" y1="243" y2="241"/>
<line clip-path="url(#clipPath2)" fill="none" x1="880" x2="880" y1="17" y2="21"/>
<line clip-path="url(#clipPath2)" fill="none" x1="880" x2="880" y1="245" y2="241"/>
<text font-size="11" x="871" y="14" clip-path="url(#clipPath2)" stroke="none" xml:space="preserve">2600</text>
<text font-size="11" x="871" y="257" clip-path="url(#clipPath2)" stroke="none" xml:space="preserve">2600</text>
<line clip-path="url(#clipPath2)" fill="none" x1="913" x2="913" y1="19" y2="21"/>
<line clip-path="url(#clipPath2)" fill="none" x1="913" x2="913" y1="243" y2="241"/>
<line clip-path="url(#clipPath2)" fill="none" x1="30" x2="30" y1="23" y2="239"/>
<line clip-path="url(#clipPath2)" fill="none" x1="944" x2="944" y1="23" y2="239"/>
<line clip-path="url(#clipPath2)" fill="none" x1="26" x2="30" y1="239" y2="239"/>
<line clip-path="url(#clipPath2)" fill="none" x1="948" x2="944" y1="239" y2="239"/>
<text font-size="11" x="20" y="244" clip-path="url(#clipPath2)" stroke="none" xml:space="preserve">0</text>
<text font-size="11" x="951" y="244" clip-path="url(#clipPath2)" stroke="none" xml:space="preserve">0</text>
<line clip-path="url(#clipPath2)" fill="none" x1="28" x2="30" y1="225" y2="225"/>
<line clip-path="url(#clipPath2)" fill="none" x1="946" x2="944" y1="225" y2="225"/>
<line clip-path="url(#clipPath2)" fill="none" x1="28" x2="30" y1="211" y2="211"/>
<line clip-path="url(#clipPath2)" fill="none" x1="946" x2="944" y1="211" y2="211"/>
<line clip-path="url(#clipPath2)" fill="none" x1="28" x2="30" y1="197" y2="197"/>
<line clip-path="url(#clipPath2)" fill="none" x1="946" x2="944" y1="197" y2="197"/>
<line clip-path="url(#clipPath2)" fill="none" x1="28" x2="30" y1="184" y2="184"/>
<line clip-path="url(#clipPath2)" fill="none" x1="946" x2="944" y1="184" y2="184"/>
<line clip-path="url(#clipPath2)" fill="none" x1="26" x2="30" y1="170" y2="170"/>
<line clip-path="url(#clipPath2)" fill="none" x1="948" x2="944" y1="170" y2="170"/>
<text font-size="11" x="15" y="175" clip-path="url(#clipPath2)" stroke="none" xml:space="preserve">50</text>
<text font-size="11" x="951" y="175" clip-path="url(#clipPath2)" stroke="none" xml:space="preserve">50</text>
<line clip-path="url(#clipPath2)" fill="none" x1="28" x2="30" y1="156" y2="156"/>
<line clip-path="url(#clipPath2)" fill="none" x1="946" x2="944" y1="156" y2="156"/>
<line clip-path="url(#clipPath2)" fill="none" x1="28" x2="30" y1="142" y2="142"/>
<line clip-path="url(#clipPath2)" fill="none" x1="946" x2="944" y1="142" y2="142"/>
<line clip-path="url(#clipPath2)" fill="none" x1="28" x2="30" y1="129" y2="129"/>
<line clip-path="url(#clipPath2)" fill="none" x1="946" x2="944" y1="129" y2="129"/>
<line clip-path="url(#clipPath2)" fill="none" x1="28" x2="30" y1="115" y2="115"/>
<line clip-path="url(#clipPath2)" fill="none" x1="946" x2="944" y1="115" y2="115"/>
<line clip-path="url(#clipPath2)" fill="none" x1="26" x2="30" y1="101" y2="101"/>
<line clip-path="url(#clipPath2)" fill="none" x1="948" x2="944" y1="101" y2="101"/>
<text font-size="11" x="10" y="106" clip-path="url(#clipPath2)" stroke="none" xml:space="preserve">100</text>
<text font-size="11" x="951" y="106" clip-path="url(#clipPath2)" stroke="none" xml:space="preserve">100</text>
<line clip-path="url(#clipPath2)" fill="none" x1="28" x2="30" y1="87" y2="87"/>
<line clip-path="url(#clipPath2)" fill="none" x1="946" x2="944" y1="87" y2="87"/>
<line clip-path="url(#clipPath2)" fill="none" x1="28" x2="30" y1="74" y2="74"/>
<line clip-path="url(#clipPath2)" fill="none" x1="946" x2="944" y1="74" y2="74"/>
<line clip-path="url(#clipPath2)" fill="none" x1="28" x2="30" y1="60" y2="60"/>
<line clip-path="url(#clipPath2)" fill="none" x1="946" x2="944" y1="60" y2="60"/>
<line clip-path="url(#clipPath2)" fill="none" x1="28" x2="30" y1="46" y2="46"/>
<line clip-path="url(#clipPath2)" fill="none" x1="946" x2="944" y1="46" y2="46"/>
<line clip-path="url(#clipPath2)" fill="none" x1="26" x2="30" y1="33" y2="33"/>
<line clip-path="url(#clipPath2)" fill="none" x1="948" x2="944" y1="33" y2="33"/>
<text font-size="11" x="10" y="38" clip-path="url(#clipPath2)" stroke="none" xml:space="preserve">150</text>
<text font-size="11" x="951" y="38" clip-path="url(#clipPath2)" stroke="none" xml:space="preserve">150</text>
</g>
</g>
</svg>
